<svg width="48" height="49" viewBox="0 0 48 49" fill="none" xmlns="http://www.w3.org/2000/svg">
<path d="M11 32.006L1 28.006C1 28.006 6.712 15.696 8 15.006C8.886 14.618 13.208 12.423 15 12.006C16.5 14.464 19.333 18.006 24 18.006C28.667 18.006 31.5 14.464 33 12.006C34.792 12.423 39.114 14.618 40 15.006C41.287 15.696 47 28.006 47 28.006L37 32.006" stroke="white" stroke-width="2" stroke-miterlimit="10" stroke-linejoin="round"/>
<path d="M37 27.006V47.006H11V27.006" stroke="white" stroke-width="2" stroke-miterlimit="10" stroke-linejoin="round"/>
<path d="M31.999 14.485L24 10.063L16 14.485" stroke="white" stroke-width="2" stroke-miterlimit="10"/>
<path d="M26.8288 4.97904C26.9388 4.66604 26.9998 4.34304 26.9998 3.99304C26.9998 2.15804 25.3528 0.715036 23.4558 1.04804C22.2488 1.26004 21.2598 2.25305 21.0478 3.46005C20.8338 4.67905 21.3568 5.79706 22.2448 6.43906C23.2928 7.19706 23.9998 7.77006 23.9998 9.06406V10.006" stroke="white" stroke-width="2" stroke-miterlimit="10"/>
</svg>
