<svg xmlns="http://www.w3.org/2000/svg" viewBox="0 0 497.97 380.73">
    <g>
        <g>
            <path fill="#a7a7aa" class="cls-1" d="M405.49,125.07a7.51,7.51,0,0,0,.95-6.84L377.21,35.41a15.55,15.55,0,0,0-14.64-10.36H135.4a15.55,15.55,0,0,0-14.64,10.36L91.53,118.23a7.59,7.59,0,0,0,7.08,10H399.36A7.53,7.53,0,0,0,405.49,125.07ZM109.23,113.22l25.7-72.81a.52.52,0,0,1,.47-.33H362.57a.52.52,0,0,1,.47.33l25.7,72.81Z" />
            <path fill="#a7a7aa" class="cls-1" d="M95.85,201.07c-21.72,0-38.74,13.86-38.74,31.56s17,31.56,38.74,31.56,38.75-13.86,38.75-31.56S117.58,201.07,95.85,201.07Zm0,48.09c-15.17,0-26.51-8.73-26.51-16.53S80.68,216.1,95.85,216.1s26.51,8.73,26.51,16.53S111,249.16,95.85,249.16Z" />
            <path fill="#a7a7aa" class="cls-1" d="M402.11,201.07c-21.72,0-38.74,13.86-38.74,31.56s17,31.56,38.74,31.56,38.75-13.86,38.75-31.56S423.84,201.07,402.11,201.07Zm0,48.09c-15.17,0-26.51-8.73-26.51-16.53s11.34-16.53,26.51-16.53,26.51,8.73,26.51,16.53S417.29,249.16,402.11,249.16Z" />
            <path fill="#a7a7aa" class="cls-1" d="M489.45,105.2H449.38a7.51,7.51,0,0,0-7.29,5.7L436.81,132,399.89,27.4A39.65,39.65,0,0,0,362.57,1H135.4A39.64,39.64,0,0,0,98.08,27.41L61.16,132,55.88,110.9a7.51,7.51,0,0,0-7.29-5.7H8.51A7.52,7.52,0,0,0,1,112.72v32.06a7.52,7.52,0,0,0,7.51,7.52H50L24.4,188.16a39.38,39.38,0,0,0-7.37,23v93.92a39.54,39.54,0,0,0,16,31.8,2.45,2.45,0,0,0,0,.27v27a15.55,15.55,0,0,0,15.53,15.53h48.1a15.55,15.55,0,0,0,15.53-15.53V344.67H385.75V364.2a15.55,15.55,0,0,0,15.53,15.53h48.1a15.55,15.55,0,0,0,15.53-15.53v-27a2.45,2.45,0,0,0,0-.27,39.54,39.54,0,0,0,16.05-31.8V211.17a39.32,39.32,0,0,0-7.38-23L448,152.3h41.5a7.52,7.52,0,0,0,7.52-7.52V112.72A7.52,7.52,0,0,0,489.45,105.2ZM16,137.27v-17h26.7l4.25,17ZM184.36,248.48H313.61v17H184.36Zm1.18-15a24.58,24.58,0,0,1,23.37-17h80.15a24.58,24.58,0,0,1,23.37,17Zm-1.18,47.1H313.61v17H184.36Zm280.37,32.06a24.59,24.59,0,0,1-23.37,17H56.61a24.58,24.58,0,0,1-23.37-17ZM97.19,364.2a.5.5,0,0,1-.5.5H48.59a.5.5,0,0,1-.5-.5V344.67h49.1Zm352.69-19.53V364.2a.5.5,0,0,1-.5.5h-48.1a.5.5,0,0,1-.5-.5V344.67h49.1Zm16-133.5v86.41H328.64V241a39.62,39.62,0,0,0-39.58-39.58H208.91A39.62,39.62,0,0,0,169.33,241v56.61H32.06V211.17a24.4,24.4,0,0,1,4.57-14.27l31.86-44.6H345.17a7.52,7.52,0,1,0,0-15H75.25l37-104.86A24.59,24.59,0,0,1,135.4,16H362.57a24.59,24.59,0,0,1,23.15,16.38l37,104.86H377.23a7.52,7.52,0,0,0,0,15h52.25l31.86,44.6A24.4,24.4,0,0,1,465.91,211.17Zm16-73.9H451l4.26-17h26.7Z" />
        </g>
    </g>
</svg>
