<svg xmlns="http://www.w3.org/2000/svg" viewBox="0 0 144.68 63.35"><defs><style>.cls-1{fill:#fff;}.cls-2{fill:#fff;}.cls-3{fill:#fff;}</style></defs><g id="Слой_2" data-name="Слой 2"><g id="Слой_1-2" data-name="Слой 1"><path class="cls-1" d="M76.3,3.83a2.12,2.12,0,0,1,.92.59.4.4,0,0,1,.09.24V4.54C77.25,4.38,77.06,4.11,76.3,3.83Z"/><path class="cls-1" d="M76.07,3.75h0l.24.08Z"/><path class="cls-1" d="M93.83,9.88h0l.35.12Z"/><path class="cls-1" d="M94.19,10a3.17,3.17,0,0,1,1.39.88.59.59,0,0,1,.13.36l0-.18C95.63,10.84,95.33,10.43,94.19,10Z"/><line class="cls-1" x1="77.31" y1="4.66" x2="77.3" y2="4.54"/><path class="cls-1" d="M77.31,4.66h0a.4.4,0,0,0-.09-.24,2.12,2.12,0,0,0-.92-.59c.76.28,1,.55,1,.71a20.6,20.6,0,0,0-.23-3.16C75.26-1,64.66-.38,50.77,3.6A120.88,120.88,0,0,0,38.16,8.31v.4q2.85-1,6.05-1.91C55.08,3.68,68.56,2.49,74.43,3.38A12.65,12.65,0,0,1,76,3.72l.08,0h0l.23.08-.24-.08a15.51,15.51,0,0,1-2,1.65c1.06-.17,2.09-.33,3.09-.46A.54.54,0,0,0,77.31,4.66Z"/><path class="cls-2" d="M82.67,17.76c-.93.4-1.81.8-2.61,1.22C81,18.59,81.81,18.18,82.67,17.76Z"/><path class="cls-2" d="M95.69,11.61l0,.18a.59.59,0,0,0-.13-.36,3.27,3.27,0,0,0-1.39-.89c1.14.42,1.44.84,1.5,1.07,0,0-.07-4.42-.35-4.77C92.6,3.27,76.56,4.16,55.53,10.2a178.82,178.82,0,0,0-18.59,6.9v.66c2.73-.93,5.61-1.85,8.65-2.72,16.47-4.72,36.88-6.53,45.75-5.18a18.19,18.19,0,0,1,2.36.52l.13,0h0l.35.12-.35-.12c-2.23,2.25-6.38,5-11.16,7.34,5.68-2.44,13-4.4,13-6A.32.32,0,0,0,95.69,11.61Z"/><path class="cls-1" d="M81.23,24.76c-.62.26-1.2.53-1.73.81C80.09,25.31,80.66,25,81.23,24.76Z"/><path class="cls-1" d="M89.75,20.58a2,2,0,0,0-.91-.59c.75.28,1,.55,1,.7a20.48,20.48,0,0,0-.23-3.15c-1.81-2.35-12.06-2.25-25.85,2.08a66.59,66.59,0,0,0-9.22,3.51v.76c1.63-.63,3.21-1.19,4.33-1.49C76,17.81,81.09,18.65,87,19.54a12.65,12.65,0,0,1,1.55.34l.09,0h0l.23.08-.23-.08a29.9,29.9,0,0,1-7.37,4.85c3.75-1.61,8.59-2.91,8.61-3.94h0A.37.37,0,0,0,89.75,20.58Z"/><path class="cls-1" d="M89.84,20.81v-.12a.27.27,0,0,1,0,.12Z"/><path class="cls-2" d="M.58,59.17H2.72a1.36,1.36,0,0,0-1.47-1.32,2.41,2.41,0,0,0-1,.24l-.17-.51a2.73,2.73,0,0,1,1.31-.32,2.12,2.12,0,0,1,1.55.59,2.3,2.3,0,0,1,.58,1.64A2.11,2.11,0,0,1,1.25,61.7,2.71,2.71,0,0,1,0,61.41l.16-.55a2.52,2.52,0,0,0,1.06.23A1.4,1.4,0,0,0,2.71,59.7H.58Z"/><path class="cls-2" d="M5.76,57.34v1.72h2V57.34h.78v4.27H7.78V59.68h-2v1.93H5V57.34Z"/><path class="cls-2" d="M10.79,59.62a1.36,1.36,0,0,0,1.46,1.48,2.8,2.8,0,0,0,1.18-.22l.14.55a3.32,3.32,0,0,1-1.42.27,2,2,0,0,1-2.1-2.15,2.06,2.06,0,0,1,2-2.29,1.79,1.79,0,0,1,1.76,2,1.84,1.84,0,0,1,0,.36Zm2.27-.56A1.1,1.1,0,0,0,12,57.81a1.27,1.27,0,0,0-1.19,1.25Z"/><path class="cls-2" d="M15.3,58.74c0-.55,0-1,0-1.4H16l0,.73h0a1.67,1.67,0,0,1,1.51-.81,1.92,1.92,0,0,1,1.82,2.15,2,2,0,0,1-2,2.29A1.47,1.47,0,0,1,16.09,61h0v2.32H15.3Zm.77,1.13a1.08,1.08,0,0,0,0,.32,1.19,1.19,0,0,0,1.16.91c.82,0,1.3-.67,1.3-1.65s-.45-1.58-1.27-1.58a1.23,1.23,0,0,0-1.18,1,1.81,1.81,0,0,0-.05.31Z"/><path class="cls-2" d="M23.45,57.34V58H21.6v3.65h-.77V57.34Z"/><path class="cls-2" d="M25.42,57.34v1.8c0,.67,0,1.1-.05,1.71h0c.26-.52.4-.82.69-1.31l1.33-2.21h.91v4.27h-.74V59.8c0-.7,0-1.06.05-1.75h0c-.28.56-.46.9-.72,1.33-.4.66-.88,1.48-1.33,2.23h-.9V57.34Z"/><path class="cls-2" d="M33.27,61.61H32.5V59.82h-.57a.94.94,0,0,0-.71.25,2.73,2.73,0,0,0-.6,1.19c-.06.13-.12.24-.18.35h-.83a2.51,2.51,0,0,0,.27-.49,3.15,3.15,0,0,1,.67-1.28,1,1,0,0,1,.48-.25v0a1.14,1.14,0,0,1-1.13-1.06,1,1,0,0,1,.57-.93,2.89,2.89,0,0,1,1.43-.29,10.59,10.59,0,0,1,1.37.09Zm-.77-3.76a5.45,5.45,0,0,0-.64,0c-.52,0-1.16.15-1.16.74s.68.75,1.14.75h.66Z"/><path class="cls-2" d="M40.68,58.82a1.13,1.13,0,0,1-.33.81,1.09,1.09,0,0,1-.8.33,1.11,1.11,0,0,1-.8-.33,1.13,1.13,0,0,1-.33-.81,1.1,1.1,0,0,1,.33-.81,1.12,1.12,0,0,1,1.6,0A1.14,1.14,0,0,1,40.68,58.82Z"/><path class="cls-2" d="M46.08,57.34v1.72h2V57.34h.78v4.27H48.1V59.68h-2v1.93H45.3V57.34Z"/><path class="cls-2" d="M53.67,60.58a7.83,7.83,0,0,0,.06,1H53L53,61.07h0a1.58,1.58,0,0,1-1.31.63,1.21,1.21,0,0,1-1.3-1.22c0-1,.92-1.6,2.56-1.59V58.8a.87.87,0,0,0-1-1,2.09,2.09,0,0,0-1.12.31l-.17-.51a2.66,2.66,0,0,1,1.41-.37c1.3,0,1.62.88,1.62,1.73Zm-.75-1.15c-.84,0-1.81.13-1.81,1a.68.68,0,0,0,.73.74,1.09,1.09,0,0,0,1-.71,1.21,1.21,0,0,0,0-.25Z"/><path class="cls-2" d="M58.76,57.34V61h.44L59.15,63h-.6l0-1.35H55.56L55.51,63h-.6l0-1.91.36,0a3.38,3.38,0,0,0,.42-.88,5.5,5.5,0,0,0,.25-1.7V57.34Zm-2.17,1.29a5.32,5.32,0,0,1-.22,1.59A4.18,4.18,0,0,1,56,61h2V57.93H56.59Z"/><path class="cls-2" d="M61.05,59.62a1.36,1.36,0,0,0,1.46,1.48,2.8,2.8,0,0,0,1.18-.22l.14.55a3.32,3.32,0,0,1-1.42.27,2,2,0,0,1-2.1-2.15,2.06,2.06,0,0,1,2-2.29,1.79,1.79,0,0,1,1.76,2,3.21,3.21,0,0,1,0,.36Zm2.27-.56a1.1,1.1,0,0,0-1.07-1.25,1.26,1.26,0,0,0-1.19,1.25Z"/><path class="cls-2" d="M65.92,57.34l1.42,1.86h.15V57.34h.74V59.2h.15l1.41-1.86h.89L69,59.28a1.5,1.5,0,0,1,1.28,1.13,10.36,10.36,0,0,0,.47,1.2H70a7.39,7.39,0,0,1-.39-1,1.17,1.17,0,0,0-1.21-.91h-.14v1.89h-.74V59.72h-.13a1.16,1.16,0,0,0-1.23.92,8.71,8.71,0,0,1-.4,1H65a9.22,9.22,0,0,0,.48-1.19,1.49,1.49,0,0,1,1.28-1.14L65,57.34Z"/><path class="cls-2" d="M72.72,57.34v1.72h2V57.34h.78v4.27h-.78V59.68h-2v1.93h-.78V57.34Z"/><path class="cls-2" d="M81.18,59.44a2.09,2.09,0,0,1-2.13,2.26,2,2,0,0,1-2-2.19,2.08,2.08,0,0,1,2.12-2.25A2,2,0,0,1,81.18,59.44Zm-3.38.05c0,.93.53,1.63,1.29,1.63s1.29-.69,1.29-1.65c0-.73-.36-1.63-1.28-1.63S77.8,58.68,77.8,59.49Z"/><path class="cls-2" d="M85.72,61.46a2.94,2.94,0,0,1-1.22.24,2,2,0,0,1-2.13-2.17,2.17,2.17,0,0,1,2.3-2.27,2.52,2.52,0,0,1,1.07.22l-.17.59a2,2,0,0,0-.9-.2,1.49,1.49,0,0,0-1.51,1.62,1.46,1.46,0,0,0,1.48,1.59,2.33,2.33,0,0,0,1-.2Z"/><path class="cls-2" d="M90.18,57.34V58H88.85v3.66h-.77V58H86.75v-.61Z"/><path class="cls-2" d="M92.14,57.34v1.44a5.23,5.23,0,0,1,.71,0c1,0,2,.3,2,1.44a1.22,1.22,0,0,1-.45,1,3,3,0,0,1-1.86.49,9.58,9.58,0,0,1-1.14-.06V57.34Zm0,3.72a3.09,3.09,0,0,0,.58,0c.58,0,1.33-.19,1.33-.9s-.77-.91-1.35-.91a3.43,3.43,0,0,0-.56.05Z"/><path class="cls-2" d="M101.93,58.82a1.13,1.13,0,0,1-.33.81,1.07,1.07,0,0,1-.79.33,1.09,1.09,0,0,1-.8-.33,1.14,1.14,0,0,1-.34-.81,1.14,1.14,0,0,1,1.14-1.15,1.07,1.07,0,0,1,.79.33A1.14,1.14,0,0,1,101.93,58.82Z"/><path class="cls-2" d="M106.58,58.74c0-.55,0-1,0-1.4h.69l0,.73h0a1.67,1.67,0,0,1,1.51-.81,1.92,1.92,0,0,1,1.82,2.15,2,2,0,0,1-1.95,2.29,1.47,1.47,0,0,1-1.31-.67h0v2.32h-.77Zm.77,1.13a1.08,1.08,0,0,0,0,.32,1.19,1.19,0,0,0,1.16.91c.82,0,1.3-.67,1.3-1.65s-.45-1.58-1.27-1.58a1.23,1.23,0,0,0-1.18,1,1.81,1.81,0,0,0-.05.31Z"/><path class="cls-2" d="M115.13,60.58a6.42,6.42,0,0,0,.06,1h-.7l-.06-.54h0a1.56,1.56,0,0,1-1.3.63,1.21,1.21,0,0,1-1.31-1.22c0-1,.92-1.6,2.57-1.59V58.8a.87.87,0,0,0-1-1,2.07,2.07,0,0,0-1.12.31l-.18-.51a2.71,2.71,0,0,1,1.41-.37c1.31,0,1.63.88,1.63,1.73Zm-.75-1.15c-.85,0-1.81.13-1.81,1a.67.67,0,0,0,.72.74,1.07,1.07,0,0,0,1-.71.81.81,0,0,0,0-.25Z"/><path class="cls-2" d="M117.26,59.13h.37c.65,0,1.09-.3,1.09-.69s-.34-.63-.82-.63a2,2,0,0,0-1,.31l-.19-.48a2.73,2.73,0,0,1,1.42-.38c.65,0,1.44.28,1.44,1.11a1.08,1.08,0,0,1-1,1v0a1.13,1.13,0,0,1,1.16,1.07c0,.92-.94,1.27-1.83,1.27a3,3,0,0,1-1.39-.35l.2-.53a2.35,2.35,0,0,0,1.13.3c.64,0,1-.3,1-.73s-.6-.73-1.24-.73h-.38Z"/><path class="cls-2" d="M121.21,57.4a8.33,8.33,0,0,1,1.36-.1c.72,0,1.9.12,1.9,1.06a1,1,0,0,1-.89,1v0c.63.09,1.08.43,1.08,1,0,1.12-1.41,1.26-2.24,1.26-.48,0-1,0-1.21,0Zm.74,3.71.62,0c.53,0,1.3-.11,1.3-.74s-.62-.75-1.36-.75H122Zm0-2h.58c.57,0,1.16-.17,1.16-.68s-.37-.62-1.14-.62a4.75,4.75,0,0,0-.6,0Z"/><path class="cls-2" d="M126.89,57.34v1.8c0,.67,0,1.1-.06,1.71h0c.26-.52.41-.82.7-1.31l1.33-2.21h.9v4.27h-.74V59.8c0-.7,0-1.06.06-1.75h0c-.28.56-.46.9-.72,1.33-.4.66-.88,1.48-1.33,2.23h-.9V57.34Z"/><path class="cls-2" d="M134.44,57.34V58h-1.33v3.66h-.78V58H131v-.61Z"/><path class="cls-2" d="M136.36,57.34v1.8c0,.67,0,1.1-.05,1.71h0c.26-.52.4-.82.69-1.31l1.33-2.21h.91v4.27h-.74V59.8c0-.7,0-1.06.05-1.75h0c-.29.56-.46.9-.72,1.33-.4.66-.88,1.48-1.33,2.23h-.9V57.34Z"/><path class="cls-2" d="M141.49,59.62A1.36,1.36,0,0,0,143,61.1a2.83,2.83,0,0,0,1.18-.22l.14.55a3.37,3.37,0,0,1-1.43.27,2,2,0,0,1-2.1-2.15,2.06,2.06,0,0,1,2-2.29,1.8,1.8,0,0,1,1.77,2,1.73,1.73,0,0,1,0,.36Zm2.28-.56a1.11,1.11,0,0,0-1.08-1.25,1.27,1.27,0,0,0-1.19,1.25Z"/><path class="cls-2" d="M1,48.26V33.64H8.46v1.61H2.78v13Z"/><path class="cls-2" d="M20.13,48.26H18.26L16.78,44H11.37l-1.31,4.27H8.53l4.75-14.62h2.07Zm-3.74-5.64-2.25-7-2.26,7Z"/><path class="cls-2" d="M20.66,44.19l1.66-.4a4.29,4.29,0,0,0,1.4,2.52,4.3,4.3,0,0,0,2.69.76,3.41,3.41,0,0,0,2.46-.81,2.8,2.8,0,0,0,.83-2.07c0-1.83-1-2.75-3.11-2.75H25.2V39.87h1.27a3.06,3.06,0,0,0,2-.67,2.3,2.3,0,0,0,.78-1.86,2.22,2.22,0,0,0-.82-1.81,3.25,3.25,0,0,0-2.16-.69,3.17,3.17,0,0,0-3.49,2.82l-1.77-.2c.61-2.74,2.34-4.11,5.21-4.11a5.53,5.53,0,0,1,3.62,1.09,3.45,3.45,0,0,1,1.33,2.8c0,1.68-.94,2.77-2.83,3.29,2.16.36,3.24,1.55,3.24,3.54a4.33,4.33,0,0,1-1.33,3.16,5.5,5.5,0,0,1-4,1.33,5.8,5.8,0,0,1-3.76-1.15A5.14,5.14,0,0,1,20.66,44.19Z"/><path class="cls-2" d="M38.49,48.26H36.66v-13H32.47V33.64H42.69v1.61h-4.2Z"/><path class="cls-2" d="M46.55,48.26H44.72V33.64h5.19A4.51,4.51,0,0,1,53.49,35a4.44,4.44,0,0,1,1.16,3,4.17,4.17,0,0,1-1.26,3.12,4.51,4.51,0,0,1-3.29,1.23H46.55Zm0-7.45h3.37A2.82,2.82,0,0,0,52,40,2.74,2.74,0,0,0,52.8,38,3,3,0,0,0,52.09,36,2.5,2.5,0,0,0,50,35.18H46.55Z"/><path class="cls-2" d="M65.9,48.26H64L62.55,44H57.14l-1.31,4.27H54.3l4.75-14.62h2.07Zm-3.74-5.64-2.25-7-2.26,7Z"/><path class="cls-2" d="M78.25,48.26H76.41v-7H69.64v7H67.81V33.64h1.83v6h6.77v-6h1.84Z"/><path class="cls-2" d="M90.66,43.35l1.67.37q-1.2,4.85-5.42,4.84a5,5,0,0,1-4.35-2.24A9.26,9.26,0,0,1,81,40.81a8.44,8.44,0,0,1,1.64-5.42,5.41,5.41,0,0,1,4.43-2q4.11,0,5.28,4.69l-1.73.35C90,36.06,88.79,34.9,87,34.9a3.4,3.4,0,0,0-3,1.62A8.27,8.27,0,0,0,83,41.08a7.55,7.55,0,0,0,1.09,4.3A3.33,3.33,0,0,0,87,47Q89.74,47,90.66,43.35Z"/><path class="cls-2" d="M94.6,48.26V33.64H103v1.61H96.36v4.44H99a11.39,11.39,0,0,1,3.14.33,3.22,3.22,0,0,1,1.76,1.4,4.94,4.94,0,0,1,.68,2.66,4,4,0,0,1-1.18,3,4.92,4.92,0,0,1-3.58,1.15Zm1.76-1.61H99.7q3,0,3-2.7a2.55,2.55,0,0,0-.74-2,3.85,3.85,0,0,0-2.53-.65H96.36Z"/><path class="cls-2" d="M117.11,48.26h-1.86L113.76,44h-5.41L107,48.26h-1.53l4.75-14.62h2.07Zm-3.74-5.64-2.25-7-2.26,7Z"/><path class="cls-2" d="M129.46,48.26h-1.83v-7h-6.78v7H119V33.64h1.83v6h6.78v-6h1.83Z"/><path class="cls-2" d="M144.66,48.26h-2l-4.38-8.07-3.34,4.17v3.9h-1.83V33.64h1.83v8.48l6.61-8.48h2l-4,5.12Z"/><rect class="cls-3" x="0.13" y="52.66" width="144.55" height="0.35"/></g></g></svg>