<svg xmlns="http://www.w3.org/2000/svg" viewBox="0 0 58.77 25.57"><defs><style>.cls-1{fill:#acabab;}.cls-2{fill:#114a93;}</style></defs><g id="Слой_2" data-name="Слой 2"><g id="Слой_1-2" data-name="Слой 1"><path class="cls-1" d="M39.36,3.83a2.18,2.18,0,0,1,.92.59.33.33,0,0,1,.08.24V4.54C40.31,4.38,40.11,4.11,39.36,3.83Z"/><path class="cls-1" d="M39.13,3.75h0l.24.08Z"/><path class="cls-1" d="M56.89,9.88h0l.35.12Z"/><path class="cls-1" d="M57.25,10a3.23,3.23,0,0,1,1.39.88.59.59,0,0,1,.13.36l0-.18C58.68,10.84,58.39,10.43,57.25,10Z"/><line class="cls-1" x1="40.36" y1="4.66" x2="40.36" y2="4.54"/><path class="cls-1" d="M40.36,4.66h0a.33.33,0,0,0-.08-.24,2.18,2.18,0,0,0-.92-.59c.75.28,1,.55,1,.71a20.71,20.71,0,0,0-.24-3.16C38.31-1,27.72-.38,13.83,3.6A120,120,0,0,0,1.22,8.31v.4c1.9-.65,3.91-1.29,6.05-1.91C18.14,3.68,31.62,2.49,37.48,3.38A12.88,12.88,0,0,1,39,3.72l.08,0h0l.23.08-.24-.08a15.51,15.51,0,0,1-2,1.65c1.06-.17,2.09-.33,3.09-.46A.52.52,0,0,0,40.36,4.66Z"/><path class="cls-2" d="M45.73,17.76c-.93.4-1.81.8-2.61,1.22C44,18.59,44.87,18.18,45.73,17.76Z"/><path class="cls-2" d="M58.75,11.61l0,.18a.59.59,0,0,0-.13-.36,3.33,3.33,0,0,0-1.39-.89c1.14.42,1.43.84,1.5,1.07,0,0-.08-4.42-.35-4.77C55.66,3.27,39.62,4.16,18.58,10.2A179.54,179.54,0,0,0,0,17.1v.66c2.73-.93,5.61-1.85,8.65-2.72C25.11,10.32,45.53,8.51,54.4,9.86a18,18,0,0,1,2.35.52l.14,0h0l.35.12-.35-.12c-2.23,2.25-6.38,5-11.16,7.34,5.68-2.44,13-4.4,13-6A.49.49,0,0,0,58.75,11.61Z"/><path class="cls-1" d="M44.29,24.76c-.62.26-1.2.53-1.73.81C43.15,25.31,43.72,25,44.29,24.76Z"/><path class="cls-1" d="M52.81,20.58a2,2,0,0,0-.92-.59c.76.28,1,.55,1,.7a19.39,19.39,0,0,0-.24-3.15c-1.8-2.35-12-2.25-25.85,2.08a66.35,66.35,0,0,0-9.21,3.51v.76c1.63-.63,3.21-1.19,4.33-1.49C39,17.81,44.15,18.65,50,19.54a12.45,12.45,0,0,1,1.56.34l.08,0h0a1.69,1.69,0,0,1,.24.08l-.24-.08a29.62,29.62,0,0,1-7.36,4.85c3.75-1.61,8.59-2.91,8.6-3.94h0A.31.31,0,0,0,52.81,20.58Z"/><path class="cls-1" d="M52.89,20.81v-.12a.19.19,0,0,1,0,.12Z"/></g></g></svg>