<svg width="52" height="64" viewBox="0 0 52 64" fill="none" xmlns="http://www.w3.org/2000/svg">
<path d="M0.627686 10.8924H10.8923V0.627502L0.627686 10.8924Z" fill="#D3E5F3" />
<path d="M10.8922 11.5199H0.627438C0.373599 11.5199 0.144802 11.367 0.0478001 11.1327C-0.0493335 10.8982 0.0043071 10.6283 0.183813 10.4488L10.4486 0.184114C10.6281 0.00460837 10.8979 -0.0491912 11.1324 0.0479425C11.3668 0.145076 11.5196 0.374031 11.5196 0.627607V10.8925C11.5197 11.2389 11.2389 11.5199 10.8922 11.5199ZM2.1423 10.2649H10.2649V2.14233L2.1423 10.2649Z" fill="#07559D" />
<path d="M51.3556 64.0001H5.97891C5.63242 64.0001 5.35156 63.7192 5.35156 63.3726C5.35156 63.026 5.63242 62.7451 5.97891 62.7451H50.7283V5.97703C50.7283 5.63054 51.0091 5.34955 51.3557 5.34955C51.7022 5.34955 51.9832 5.63054 51.9832 5.97703V63.3725C51.9831 63.7192 51.7021 64.0001 51.3556 64.0001Z" fill="#07559D" />
<path d="M46.004 58.6504H0.627481C0.280989 58.6504 0 58.3695 0 58.0229V10.8923C0 10.7258 0.0660303 10.5662 0.183856 10.4485L10.4487 0.183858C10.5663 0.0660323 10.726 0 10.8923 0H46.0042C46.3507 0 46.6316 0.280858 46.6316 0.62735V58.0228C46.6315 58.3695 46.3507 58.6504 46.004 58.6504ZM1.25483 57.3956H45.3766V1.25512H11.152L1.25483 11.1523V57.3956Z" fill="#07559D" />
<path d="M36.3657 12.8331H10.2656V16.0223H36.3657V12.8331Z" fill="#D3E5F3" />
<path d="M40.1474 21.8315H5.76001V23.7677H40.1474V21.8315Z" fill="#D3E5F3" />
<path d="M40.1474 28.3572H5.76001V30.2934H40.1474V28.3572Z" fill="#D3E5F3" />
<path d="M40.1474 34.8828H5.76001V36.819H40.1474V34.8828Z" fill="#D3E5F3" />
<path d="M40.1474 41.4086H5.76001V43.3448H40.1474V41.4086Z" fill="#D3E5F3" />
<path d="M33.9968 47.9343H5.76001V49.8705H33.9968V47.9343Z" fill="#D3E5F3" />
</svg>