<svg width="34" height="32" viewBox="0 0 34 32" fill="none" xmlns="http://www.w3.org/2000/svg">
<path d="M15.5469 11.7143C15.5469 12.5033 16.1981 13.1428 17.0014 13.1428H18.456C19.2593 13.1428 19.9105 12.5033 19.9105 11.7143V11C19.9105 10.3851 19.5099 9.76588 18.916 9.57142L16.5414 8.79401C15.9475 8.59954 15.5469 8.04347 15.5469 7.42856V6.71428C15.5469 5.92526 16.1981 5.28571 17.0014 5.28571H18.456C19.2593 5.28571 19.9105 5.92526 19.9105 6.71428" stroke="#07559D" stroke-width="2" stroke-miterlimit="10"/>
<path d="M17.7266 5.28571V3.14285" stroke="#07559D" stroke-width="2" stroke-miterlimit="10"/>
<path d="M17.7266 13.1429V15.2857" stroke="#07559D" stroke-width="2" stroke-miterlimit="10"/>
<path d="M14.7245 28.6314C13.2718 30.0928 11.2438 31 9 31C4.58173 31 1 27.4823 1 23.1428C1 18.8034 4.58173 15.2857 9 15.2857C11.5606 15.2857 13.8403 16.4672 15.3045 18.3055" stroke="#07559D" stroke-width="2" stroke-miterlimit="10" stroke-linecap="round"/>
<path d="M10.2829 11.7321C9.92629 10.8416 9.73047 9.87188 9.73047 8.85714C9.73047 4.51768 13.3122 1 17.7305 1C22.1487 1 25.7305 4.51768 25.7305 8.85714C25.7305 12.8063 22.7638 16.0752 18.8998 16.6309" stroke="#07559D" stroke-width="2" stroke-miterlimit="10" stroke-linecap="round"/>
<path d="M26.82 15.4899C30.3615 16.2991 33 19.4183 33 23.1429C33 27.4823 29.4183 31 25 31C20.5817 31 17 27.4823 17 23.1429C17 22.1943 17.1712 21.2849 17.4848 20.443" stroke="#07559D" stroke-width="2" stroke-miterlimit="10" stroke-linecap="round"/>
<path d="M11.1815 20.2857C11.1815 19.4967 10.5303 18.8571 9.72692 18.8571H8.27237C7.46901 18.8571 6.81783 19.4967 6.81783 20.2857V21C6.81783 23.1429 8.27237 23.1429 8.27237 24.5714C8.27237 26 5.36328 27.4286 5.36328 27.4286C5.36328 27.4286 7.71128 26.0363 8.99964 26.7143C9.9011 27.2266 10.5148 27.9346 11.9087 26.7143" stroke="#07559D" stroke-width="2" stroke-miterlimit="10"/>
<path d="M5.36328 23.1429H10.4542" stroke="#07559D" stroke-width="2" stroke-miterlimit="10"/>
<path d="M22.0898 25.2857H27.908" stroke="#07559D" stroke-width="2" stroke-miterlimit="10"/>
<path d="M25 28.1429V23.1429" stroke="#07559D" stroke-width="2" stroke-miterlimit="10"/>
<path d="M21.3633 18.8571L24.9996 23.1429" stroke="#07559D" stroke-width="2" stroke-miterlimit="10"/>
<path d="M28.6364 18.8571L25 23.1429" stroke="#07559D" stroke-width="2" stroke-miterlimit="10"/>
</svg>
