<svg width="65" height="48" viewBox="0 0 65 48" fill="none" xmlns="http://www.w3.org/2000/svg">
<path d="M52.3292 8.77332H0.625V16.9672H52.3292V8.77332Z" fill="#D3E5F3"/>
<path d="M52.9593 17.5982H0V8.14246H9.80134V9.40416H1.25493V16.3364H51.7043V9.40416H21.3937V8.14246H52.9593V17.5982Z" fill="#07559D"/>
<path d="M22.441 22.4417H8.74219V27.6335H22.441V22.4417Z" fill="#D3E5F3"/>
<path d="M50.9048 47.4376C49.1366 47.4376 47.4208 47.0893 45.8055 46.4023C44.2455 45.7387 42.8445 44.7891 41.6416 43.5795C40.4388 42.37 39.4942 40.9614 38.8343 39.3928C38.1511 37.7685 37.8047 36.0433 37.8047 34.2654C37.8047 32.4874 38.1511 30.7622 38.8343 29.138C39.4942 27.5695 40.4387 26.1607 41.6416 24.9512C42.8445 23.7417 44.2455 22.7921 45.8055 22.1286C47.421 21.4416 49.1366 21.0931 50.9048 21.0931C52.673 21.0931 54.3887 21.4415 56.0041 22.1286C57.5641 22.7921 58.965 23.7417 60.1679 24.9512C61.3707 26.1607 62.3153 27.5695 62.9752 29.138C63.6584 30.7624 64.0048 32.4874 64.0048 34.2654C64.0048 36.0433 63.6584 37.7685 62.9752 39.3928C62.3153 40.9614 61.3708 42.37 60.1679 43.5795C58.965 44.789 57.5641 45.7387 56.0041 46.4023C54.3887 47.0893 52.673 47.4376 50.9048 47.4376ZM50.9048 22.355C44.3733 22.355 39.0595 27.698 39.0595 34.2654C39.0595 40.8328 44.3733 46.1759 50.9048 46.1759C57.4362 46.1759 62.75 40.8328 62.75 34.2654C62.75 27.698 57.4362 22.355 50.9048 22.355Z" fill="#07559D"/>
<path d="M39.973 29.6123L39.3722 29.1606C38.8847 28.7941 38.4806 28.313 38.2036 27.7695C37.9171 27.2072 37.7656 26.5737 37.7656 25.9381C37.7656 23.7207 39.5597 21.9167 41.7651 21.9167C42.8865 21.9167 43.9635 22.3947 44.7199 23.2281L45.2251 23.7846L44.5915 24.1869C42.7589 25.3504 41.278 26.9933 40.3089 28.9381L39.973 29.6123ZM41.7651 23.1785C40.2517 23.1785 39.0206 24.4164 39.0206 25.9381C39.0206 26.5613 39.2228 27.1479 39.5904 27.6245C40.5086 26.0452 41.7444 24.674 43.2192 23.5983C42.7867 23.3268 42.2829 23.1785 41.7651 23.1785Z" fill="#07559D"/>
<path d="M39.1032 35.54H3.43739C1.54198 35.54 0 33.9894 0 32.0835V4.39383C0 2.48798 1.54212 0.9375 3.43739 0.9375H49.5216C51.417 0.9375 52.959 2.48798 52.959 4.39383V22.5129L52.2604 22.4326C51.812 22.3811 51.3541 22.355 50.8998 22.355C44.3683 22.355 39.0545 27.6981 39.0545 34.2654C39.0545 34.4687 39.0598 34.6746 39.0699 34.8773L39.1032 35.54ZM3.43739 2.1992C2.234 2.1992 1.25479 3.18367 1.25479 4.39383V32.0837C1.25479 33.2938 2.23386 34.2783 3.43739 34.2783H37.7998C37.7998 34.2741 37.7998 34.2697 37.7998 34.2655C37.7998 32.4876 38.1462 30.7624 38.8294 29.1382C39.4893 27.5696 40.4337 26.1609 41.6367 24.9514C42.8396 23.7419 44.2406 22.7923 45.8005 22.1288C47.416 21.4418 49.1316 21.0933 50.8998 21.0933C51.1676 21.0933 51.4364 21.1016 51.7042 21.1179V4.39383C51.7042 3.18367 50.7251 2.1992 49.5216 2.1992H3.43739Z" fill="#07559D"/>
<path d="M36.8798 29.3287C38.7421 29.3287 40.2518 27.8107 40.2518 25.9382C40.2518 24.0656 38.7421 22.5476 36.8798 22.5476C35.0175 22.5476 33.5078 24.0656 33.5078 25.9382C33.5078 27.8107 35.0175 29.3287 36.8798 29.3287Z" fill="#D3E5F3"/>
<path d="M36.878 31.5107L36.3505 30.6877C35.0905 28.7213 34.1101 27.7355 32.1545 26.4685L31.3359 25.9382L32.1545 25.4078C34.1101 24.1408 35.0905 23.155 36.3505 21.1887L36.878 20.3656L37.4054 21.1887C38.6655 23.155 39.6459 24.1408 41.6014 25.4078L42.42 25.9382L41.6014 26.4685C39.6459 27.7355 38.6655 28.7213 37.4054 30.6877L36.878 31.5107ZM33.6192 25.9382C34.9902 26.9093 35.9122 27.8364 36.878 29.215C37.8438 27.8364 38.7658 26.9093 40.1369 25.9382C38.7658 24.967 37.8438 24.0399 36.878 22.6614C35.9121 24.0399 34.9901 24.967 33.6192 25.9382Z" fill="#07559D"/>
<path d="M49.9239 40.8638L43.7422 34.7677L45.9701 32.4835L49.7157 36.1772L55.7681 29.0367L58.1897 31.1119L49.9239 40.8638Z" fill="#07559D"/>
</svg>
