<svg xmlns="http://www.w3.org/2000/svg" viewBox="0 0 478.98 477.95">
    <g>
        <g>
            <rect fill="#a7a7aa" x="344" y="318.98" width="48" height="16" />
            <rect fill="#a7a7aa" x="280" y="318.98" width="48" height="16" />
            <rect fill="#a7a7aa" x="216" y="318.98" width="48" height="16" />
            <path fill="#a7a7aa" d="M479,182.48a23.91,23.91,0,0,0-7.08-17.08L313.6,7.08a23.89,23.89,0,0,0-17-7.08h-.07a23.63,23.63,0,0,0-16.87,7.08L111.73,175H24A24,24,0,0,0,0,199V423a24,24,0,0,0,24,24H142.53l23.87,23.89a23.89,23.89,0,0,0,17,7.08h.06a23.66,23.66,0,0,0,16.88-7.08L224.27,447H408a24,24,0,0,0,24-24h0V239.25l39.86-39.86A23.73,23.73,0,0,0,479,182.48ZM213.47,175,336.16,52.29l34,34L281.41,175ZM291,18.36a7.87,7.87,0,0,1,11.15-.13.8.8,0,0,1,.13.13L324.85,41l-134,134H134.35ZM24,191H408a8,8,0,0,1,8,8v32H16V199A8,8,0,0,1,24,191ZM416,295H16V247H416ZM189,459.59a7.74,7.74,0,0,1-5.6,2.4h0a8,8,0,0,1-5.69-2.4L165.16,447h36.49ZM408,431H24a8,8,0,0,1-8-8V311H416V423A8,8,0,0,1,408,431ZM460.58,188,432,216.62V199a24,24,0,0,0-24-24H304l77.41-77.41,79.14,79.14a8,8,0,0,1,2.4,5.72,7.81,7.81,0,0,1-2.37,5.61Z" />
            <path fill="#a7a7aa" d="M136,391a32,32,0,0,0-32-32,23.59,23.59,0,0,0-4.74.4l-.2.05h-.24A31.6,31.6,0,0,0,80,370.06a32,32,0,1,0-3.27,45.13A31.55,31.55,0,0,0,80,411.92a31.72,31.72,0,0,0,42.11,5.42h0A32.51,32.51,0,0,0,136,391ZM56,407a16,16,0,1,1,16-16A16,16,0,0,1,56,407Zm48,0a16,16,0,0,1-2-31.84,9.72,9.72,0,0,1,2-.16,16,16,0,0,1,16,16,15.72,15.72,0,0,1-3.14,9.38c-.29.39-.52.8-.84,1.21-.06.06-.14.1-.2.17A16,16,0,0,1,104,407Z" />
        </g>
    </g>
</svg>
