<?xml version="1.0" standalone="no"?>
<!DOCTYPE svg PUBLIC "-//W3C//DTD SVG 20010904//EN"
 "http://www.w3.org/TR/2001/REC-SVG-20010904/DTD/svg10.dtd">
<svg version="1.0" xmlns="http://www.w3.org/2000/svg"
 width="700.000000pt" height="700.000000pt" viewBox="0 0 700.000000 700.000000"
 preserveAspectRatio="xMidYMid meet">
<metadata>
Created by potrace 1.14, written by Peter Selinger 2001-2017
</metadata>
<g transform="translate(0.000000,700.000000) scale(0.100000,-0.100000)"
fill="#000000" stroke="none">
<path d="M4057 6564 c-1 -1 -48 -5 -104 -8 -57 -4 -111 -9 -120 -10 -19 -4
-91 -16 -133 -22 -349 -55 -878 -244 -1385 -495 -520 -257 -794 -426 -1285
-794 -108 -81 -348 -268 -384 -300 -6 -6 -36 -30 -66 -55 -51 -42 -98 -81
-124 -105 -6 -5 -29 -25 -51 -44 -22 -18 -71 -62 -110 -96 -38 -35 -88 -78
-109 -97 -33 -30 -39 -41 -41 -81 -2 -26 1 -47 5 -47 4 0 43 26 86 57 596 427
1267 777 1914 996 408 139 915 260 1215 292 28 3 64 7 80 10 17 2 64 7 105 11
41 3 91 8 110 10 53 6 419 5 465 0 47 -6 116 -16 165 -22 103 -14 272 -70 339
-112 14 -9 27 -17 29 -18 8 -4 -161 -300 -207 -362 -13 -18 -22 -34 -20 -36 2
-2 49 11 104 30 55 18 135 43 178 55 66 18 80 26 89 48 9 24 5 421 -7 629 -2
40 -6 106 -8 147 -6 90 -30 145 -99 221 -74 80 -204 149 -323 170 -22 3 -49 8
-60 10 -39 8 -243 22 -248 18z"/>
<path d="M5788 5385 c-2 -1 -43 -5 -93 -8 -49 -4 -137 -13 -195 -21 -97 -15
-123 -19 -190 -31 -14 -3 -39 -7 -56 -10 -16 -2 -91 -18 -165 -35 -629 -143
-1433 -458 -2174 -853 -271 -144 -301 -161 -327 -179 -14 -10 -28 -18 -31 -18
-19 0 -358 -206 -552 -335 -204 -135 -622 -428 -635 -445 -3 -3 -21 -17 -40
-30 -60 -41 -327 -248 -510 -394 -177 -142 -295 -241 -505 -421 -81 -69 -70
-60 -171 -151 -44 -39 -94 -84 -111 -99 -32 -26 -33 -29 -33 -106 0 -43 2 -79
5 -79 3 0 56 35 118 78 945 660 1733 1076 2717 1431 401 145 1077 334 1380
387 14 2 36 7 50 10 14 3 36 8 50 10 14 3 84 16 155 29 72 13 153 27 181 30
28 3 59 7 70 9 10 2 44 7 74 11 30 3 66 8 80 10 59 9 109 14 175 20 39 3 84 8
100 10 182 23 766 23 883 0 11 -2 43 -6 73 -10 201 -23 389 -75 551 -153 l118
-56 -70 -131 c-169 -322 -454 -748 -713 -1065 -171 -210 -181 -221 -212 -215
-88 15 -132 18 -250 19 -118 0 -257 -9 -295 -19 -8 -2 -37 -6 -65 -10 -112
-14 -367 -79 -539 -137 -397 -134 -846 -354 -1306 -641 -144 -90 -430 -276
-440 -287 -3 -3 -48 -37 -100 -75 -210 -155 -415 -327 -613 -516 l-80 -76 -1
-87 c-1 -91 3 -105 26 -83 59 58 388 293 493 352 559 313 1107 567 1525 706
134 44 383 113 455 125 16 2 55 9 86 15 209 36 514 43 679 15 14 -3 41 -7 60
-10 169 -27 524 -129 652 -189 l88 -40 -29 -51 c-214 -387 -455 -729 -698
-992 -48 -53 -90 -99 -93 -102 -6 -8 34 24 65 51 11 10 128 102 260 205 132
102 276 215 320 251 117 95 256 239 289 302 l30 54 -2 170 c-2 258 -16 588
-28 677 -10 74 -94 190 -182 250 -26 18 -79 46 -118 63 l-72 31 117 90 c64 50
184 143 266 206 215 167 335 269 451 383 115 114 158 166 204 247 55 99 59
130 55 426 -7 465 -15 700 -29 902 -5 59 -29 120 -81 200 -103 160 -268 270
-495 330 -88 23 -147 34 -253 45 -55 7 -344 14 -349 10z"/>
</g>
</svg>
