<svg width="32" height="34" viewBox="0 0 32 34" fill="none" xmlns="http://www.w3.org/2000/svg">
<path d="M11.9158 19.14C11.32 19.2648 10.7026 19.3303 10.0698 19.3303C5.06047 19.3303 1 15.2272 1 10.1652C1 5.10318 5.06047 1 10.0698 1C14.7121 1 18.5395 4.52436 19.0754 9.06958" stroke="#07559D" stroke-width="2" stroke-miterlimit="10" stroke-linecap="round"/>
<path d="M5.1875 9H10.7689" stroke="#07559D" stroke-width="2" stroke-miterlimit="10"/>
<path d="M5.1875 12H10.7689" stroke="#07559D" stroke-width="2" stroke-miterlimit="10"/>
<path d="M12.8587 12.6851C12.8587 14.1056 11.9985 14.9351 10.7657 14.9351H9.37037C8.21432 14.9351 7.27734 13.9278 7.27734 12.6851V8.18509C7.27734 6.94234 8.21432 5.93509 9.37037 5.93509H10.7657C11.9985 5.93509 12.8587 6.76459 12.8587 8.18509" stroke="#07559D" stroke-width="2" stroke-miterlimit="10"/>
<path d="M20.5358 21.4454C20.5358 22.1532 21.161 22.8554 21.9312 22.8554H23.3265C24.0968 22.8554 24.7219 22.1532 24.7219 21.4454V20.9321C24.7219 20.3808 24.3375 19.8252 23.7675 19.6504L21.4896 18.9524C20.9196 18.7783 20.5352 18.2792 20.5352 17.7278V17.087C20.5352 16.3791 21.1603 15.8053 21.9305 15.8053H23.3259C24.0961 15.8053 24.7212 16.5075 24.7212 17.2153" stroke="#07559D" stroke-width="2" stroke-miterlimit="10" stroke-linecap="round"/>
<path d="M22.6289 15.8053V13.6902" stroke="#07559D" stroke-width="2" stroke-miterlimit="10"/>
<path d="M22.6289 22.8554V24.9704" stroke="#07559D" stroke-width="2" stroke-miterlimit="10"/>
<path d="M22.626 27.7905C27.2498 27.7905 30.9981 24.0027 30.9981 19.3303C30.9981 14.6579 27.2498 10.8702 22.626 10.8702C18.0022 10.8702 14.2539 14.6579 14.2539 19.3303C14.2539 24.0027 18.0022 27.7905 22.626 27.7905Z" stroke="#07559D" stroke-width="2" stroke-miterlimit="10"/>
<path d="M15.549 23.8452L10.0625 29.3895C9.2448 30.2157 9.2448 31.5545 10.0625 32.3808C10.8795 33.2064 12.205 33.2064 13.0227 32.3808L18.5985 26.7457" stroke="#07559D" stroke-width="2" stroke-miterlimit="10"/>
<path d="M18.9141 2.91905C19.6208 2.59262 20.4064 2.41003 21.2345 2.41003C24.3168 2.41003 26.8159 4.93538 26.8159 8.05013C26.8159 8.53729 26.7545 9.01036 26.6401 9.46157" stroke="#07559D" stroke-width="2" stroke-miterlimit="10" stroke-linecap="round"/>
<path d="M10.4192 24.9704C8.29971 24.9704 6.58203 23.2347 6.58203 21.0929" stroke="#07559D" stroke-width="2" stroke-miterlimit="10" stroke-linecap="round"/>
</svg>
