<svg width="34" height="32" viewBox="0 0 34 32" fill="none" xmlns="http://www.w3.org/2000/svg">
    <path d="M20.8242 14.6365H24.3025" stroke="#07559D" stroke-width="2" stroke-miterlimit="10" stroke-linecap="round" stroke-linejoin="round" />
    <path d="M22.5671 14.6362V9.18164H21.1758" stroke="#07559D" stroke-width="2" stroke-miterlimit="10" stroke-linecap="round" stroke-linejoin="round" />
    <path d="M22.5664 6.11377V6.79559" stroke="#07559D" stroke-width="2" stroke-miterlimit="10" stroke-linecap="round" stroke-linejoin="round" />
    <path d="M6.56522 25.9854V28.3042C6.56522 28.9172 6.10747 29.4551 5.44313 29.6242L1 31.0001" stroke="#07559D" stroke-width="2" stroke-miterlimit="10" stroke-linecap="round" stroke-linejoin="round" />
    <path d="M12.1289 27.4314V28.3041C12.1289 28.9171 12.5866 29.455 13.251 29.6241L17.6941 31" stroke="#07559D" stroke-width="2" stroke-miterlimit="10" stroke-linecap="round" stroke-linejoin="round" />
    <path d="M8.38288 26.9192C6.13731 26.3465 4.45312 23.9826 4.45312 21.6426V18.3978C4.45312 17.3165 6.05868 16.0858 7.86738 15.3337" stroke="#07559D" stroke-width="2" stroke-miterlimit="10" stroke-linecap="round" stroke-linejoin="round" />
    <path d="M7.21094 13.5305C7.21094 16.2346 12.8249 18.7273 14.7915 18.6564" stroke="#07559D" stroke-width="2" stroke-miterlimit="10" stroke-linecap="round" stroke-linejoin="round" />
    <path d="M14.2188 22.8182V18.7273" stroke="#07559D" stroke-width="2" stroke-miterlimit="10" stroke-linecap="round" stroke-linejoin="round" />
    <path d="M10.7391 26.2273V27.5909C14.0783 27.5909 16.3043 24.9809 16.3043 22.8182L17.6957 22.1364V18.0455L16.3043 17.3637V16.6818C16.3043 12.7996 13.3437 9.20435 9.34783 9.20435C5.352 9.20435 2.3913 12.3516 2.3913 16.2346V17.3637L1 18.0455V22.1364L2.66956 22.853" stroke="#07559D" stroke-width="2" stroke-miterlimit="10" stroke-linecap="round" stroke-linejoin="round" />
    <path d="M19.9352 21.1157C20.3394 21.2186 20.5384 21.2568 20.9599 21.312C20.9599 21.312 20.9418 23.8266 20.507 25.5454C23.6952 24.6366 25.2883 21.102 25.2883 21.102L25.2542 21.0993C29.7112 19.9348 32.9996 15.9625 32.9996 11.2273C32.9996 5.57909 28.3276 1 22.5648 1C18.1432 1 14.3637 3.69523 12.8438 7.50113" stroke="#07559D" stroke-width="2" stroke-miterlimit="10" stroke-linecap="round" stroke-linejoin="round" />
</svg>