<svg width="90" height="42" viewBox="0 0 90 42" fill="none" xmlns="http://www.w3.org/2000/svg">
<path d="M26.957 17.7578V24.2656C26.957 27.3828 26.6471 30.0443 26.0273 32.25C25.4258 34.4375 24.5508 36.2148 23.4023 37.582C22.2539 38.9492 20.8776 39.9518 19.2734 40.5898C17.6875 41.2279 15.9102 41.5469 13.9414 41.5469C12.3737 41.5469 10.9154 41.3464 9.56641 40.9453C8.23568 40.5443 7.03255 39.9154 5.95703 39.0586C4.88151 38.2018 3.96094 37.099 3.19531 35.75C2.44792 34.3828 1.86458 32.7513 1.44531 30.8555C1.04427 28.9596 0.84375 26.763 0.84375 24.2656V17.7578C0.84375 14.6224 1.15365 11.9792 1.77344 9.82812C2.39323 7.65885 3.27734 5.89974 4.42578 4.55078C5.57422 3.18359 6.94141 2.1901 8.52734 1.57031C10.1315 0.950521 11.918 0.640625 13.8867 0.640625C15.4727 0.640625 16.931 0.841146 18.2617 1.24219C19.6107 1.625 20.8138 2.23568 21.8711 3.07422C22.9466 3.91276 23.8581 5.00651 24.6055 6.35547C25.3711 7.6862 25.9544 9.29948 26.3555 11.1953C26.7565 13.0729 26.957 15.2604 26.957 17.7578ZM20.3672 25.1953V16.7734C20.3672 15.1875 20.276 13.793 20.0938 12.5898C19.9115 11.3685 19.638 10.3385 19.2734 9.5C18.9271 8.64323 18.4896 7.95052 17.9609 7.42188C17.4323 6.875 16.8307 6.48307 16.1562 6.24609C15.4818 5.99089 14.7253 5.86328 13.8867 5.86328C12.8659 5.86328 11.9544 6.0638 11.1523 6.46484C10.3503 6.84766 9.67578 7.46745 9.12891 8.32422C8.58203 9.18099 8.16276 10.3112 7.87109 11.7148C7.59766 13.1003 7.46094 14.7865 7.46094 16.7734V25.1953C7.46094 26.7995 7.55208 28.2122 7.73438 29.4336C7.91667 30.6549 8.1901 31.7031 8.55469 32.5781C8.91927 33.4349 9.35677 34.1458 9.86719 34.7109C10.3958 35.2578 10.9974 35.6589 11.6719 35.9141C12.3646 36.1693 13.1211 36.2969 13.9414 36.2969C14.9805 36.2969 15.901 36.0964 16.7031 35.6953C17.5052 35.2943 18.1797 34.6562 18.7266 33.7812C19.2734 32.888 19.6836 31.7305 19.957 30.3086C20.2305 28.8867 20.3672 27.1823 20.3672 25.1953ZM49.8934 27.0596H31.705V23.2266H49.8934C51.6675 23.2266 53.1242 22.9417 54.2636 22.3721C55.4029 21.8024 56.2411 20.9967 56.7782 19.9551C57.3316 18.9134 57.6083 17.6846 57.6083 16.2686C57.6083 15.113 57.3479 14.0062 56.827 12.9482C56.3225 11.8903 55.5005 11.0195 54.3612 10.3359C53.2382 9.65234 51.7489 9.31055 49.8934 9.31055H41.4462V41H36.7587V5.45312H49.8934C52.579 5.45312 54.8414 5.91699 56.6805 6.84473C58.5197 7.75618 59.9113 9.02572 60.8554 10.6533C61.8156 12.2646 62.2958 14.1201 62.2958 16.2197C62.2958 18.4984 61.8156 20.4515 60.8554 22.0791C59.9113 23.6904 58.5197 24.9274 56.6805 25.79C54.8414 26.6364 52.579 27.0596 49.8934 27.0596ZM49.6005 30.4043V34.2617H31.705V30.4043H49.6005ZM89.3954 24.0322V27.7432H77.4813V24.0322H89.3954Z" fill="#07559D"/>
<path d="M26.957 17.7578V24.2656C26.957 27.3828 26.6471 30.0443 26.0273 32.25C25.4258 34.4375 24.5508 36.2148 23.4023 37.582C22.2539 38.9492 20.8776 39.9518 19.2734 40.5898C17.6875 41.2279 15.9102 41.5469 13.9414 41.5469C12.3737 41.5469 10.9154 41.3464 9.56641 40.9453C8.23568 40.5443 7.03255 39.9154 5.95703 39.0586C4.88151 38.2018 3.96094 37.099 3.19531 35.75C2.44792 34.3828 1.86458 32.7513 1.44531 30.8555C1.04427 28.9596 0.84375 26.763 0.84375 24.2656V17.7578C0.84375 14.6224 1.15365 11.9792 1.77344 9.82812C2.39323 7.65885 3.27734 5.89974 4.42578 4.55078C5.57422 3.18359 6.94141 2.1901 8.52734 1.57031C10.1315 0.950521 11.918 0.640625 13.8867 0.640625C15.4727 0.640625 16.931 0.841146 18.2617 1.24219C19.6107 1.625 20.8138 2.23568 21.8711 3.07422C22.9466 3.91276 23.8581 5.00651 24.6055 6.35547C25.3711 7.6862 25.9544 9.29948 26.3555 11.1953C26.7565 13.0729 26.957 15.2604 26.957 17.7578ZM20.3672 25.1953V16.7734C20.3672 15.1875 20.276 13.793 20.0938 12.5898C19.9115 11.3685 19.638 10.3385 19.2734 9.5C18.9271 8.64323 18.4896 7.95052 17.9609 7.42188C17.4323 6.875 16.8307 6.48307 16.1562 6.24609C15.4818 5.99089 14.7253 5.86328 13.8867 5.86328C12.8659 5.86328 11.9544 6.0638 11.1523 6.46484C10.3503 6.84766 9.67578 7.46745 9.12891 8.32422C8.58203 9.18099 8.16276 10.3112 7.87109 11.7148C7.59766 13.1003 7.46094 14.7865 7.46094 16.7734V25.1953C7.46094 26.7995 7.55208 28.2122 7.73438 29.4336C7.91667 30.6549 8.1901 31.7031 8.55469 32.5781C8.91927 33.4349 9.35677 34.1458 9.86719 34.7109C10.3958 35.2578 10.9974 35.6589 11.6719 35.9141C12.3646 36.1693 13.1211 36.2969 13.9414 36.2969C14.9805 36.2969 15.901 36.0964 16.7031 35.6953C17.5052 35.2943 18.1797 34.6562 18.7266 33.7812C19.2734 32.888 19.6836 31.7305 19.957 30.3086C20.2305 28.8867 20.3672 27.1823 20.3672 25.1953ZM49.8934 27.0596H31.705V23.2266H49.8934C51.6675 23.2266 53.1242 22.9417 54.2636 22.3721C55.4029 21.8024 56.2411 20.9967 56.7782 19.9551C57.3316 18.9134 57.6083 17.6846 57.6083 16.2686C57.6083 15.113 57.3479 14.0062 56.827 12.9482C56.3225 11.8903 55.5005 11.0195 54.3612 10.3359C53.2382 9.65234 51.7489 9.31055 49.8934 9.31055H41.4462V41H36.7587V5.45312H49.8934C52.579 5.45312 54.8414 5.91699 56.6805 6.84473C58.5197 7.75618 59.9113 9.02572 60.8554 10.6533C61.8156 12.2646 62.2958 14.1201 62.2958 16.2197C62.2958 18.4984 61.8156 20.4515 60.8554 22.0791C59.9113 23.6904 58.5197 24.9274 56.6805 25.79C54.8414 26.6364 52.579 27.0596 49.8934 27.0596ZM49.6005 30.4043V34.2617H31.705V30.4043H49.6005ZM89.3954 24.0322V27.7432H77.4813V24.0322H89.3954Z" fill="url(#paint0_linear_1544_234)" fill-opacity="0.8"/>
<path d="M26.0273 32.25L25.0646 31.9795L25.0631 31.9848L26.0273 32.25ZM19.2734 40.5898L18.9039 39.6606L18.9002 39.6621L19.2734 40.5898ZM9.56641 40.9453L9.27785 41.9028L9.28144 41.9039L9.56641 40.9453ZM5.95703 39.0586L6.58011 38.2764L5.95703 39.0586ZM3.19531 35.75L2.31786 36.2297L2.32169 36.2367L2.32563 36.2436L3.19531 35.75ZM1.44531 30.8555L0.466922 31.0624L0.468905 31.0714L1.44531 30.8555ZM1.77344 9.82812L2.73435 10.105L2.73496 10.1028L1.77344 9.82812ZM4.42578 4.55078L5.18723 5.19904L5.19149 5.19397L4.42578 4.55078ZM8.52734 1.57031L8.16694 0.637507L8.16335 0.638912L8.52734 1.57031ZM18.2617 1.24219L17.9732 2.19965L17.9809 2.20199L17.9887 2.2042L18.2617 1.24219ZM21.8711 3.07422L21.2497 3.85774L21.2562 3.86285L21.8711 3.07422ZM24.6055 6.35547L23.7308 6.84011L23.7347 6.84717L23.7387 6.85416L24.6055 6.35547ZM26.3555 11.1953L25.3771 11.4023L25.3775 11.4042L26.3555 11.1953ZM20.0938 12.5898L19.1047 12.7375L19.105 12.7396L20.0938 12.5898ZM19.2734 9.5L18.3463 9.87479L18.3512 9.88682L18.3564 9.89873L19.2734 9.5ZM17.9609 7.42188L17.2419 8.1169L17.2478 8.12299L17.2538 8.12898L17.9609 7.42188ZM16.1562 6.24609L15.8024 7.18138L15.8135 7.1856L15.8248 7.18955L16.1562 6.24609ZM11.1523 6.46484L11.5831 7.36732L11.5914 7.36337L11.5996 7.35927L11.1523 6.46484ZM9.12891 8.32422L8.28598 7.78618L9.12891 8.32422ZM7.87109 11.7148L6.89196 11.5114L6.89002 11.5212L7.87109 11.7148ZM8.55469 32.5781L7.63158 32.9627L7.63453 32.9697L8.55469 32.5781ZM9.86719 34.7109L9.12508 35.3812L9.13643 35.3938L9.1482 35.406L9.86719 34.7109ZM11.6719 35.9141L11.318 36.8494L11.3262 36.8524L11.6719 35.9141ZM18.7266 33.7812L19.5746 34.3113L19.5794 34.3034L18.7266 33.7812ZM25.957 17.7578V24.2656H27.957V17.7578H25.957ZM25.957 24.2656C25.957 27.3218 25.6526 29.887 25.0646 31.9795L26.9901 32.5205C27.6417 30.2016 27.957 27.4438 27.957 24.2656H25.957ZM25.0631 31.9848C24.4898 34.0698 23.671 35.7075 22.6366 36.9388L24.168 38.2252C25.4306 36.7222 26.3618 34.8052 26.9915 32.5152L25.0631 31.9848ZM22.6366 36.9388C21.5908 38.1839 20.349 39.0859 18.9039 39.6606L19.643 41.519C21.4062 40.8178 22.917 39.7145 24.168 38.2252L22.6366 36.9388ZM18.9002 39.6621C17.4495 40.2457 15.8015 40.5469 13.9414 40.5469V42.5469C16.0189 42.5469 17.9255 42.21 19.6467 41.5176L18.9002 39.6621ZM13.9414 40.5469C12.4593 40.5469 11.098 40.3574 9.85138 39.9868L9.28144 41.9039C10.7327 42.3353 12.2881 42.5469 13.9414 42.5469V40.5469ZM9.85496 39.9878C8.64452 39.6231 7.55518 39.0532 6.58011 38.2764L5.33395 39.8408C6.50993 40.7775 7.82683 41.4655 9.27785 41.9028L9.85496 39.9878ZM6.58011 38.2764C5.61644 37.5088 4.77563 36.5084 4.065 35.2564L2.32563 36.2436C3.14625 37.6895 4.14658 38.8949 5.33395 39.8408L6.58011 38.2764ZM4.07276 35.2703C3.38015 34.0034 2.82539 32.4648 2.42172 30.6395L0.468905 31.0714C0.903772 33.0378 1.51569 34.7623 2.31786 36.2297L4.07276 35.2703ZM2.42366 30.6485C2.04045 28.8369 1.84375 26.7123 1.84375 24.2656H-0.15625C-0.15625 26.8138 0.0480959 29.0823 0.466963 31.0624L2.42366 30.6485ZM1.84375 24.2656V17.7578H-0.15625V24.2656H1.84375ZM1.84375 17.7578C1.84375 14.6817 2.14854 12.1381 2.73434 10.105L0.812531 9.55125C0.158755 11.8202 -0.15625 14.5631 -0.15625 17.7578H1.84375ZM2.73496 10.1028C3.32586 8.03469 4.15306 6.41375 5.18721 5.19903L3.66435 3.90254C2.40163 5.38573 1.4606 7.28301 0.811913 9.5534L2.73496 10.1028ZM5.19149 5.19397C6.23768 3.94851 7.46898 3.05758 8.89134 2.50171L8.16335 0.638912C6.41383 1.32263 4.91076 2.41868 3.66008 3.90759L5.19149 5.19397ZM8.88774 2.50311C10.3616 1.93368 12.0236 1.64062 13.8867 1.64062V-0.359375C11.8124 -0.359375 9.90146 -0.0326414 8.16694 0.637514L8.88774 2.50311ZM13.8867 1.64062C15.3884 1.64062 16.7481 1.83047 17.9732 2.19965L18.5503 0.284723C17.1138 -0.148176 15.5569 -0.359375 13.8867 -0.359375V1.64062ZM17.9887 2.2042C19.216 2.55247 20.2997 3.10425 21.2497 3.85772L22.4925 2.29072C21.3279 1.3671 20.0054 0.697524 18.5347 0.280174L17.9887 2.2042ZM21.2562 3.86285C22.2125 4.60843 23.0401 5.59357 23.7308 6.84011L25.4802 5.87083C24.676 4.41945 23.6807 3.21709 22.486 2.28559L21.2562 3.86285ZM23.7387 6.85416C24.4405 8.07389 24.9923 9.58333 25.3771 11.4023L27.3338 10.9884C26.9165 9.01563 26.3017 7.2985 25.4722 5.85678L23.7387 6.85416ZM25.3775 11.4042C25.7603 13.1962 25.957 15.3109 25.957 17.7578H27.957C27.957 15.2099 27.7527 12.9496 27.3334 10.9864L25.3775 11.4042ZM21.3672 25.1953V16.7734H19.3672V25.1953H21.3672ZM21.3672 16.7734C21.3672 15.1515 21.2741 13.705 21.0825 12.44L19.105 12.7396C19.278 13.8809 19.3672 15.2235 19.3672 16.7734H21.3672ZM21.0828 12.4422C20.8918 11.1625 20.5997 10.0424 20.1905 9.10127L18.3564 9.89873C18.6763 10.6347 18.9311 11.5745 19.1047 12.7375L21.0828 12.4422ZM20.2005 9.12521C19.8154 8.17253 19.3111 7.35786 18.668 6.71477L17.2538 8.12898C17.668 8.54318 18.0387 9.11392 18.3463 9.87479L20.2005 9.12521ZM18.6799 6.72685C18.0503 6.07549 17.3183 5.59444 16.4877 5.30263L15.8248 7.18955C16.3432 7.3717 16.8143 7.67451 17.2419 8.1169L18.6799 6.72685ZM16.5101 5.31081C15.7058 5.00646 14.8268 4.86328 13.8867 4.86328V6.86328C14.6237 6.86328 15.2578 6.97531 15.8024 7.18138L16.5101 5.31081ZM13.8867 4.86328C12.7322 4.86328 11.6642 5.09089 10.7051 5.57042L11.5996 7.35927C12.2447 7.03671 12.9995 6.86328 13.8867 6.86328V4.86328ZM10.7216 5.56236C9.72757 6.03679 8.91869 6.79494 8.28598 7.78618L9.97183 8.86226C10.4329 8.13995 10.973 7.65852 11.5831 7.36732L10.7216 5.56236ZM8.28598 7.78618C7.65293 8.77797 7.19902 10.0339 6.89201 11.5114L8.85018 11.9183C9.1265 10.5885 9.51113 9.58401 9.97183 8.86226L8.28598 7.78618ZM6.89002 11.5212C6.60007 12.9903 6.46094 14.7455 6.46094 16.7734H8.46094C8.46094 14.8275 8.59524 13.2102 8.85217 11.9085L6.89002 11.5212ZM6.46094 16.7734V25.1953H8.46094V16.7734H6.46094ZM6.46094 25.1953C6.46094 26.8351 6.55396 28.2991 6.74533 29.5812L8.72342 29.286C8.5502 28.1254 8.46094 26.7638 8.46094 25.1953H6.46094ZM6.74533 29.5812C6.93633 30.8609 7.2275 31.9929 7.63161 32.9627L9.47776 32.1935C9.15271 31.4134 8.897 30.449 8.72342 29.286L6.74533 29.5812ZM7.63453 32.9697C8.03324 33.9067 8.52579 34.7177 9.12508 35.3812L10.6093 34.0406C10.1877 33.5739 9.8053 32.9631 9.47484 32.1866L7.63453 32.9697ZM9.1482 35.406C9.7736 36.0529 10.4981 36.5391 11.318 36.8493L12.0258 34.9788C11.4967 34.7786 11.0181 34.4627 10.5862 34.0159L9.1482 35.406ZM11.3262 36.8524C12.1412 37.1527 13.0162 37.2969 13.9414 37.2969V35.2969C13.226 35.2969 12.588 35.1859 12.0176 34.9757L11.3262 36.8524ZM13.9414 37.2969C15.1111 37.2969 16.1889 37.0704 17.1503 36.5897L16.2559 34.8009C15.6132 35.1223 14.8499 35.2969 13.9414 35.2969V37.2969ZM17.1503 36.5897C18.1406 36.0946 18.9451 35.3183 19.5746 34.3112L17.8786 33.2513C17.4142 33.9942 16.8699 34.4939 16.2559 34.8009L17.1503 36.5897ZM19.5794 34.3034C20.208 33.2767 20.651 31.9954 20.939 30.4974L18.975 30.1197C18.7162 31.4656 18.3389 32.4993 17.8737 33.2591L19.5794 34.3034ZM20.939 30.4974C21.2279 28.9952 21.3672 27.2241 21.3672 25.1953H19.3672C19.3672 27.1405 19.233 28.7782 18.975 30.1197L20.939 30.4974ZM31.705 27.0596H30.705V28.0596H31.705V27.0596ZM31.705 23.2266V22.2266H30.705V23.2266H31.705ZM56.7782 19.9551L55.895 19.4859L55.8894 19.4968L56.7782 19.9551ZM56.827 12.9482L55.9244 13.3787L55.9299 13.3899L56.827 12.9482ZM54.3612 10.3359L53.8413 11.1902L53.8467 11.1934L54.3612 10.3359ZM41.4462 9.31055V8.31055H40.4462V9.31055H41.4462ZM41.4462 41V42H42.4462V41H41.4462ZM36.7587 41H35.7587V42H36.7587V41ZM36.7587 5.45312V4.45312H35.7587V5.45312H36.7587ZM56.6805 6.84473L56.2302 7.73759L56.2365 7.74073L56.6805 6.84473ZM60.8554 10.6533L59.9903 11.1551L59.9963 11.1653L60.8554 10.6533ZM60.8554 22.0791L59.9941 21.5709L59.9925 21.5736L60.8554 22.0791ZM56.6805 25.79L57.0986 26.6985L57.1052 26.6954L56.6805 25.79ZM49.6005 30.4043H50.6005V29.4043H49.6005V30.4043ZM49.6005 34.2617V35.2617H50.6005V34.2617H49.6005ZM31.705 34.2617H30.705V35.2617H31.705V34.2617ZM31.705 30.4043V29.4043H30.705V30.4043H31.705ZM49.8934 26.0596H31.705V28.0596H49.8934V26.0596ZM32.705 27.0596V23.2266H30.705V27.0596H32.705ZM31.705 24.2266H49.8934V22.2266H31.705V24.2266ZM49.8934 24.2266C51.7654 24.2266 53.389 23.9274 54.7108 23.2665L53.8163 21.4776C52.8594 21.9561 51.5697 22.2266 49.8934 22.2266V24.2266ZM54.7108 23.2665C56.0224 22.6107 57.0241 21.6602 57.667 20.4134L55.8894 19.4968C55.4581 20.3333 54.7833 20.9941 53.8163 21.4776L54.7108 23.2665ZM57.6613 20.4242C58.3054 19.2118 58.6083 17.8156 58.6083 16.2686H56.6083C56.6083 17.5536 56.3578 18.615 55.8951 19.4859L57.6613 20.4242ZM58.6083 16.2686C58.6083 14.9566 58.3113 13.699 57.7242 12.5066L55.9299 13.3899C56.3845 14.3134 56.6083 15.2693 56.6083 16.2686H58.6083ZM57.7296 12.5178C57.1295 11.2595 56.1603 10.2492 54.8757 9.47845L53.8467 11.1934C54.8407 11.7899 55.5154 12.5211 55.9244 13.3787L57.7296 12.5178ZM54.8812 9.48174C53.5498 8.67132 51.8605 8.31055 49.8934 8.31055V10.3105C51.6373 10.3105 52.9266 10.6334 53.8413 11.1901L54.8812 9.48174ZM49.8934 8.31055H41.4462V10.3105H49.8934V8.31055ZM40.4462 9.31055V41H42.4462V9.31055H40.4462ZM41.4462 40H36.7587V42H41.4462V40ZM37.7587 41V5.45312H35.7587V41H37.7587ZM36.7587 6.45312H49.8934V4.45312H36.7587V6.45312ZM49.8934 6.45312C52.4683 6.45312 54.5665 6.89837 56.2302 7.73757L57.1309 5.95189C55.1162 4.93562 52.6896 4.45312 49.8934 4.45312V6.45312ZM56.2365 7.74073C57.9164 8.57324 59.1538 9.7128 59.9903 11.155L61.7204 10.1516C60.6689 8.33864 59.1231 6.93913 57.1246 5.94872L56.2365 7.74073ZM59.9963 11.1653C60.8537 12.6039 61.2958 14.2783 61.2958 16.2197H63.2958C63.2958 13.9619 62.7776 11.9254 61.7144 10.1414L59.9963 11.1653ZM61.2958 16.2197C61.2958 18.3565 60.8465 20.1262 59.9941 21.571L61.7166 22.5872C62.7848 20.7768 63.2958 18.6403 63.2958 16.2197H61.2958ZM59.9925 21.5736C59.1598 22.995 57.9288 24.1 56.2559 24.8847L57.1052 26.6954C59.1107 25.7548 60.6629 24.3859 61.7182 22.5846L59.9925 21.5736ZM56.2625 24.8816C54.5898 25.6513 52.4795 26.0596 49.8934 26.0596V28.0596C52.6784 28.0596 55.0929 27.6215 57.0986 26.6985L56.2625 24.8816ZM48.6005 30.4043V34.2617H50.6005V30.4043H48.6005ZM49.6005 33.2617H31.705V35.2617H49.6005V33.2617ZM32.705 34.2617V30.4043H30.705V34.2617H32.705ZM31.705 31.4043H49.6005V29.4043H31.705V31.4043ZM89.3954 24.0322H90.3954V23.0322H89.3954V24.0322ZM89.3954 27.7432V28.7432H90.3954V27.7432H89.3954ZM77.4813 27.7432H76.4813V28.7432H77.4813V27.7432ZM77.4813 24.0322V23.0322H76.4813V24.0322H77.4813ZM88.3954 24.0322V27.7432H90.3954V24.0322H88.3954ZM89.3954 26.7432H77.4813V28.7432H89.3954V26.7432ZM78.4813 27.7432V24.0322H76.4813V27.7432H78.4813ZM77.4813 25.0322H89.3954V23.0322H77.4813V25.0322Z" fill="#3FDCFF"/>
<defs>
<linearGradient id="paint0_linear_1544_234" x1="4.91785" y1="10.6691" x2="4.91785" y2="-7.27206" gradientUnits="userSpaceOnUse">
<stop stop-color="#3FDCFF"/>
<stop offset="1" stop-color="#3FDCFF" stop-opacity="0"/>
</linearGradient>
</defs>
</svg>
