<svg width="64" height="56" viewBox="0 0 64 56" fill="none" xmlns="http://www.w3.org/2000/svg">
<path d="M18.2638 20.4755C8.52423 20.4755 0.628906 28.2889 0.628906 37.9273C0.628906 47.5656 8.52423 55.379 18.2638 55.379C28.0033 55.379 35.8987 47.5656 35.8987 37.9273C35.8987 28.2889 28.0033 20.4755 18.2638 20.4755ZM18.2638 50.7C11.1355 50.7 5.35694 44.9814 5.35694 37.9273C5.35694 30.8731 11.1355 25.1546 18.2638 25.1546C25.3918 25.1546 31.1705 30.8731 31.1705 37.9273C31.1705 44.9816 25.3918 50.7 18.2638 50.7Z" fill="#D3E5F3"/>
<path d="M44.9692 11.6863C52.5915 11.6863 58.7705 9.56313 58.7705 6.94405C58.7705 4.32497 52.5915 2.20178 44.9692 2.20178C37.347 2.20178 31.168 4.32497 31.168 6.94405C31.168 9.56313 37.347 11.6863 44.9692 11.6863Z" fill="#D3E5F3"/>
<path d="M44.9706 13.8881C39.987 13.8881 35.293 13.2183 31.7529 12.0018C29.9925 11.397 28.6011 10.6848 27.6169 9.88521C26.5052 8.98212 25.9414 7.99258 25.9414 6.94407C25.9414 5.89556 26.5052 4.90602 27.6169 4.00293C28.6011 3.2033 29.9925 2.49119 31.7529 1.88639C35.293 0.669879 39.987 0 44.9706 0C49.9542 0 54.6482 0.669879 58.1883 1.88639C59.9485 2.49119 61.3399 3.2033 62.3242 4.00293C63.436 4.90602 63.9997 5.89556 63.9997 6.94407C63.9997 7.99258 63.436 8.98212 62.3242 9.88521C61.3399 10.6848 59.9485 11.397 58.1883 12.0018C54.6482 13.2183 49.9542 13.8881 44.9706 13.8881ZM44.9706 1.24188C40.1237 1.24188 35.5754 1.88745 32.1643 3.05961C30.5673 3.60836 29.2701 4.26642 28.413 4.96286C27.6056 5.61879 27.1963 6.28535 27.1963 6.94421C27.1963 7.60306 27.6058 8.26962 28.413 8.92555C29.2701 9.62186 30.5673 10.28 32.1643 10.8288C35.5754 12.001 40.1237 12.6465 44.9706 12.6465C49.8175 12.6465 54.3656 12.001 57.7768 10.8288C59.3739 10.28 60.6709 9.62199 61.5282 8.92555C62.3356 8.26962 62.7449 7.60306 62.7449 6.94421C62.7449 6.28535 62.3354 5.61879 61.5282 4.96286C60.6709 4.26655 59.3739 3.60836 57.7768 3.05961C54.3656 1.88745 49.8175 1.24188 44.9706 1.24188Z" fill="#07559D"/>
<path d="M44.9706 13.8881C39.987 13.8881 35.293 13.2182 31.7529 12.0017C29.9925 11.3969 28.6011 10.6848 27.6169 9.88519C26.5052 8.98211 25.9414 7.99256 25.9414 6.94405C25.9414 6.60115 26.2224 6.32318 26.5689 6.32318C26.9154 6.32318 27.1964 6.60115 27.1964 6.94405C27.1964 7.60278 27.6059 8.26947 28.4131 8.9254C29.2703 9.62171 30.5675 10.2799 32.1644 10.8287C35.5756 12.0008 40.1238 12.6464 44.9707 12.6464C49.8177 12.6464 54.3658 12.0008 57.7769 10.8287C59.374 10.2799 60.6711 9.62184 61.5283 8.9254C62.3357 8.26947 62.745 7.60291 62.745 6.94405C62.745 6.60115 63.0259 6.32318 63.3725 6.32318C63.7191 6.32318 63.9999 6.60115 63.9999 6.94405C63.9999 7.99256 63.4363 8.98211 62.3244 9.88519C61.3402 10.6848 59.9488 11.3969 58.1886 12.0017C54.6482 13.2181 49.9542 13.8881 44.9706 13.8881Z" fill="#07559D"/>
<path d="M44.9706 20.0532C39.987 20.0532 35.293 19.3833 31.7529 18.1668C29.9925 17.562 28.6011 16.8499 27.6169 16.0503C26.5052 15.1471 25.9414 14.1575 25.9414 13.1092C25.9414 12.7662 26.2224 12.4883 26.5689 12.4883C26.9154 12.4883 27.1964 12.7662 27.1964 13.1092C27.1964 13.7679 27.6059 14.4346 28.4131 15.0905C29.2703 15.7868 30.5675 16.445 32.1644 16.9938C35.5756 18.1659 40.1238 18.8115 44.9707 18.8115C49.8177 18.8115 54.3658 18.166 57.7769 16.9938C59.374 16.445 60.6711 15.7869 61.5283 15.0905C62.3357 14.4346 62.745 13.768 62.745 13.1092C62.745 12.7662 63.0259 12.4883 63.3725 12.4883C63.7191 12.4883 63.9999 12.7662 63.9999 13.1092C63.9999 14.1577 63.4363 15.1472 62.3244 16.0503C61.3402 16.8499 59.9488 17.562 58.1886 18.1668C54.6482 19.3832 49.9542 20.0532 44.9706 20.0532Z" fill="#07559D"/>
<path d="M44.9706 26.2182C39.987 26.2182 35.293 25.5483 31.7529 24.3318C29.9925 23.727 28.6011 23.0149 27.6169 22.2153C26.5052 21.3121 25.9414 20.3227 25.9414 19.2741C25.9414 18.9311 26.2224 18.6531 26.5689 18.6531C26.9154 18.6531 27.1964 18.9311 27.1964 19.2741C27.1964 19.9329 27.6059 20.5994 28.4131 21.2554C29.2703 21.9518 30.5675 22.6098 32.1644 23.1586C35.5756 24.3308 40.1238 24.9762 44.9707 24.9762C49.8177 24.9762 54.3658 24.3308 57.7769 23.1586C59.374 22.6098 60.6711 21.9518 61.5283 21.2554C62.3357 20.5994 62.745 19.9329 62.745 19.2741C62.745 18.9311 63.0259 18.6531 63.3725 18.6531C63.7191 18.6531 63.9999 18.9311 63.9999 19.2741C63.9999 20.3227 63.4363 21.3121 62.3244 22.2153C61.3402 23.0149 59.9488 23.727 58.1886 24.3318C54.6482 25.5482 49.9542 26.2182 44.9706 26.2182Z" fill="#07559D"/>
<path d="M44.9707 44.7133C41.4188 44.7133 37.9615 44.3678 34.9722 43.7144C34.8008 43.677 34.6531 43.5702 34.5649 43.42C34.4769 43.2698 34.4561 43.09 34.5083 42.9241C35.014 41.3125 35.2703 39.6313 35.2703 37.9272C35.2703 31.705 31.8228 26.0145 26.273 23.0766C26.0689 22.9685 25.9414 22.7582 25.9414 22.5291V6.94405C25.9414 6.60115 26.2224 6.32318 26.5689 6.32318C26.9154 6.32318 27.1964 6.60115 27.1964 6.94405C27.1964 7.60278 27.6059 8.26947 28.4131 8.9254C29.2703 9.62171 30.5675 10.2799 32.1644 10.8287C35.5756 12.0008 40.1238 12.6464 44.9707 12.6464C49.8177 12.6464 54.3658 12.0008 57.7769 10.8287C59.374 10.2799 60.6711 9.62184 61.5283 8.9254C62.3357 8.26947 62.745 7.60291 62.745 6.94405C62.745 6.60115 63.0259 6.32318 63.3725 6.32318C63.719 6.32318 63.9999 6.60115 63.9999 6.94405V37.7692C63.9999 38.8177 63.4363 39.8072 62.3244 40.7103C61.3402 41.51 59.9488 42.2221 58.1886 42.8269C54.6484 44.0434 49.9543 44.7133 44.9707 44.7133ZM35.8981 42.6384C38.6457 43.1841 41.7661 43.4712 44.9706 43.4712C49.8175 43.4712 54.3656 42.8258 57.7768 41.6536C59.3739 41.1049 60.6709 40.4468 61.5282 39.7504C62.3356 39.0945 62.7449 38.4279 62.7449 37.7691V9.5144C62.6145 9.6395 62.4743 9.76314 62.3241 9.88506C61.3399 10.6847 59.9485 11.3968 58.1883 12.0016C54.6482 13.2181 49.9542 13.888 44.9706 13.888C39.987 13.888 35.293 13.2181 31.7529 12.0016C29.9925 11.3968 28.6011 10.6847 27.6169 9.88506C27.4667 9.76314 27.3265 9.63937 27.1963 9.5144V22.1613C29.9205 23.6761 32.2157 25.8633 33.8503 28.5062C35.6001 31.3355 36.5249 34.5932 36.5249 37.9271C36.5249 39.5271 36.3145 41.1087 35.8981 42.6384Z" fill="#07559D"/>
<path d="M18.2625 55.9999C15.7974 55.9999 13.4056 55.5221 11.1537 54.5794C8.97899 53.6692 7.02596 52.3661 5.34898 50.7065C3.672 49.047 2.35509 47.1142 1.43541 44.9621C0.482846 42.7336 0 40.3667 0 37.9272C0 35.4877 0.48298 33.1208 1.43541 30.8923C2.35522 28.7401 3.672 26.8074 5.34898 25.1478C7.02596 23.4883 8.97899 22.1853 11.1537 21.2749C13.4055 20.3324 15.7974 19.8544 18.2625 19.8544C20.7276 19.8544 23.1194 20.3324 25.3713 21.2749C27.546 22.1852 29.499 23.4883 31.176 25.1478C32.853 26.8074 34.1698 28.7401 35.0896 30.8923C36.0421 33.1208 36.5249 35.4877 36.5249 37.9272C36.5249 40.3667 36.042 42.7336 35.0896 44.9621C34.1698 47.1142 32.853 49.047 31.176 50.7065C29.499 52.3661 27.546 53.6692 25.3713 54.5794C23.1195 55.5221 20.7276 55.9999 18.2625 55.9999ZM18.2625 21.0963C8.88452 21.0963 1.25491 28.6466 1.25491 37.9272C1.25491 47.2077 8.88466 54.7581 18.2625 54.7581C27.6404 54.7581 35.2701 47.2077 35.2701 37.9272C35.2702 28.6466 27.6405 21.0963 18.2625 21.0963Z" fill="#07559D"/>
<path d="M44.9709 38.5483C41.7394 38.5483 38.5531 38.259 35.7563 37.7117C35.4733 37.6564 35.2648 37.4168 35.2512 37.1314C35.1481 34.9391 34.6248 32.8236 33.6951 30.8439C33.5933 30.627 33.6264 30.3715 33.7802 30.187C33.934 30.0026 34.1812 29.922 34.4157 29.9796C37.5019 30.7395 41.1518 31.1413 44.9707 31.1413C49.8177 31.1413 54.3658 30.4957 57.7769 29.3235C59.374 28.7748 60.6711 28.1167 61.5283 27.4203C62.3357 26.7643 62.745 26.0978 62.745 25.4389C62.745 25.0959 63.026 24.8181 63.3725 24.8181C63.719 24.8181 63.9999 25.096 63.9999 25.4389V31.6039C63.9999 32.6525 63.4363 33.642 62.3244 34.5451C61.3402 35.3447 59.9488 36.0567 58.1886 36.6616C54.6485 37.8784 49.9544 38.5483 44.9709 38.5483ZM36.4751 36.5833C39.0766 37.0569 42.0022 37.3064 44.9709 37.3064C49.8178 37.3064 54.3659 36.6608 57.777 35.4887C59.3742 34.9399 60.6712 34.2819 61.5285 33.5854C62.3358 32.9295 62.7452 32.2629 62.7452 31.6041V28.0095C62.6148 28.1345 62.4746 28.2583 62.3244 28.3802C61.3402 29.1798 59.9488 29.8919 58.1886 30.4967C54.6485 31.7131 49.9544 32.3831 44.9709 32.3831C41.5364 32.3831 38.2289 32.0651 35.3207 31.4589C35.9574 33.0998 36.3443 34.8169 36.4751 36.5833Z" fill="#07559D"/>
<path d="M17.712 46.264H17.688C16.36 46.264 15.24 45.592 14.328 44.248C13.416 42.904 12.944 40.912 12.912 38.272C12.912 35.616 13.408 33.6 14.4 32.224C15.392 30.832 16.6 30.136 18.024 30.136C19.464 30.136 20.616 30.8 21.48 32.128C22.36 33.44 22.8 35.392 22.8 37.984C22.8 40.704 22.344 42.768 21.432 44.176C20.536 45.568 19.296 46.264 17.712 46.264ZM17.808 45.304H17.832C19.08 45.304 20.016 44.656 20.64 43.36C21.28 42.064 21.6 40.312 21.6 38.104C21.6 35.96 21.288 34.256 20.664 32.992C20.056 31.728 19.12 31.096 17.856 31.096C16.736 31.096 15.832 31.744 15.144 33.04C14.456 34.336 14.112 36.024 14.112 38.104C14.08 40.264 14.4 42.008 15.072 43.336C15.76 44.648 16.672 45.304 17.808 45.304Z" fill="#07559D"/>
</svg>
