<svg width="28" height="34" viewBox="0 0 28 34" fill="none" xmlns="http://www.w3.org/2000/svg">
    <path d="M13.2766 3.90909H10.3877V1H17.6099V3.90909H14.721" stroke="#07559D" stroke-width="2" stroke-miterlimit="10" />
    <path d="M15.4444 5.36365V6.90329C21.9437 7.62765 27 13.1709 27 19.9091C27 27.1389 21.1796 33 14 33C6.82039 33 1 27.1389 1 19.9091C1 13.1709 6.05628 7.62765 12.5556 6.90329V5.36365" stroke="#07559D" stroke-width="2" stroke-miterlimit="10" />
    <path d="M25.5573 8.27276L23.3906 6.09094" stroke="#07559D" stroke-width="2" stroke-miterlimit="10" />
    <path d="M21.9434 9.72723L24.11 7.54541" stroke="#07559D" stroke-width="2" stroke-miterlimit="10" />
    <path d="M2.44336 8.27276L4.61003 6.09094" stroke="#07559D" stroke-width="2" stroke-miterlimit="10" />
    <path d="M6.05632 9.72723L3.88965 7.54541" stroke="#07559D" stroke-width="2" stroke-miterlimit="10" />
    <path d="M13.999 9.72729V19.9091H24.1101C24.1101 14.2858 19.5832 9.72729 13.999 9.72729Z" stroke="#07559D" stroke-width="2" stroke-miterlimit="10" />
    <path d="M3.88965 19.9091C3.88965 25.5323 8.22298 30.0909 14.0008 30.0909" stroke="#07559D" stroke-width="2" stroke-miterlimit="10" />
</svg>