<svg width="62" height="65" viewBox="0 0 62 65" fill="none" xmlns="http://www.w3.org/2000/svg">
    <path d="M1.78869 36.1311C2.52464 34.4019 3.57775 32.8499 4.91834 31.518C6.25893 30.1859 7.82112 29.1397 9.56136 28.4084C11.3648 27.6506 13.2786 27.2662 15.2496 27.2662V34.2365C11.0618 34.2365 7.65468 37.6216 7.65468 41.7825V42.49C7.65468 46.6509 11.0616 50.036 15.2496 50.036H31.2423V43.8557L44.9004 53.6141L31.2423 63.3727V57.0064H15.2496C13.2786 57.0064 11.3648 56.622 9.56136 55.8641C7.82112 55.1329 6.25893 54.0866 4.91834 52.7546C3.57775 51.4227 2.52464 49.8705 1.78869 48.1414C1.02581 46.3495 0.639088 44.4482 0.639088 42.4899V41.7824C0.639088 39.8243 1.02581 37.9229 1.78869 36.1311Z" fill="#D3E5F3" />
    <path d="M15.247 11.8591H58.3743C58.6071 11.8591 58.821 11.7319 58.931 11.5281C59.041 11.3243 59.029 11.0768 58.9003 10.8842L51.8035 0.2801C51.6863 0.105164 51.489 0.00012207 51.2777 0.00012207H22.3439C22.1325 0.00012207 21.9351 0.105164 21.8181 0.2801L14.7212 10.8842C14.5924 11.0768 14.5806 11.3242 14.6906 11.5281C14.8005 11.732 15.0143 11.8591 15.247 11.8591ZM57.1961 10.6041H16.4254L22.6824 1.25484H50.9391L57.1961 10.6041Z" fill="#07559D" />
    <path d="M31.9243 11.2316H41.6934V23.542H31.9243V11.2316Z" fill="#D3E5F3" />
    <path d="M41.6934 11.2316H31.9243L33.5318 0.627441H40.0858L41.6934 11.2316Z" fill="#D3E5F3" />
    <path d="M31.9215 11.8591H41.6908C41.8748 11.8591 42.0495 11.7795 42.1695 11.6409C42.2893 11.5024 42.3426 11.3188 42.3152 11.1381L40.7076 0.533976C40.661 0.226985 40.3956 0 40.0832 0H33.5293C33.2168 0 32.9512 0.226985 32.9048 0.533976L31.2972 11.1381C31.2698 11.3188 31.323 11.5024 31.443 11.6409C31.5631 11.7794 31.7378 11.8591 31.9215 11.8591ZM40.957 10.6041H32.6554L34.0728 1.25484H39.5397L40.957 10.6041Z" fill="#07559D" />
    <path d="M31.9215 24.1695H41.6907C42.0395 24.1695 42.3223 23.8884 42.3223 23.542V11.2315C42.3223 10.8849 42.0394 10.604 41.6907 10.604H31.9215C31.5726 10.604 31.29 10.8849 31.29 11.2315V23.542C31.29 23.8884 31.5727 24.1695 31.9215 24.1695ZM41.0593 22.9146H32.5531V11.8591H41.0593V22.9146Z" fill="#07559D" />
    <path d="M15.2471 42.3982H58.3744C58.7233 42.3982 59.0059 42.1172 59.0059 41.7707V11.2317C59.0059 10.8851 58.7232 10.6042 58.3744 10.6042H15.2471C14.8984 10.6042 14.6157 10.8851 14.6157 11.2317V41.7707C14.6157 42.1172 14.8986 42.3982 15.2471 42.3982ZM57.743 41.1434H15.8787V11.8591H57.743V41.1434Z" fill="#07559D" />
    <path d="M31.2357 64C31.3657 64 31.4951 63.9601 31.6045 63.8818L45.2626 54.1234C45.4277 54.0057 45.5254 53.8161 45.5254 53.614C45.5254 53.4122 45.4277 53.2225 45.2626 53.1045L31.6045 43.3461C31.4122 43.2085 31.1585 43.1899 30.9477 43.2972C30.7368 43.4044 30.6042 43.6202 30.6042 43.8556V49.4084H15.2429C11.4033 49.4084 8.27955 46.3049 8.27955 42.4899V41.7824C8.27955 37.9674 11.4033 34.8639 15.2429 34.8639C15.5919 34.8639 15.8745 34.5829 15.8745 34.2364V27.2661C15.8745 26.9195 15.5917 26.6386 15.2429 26.6386C13.1872 26.6386 11.1907 27.0396 9.3088 27.8304C7.49332 28.5933 5.86368 29.6847 4.46528 31.0742C3.06688 32.4636 1.96851 34.0827 1.20061 35.8865C0.404732 37.7561 0.00109863 39.7398 0.00109863 41.7824V42.4899C0.00109863 44.5325 0.404732 46.5162 1.20061 48.3859C1.96851 50.1896 3.06701 51.8089 4.46528 53.1981C5.86381 54.5877 7.49345 55.679 9.3088 56.4418C11.1907 57.2327 13.1872 57.6336 15.2429 57.6336H30.6042V63.3725C30.6042 63.6079 30.7368 63.8234 30.9477 63.9309C31.0387 63.9772 31.1374 64 31.2357 64ZM43.8123 53.614L31.8673 62.1485V57.0062C31.8673 56.6598 31.5846 56.3789 31.2359 56.3789H15.243C13.3572 56.3789 11.5263 56.0111 9.8011 55.2862C8.13622 54.5865 6.64161 53.5855 5.3587 52.3109C4.07579 51.0362 3.06821 49.5512 2.36406 47.8971C1.63444 46.1831 1.26435 44.3638 1.26435 42.49V41.7825C1.26435 39.9087 1.63444 38.0895 2.36406 36.3755C3.06834 34.7214 4.07593 33.2364 5.3587 31.9617C6.64148 30.6871 8.13622 29.686 9.8011 28.9863C11.3329 28.3426 12.9485 27.9805 14.6116 27.9075V33.6329C10.3693 33.9543 7.01672 37.4868 7.01672 41.7825V42.49C7.01672 46.9968 10.7071 50.6635 15.243 50.6635H31.2359C31.5847 50.6635 31.8673 50.3825 31.8673 50.036V45.0797L43.8123 53.614Z" fill="#07559D" />
    <path fill-rule="evenodd" clip-rule="evenodd" d="M48.0059 57.7C48.0059 57.3134 48.3193 57 48.7059 57H58.7059C59.0925 57 59.4059 57.3134 59.4059 57.7C59.4059 58.0866 59.0925 58.4 58.7059 58.4H48.7059C48.3193 58.4 48.0059 58.0866 48.0059 57.7Z" fill="#07559D" />
    <path fill-rule="evenodd" clip-rule="evenodd" d="M48.0059 53.7C48.0059 53.3134 48.3193 53 48.7059 53H58.7059C59.0925 53 59.4059 53.3134 59.4059 53.7C59.4059 54.0866 59.0925 54.4 58.7059 54.4H48.7059C48.3193 54.4 48.0059 54.0866 48.0059 53.7Z" fill="#07559D" />
    <path fill-rule="evenodd" clip-rule="evenodd" d="M46.2761 44.1475C46.5813 43.9101 47.0211 43.9651 47.2584 44.2703L53.7059 52.5599L60.1533 44.2703C60.3907 43.9651 60.8305 43.9101 61.1356 44.1475C61.4408 44.3848 61.4958 44.8246 61.2584 45.1298L53.7059 54.8402L46.1533 45.1298C45.916 44.8246 45.971 44.3848 46.2761 44.1475Z" fill="#07559D" />
    <path fill-rule="evenodd" clip-rule="evenodd" d="M53.7059 53C54.0925 53 54.4059 53.3134 54.4059 53.7V63.7C54.4059 64.0866 54.0925 64.4 53.7059 64.4C53.3193 64.4 53.0059 64.0866 53.0059 63.7V53.7C53.0059 53.3134 53.3193 53 53.7059 53Z" fill="#07559D" />
</svg>