<svg xmlns="http://www.w3.org/2000/svg" width="378" height="378" viewBox="0 0 378 378"><defs><style>.a{fill:#a7a7aa;}</style></defs><path class="a" d="M189,207.29a67.07,67.07,0,1,0,67.06,67.06A67.14,67.14,0,0,0,189,207.29Zm0,121.94a54.88,54.88,0,1,1,54.87-54.88A54.94,54.94,0,0,1,189,329.23Z"/><path class="a" d="M361.83,130.4a103.15,103.15,0,0,0-9.31-22.47l7.58-15.3L328,60.58l-15.29,7.58a103.15,103.15,0,0,0-22.47-9.31l-5.45-16.17H239.49L234,58.85a102.61,102.61,0,0,0-25.39,11l-.16.12c-.78-1.57-1.44-3.2-2.3-4.74L213.78,50,181.72,17.9l-15.3,7.58A102.86,102.86,0,0,0,144,16.17L138.51,0H93.16L87.71,16.17a103.07,103.07,0,0,0-22.46,9.31L50,17.9,17.9,50l7.58,15.29a103.15,103.15,0,0,0-9.31,22.47L0,93.17v45.34L16.17,144a103.15,103.15,0,0,0,9.31,22.47l-7.58,15.3L50,213.78l15.29-7.58a103.15,103.15,0,0,0,22.47,9.31l5.45,16.17h13.94l.52,1a91.52,91.52,0,0,0-5.6,13.59l-16.68,5.35V297.1L102,302.44A91.12,91.12,0,0,0,107.63,316l-8,15.53,32.15,32.16,15.54-8a91.52,91.52,0,0,0,13.59,5.6L166.27,378h45.47l5.34-16.67a91.08,91.08,0,0,0,13.59-5.6l15.54,8,32.16-32.16-8-15.53a91.71,91.71,0,0,0,5.6-13.59l16.68-5.36V257.45a103,103,0,0,0,20.1-8.58L328,256.45l32.06-32-7.58-15.3a103.15,103.15,0,0,0,9.31-22.47L378,181.18V135.84ZM100.76,216l-3.6-10.68-3.25-.8a90.68,90.68,0,0,1-25.27-10.48l-2.86-1.73L52.39,199,32.72,179.29l6.64-13.39L37.62,163a90.77,90.77,0,0,1-10.47-25.26l-.8-3.25-14.16-4.77V101.93l14.16-4.77.8-3.25A90.47,90.47,0,0,1,37.62,68.65l1.74-2.87L32.72,52.4,52.39,32.72l13.39,6.65,2.86-1.74A91,91,0,0,1,93.91,27.16l3.25-.8,4.77-14.17h27.82l4.76,14.16,3.25.8A90.41,90.41,0,0,1,163,37.62l2.86,1.74,13.39-6.64L199,52.39l-6.65,13.39,1.74,2.86a91,91,0,0,1,10.47,25.27l.8,3.25,14.16,4.77v27.82l-14.15,4.77-.8,3.25A90.49,90.49,0,0,1,194.05,163l-1.73,2.87,2.39,4.81H172.9a79.16,79.16,0,1,0-57.06,24.39c2.08,0,4.11-.16,6.15-.31Zm118.72-73.39v45.64c-.8-.29-1.58-.62-2.4-.88l-5.35-16.67h-3.42l-2.12-4.29A102.86,102.86,0,0,0,215.5,144ZM97.55,134.13v24.39H85.35V121.94h61v36.58H134.13V134.13Zm24.39,12.19v12.2h-12.2v-12.2ZM81.78,109.74l34.06-34,34.06,34.05Zm31.78,61h40.71a66.7,66.7,0,0,1-76.88,0Zm50.07,8.21-2.71,8.46a91.08,91.08,0,0,0-13.59,5.6l-5-2.55A79,79,0,0,0,163.63,178.92Zm-5.11-20.4V121.94h6.09a6.09,6.09,0,0,0,4.31-10.41L120.15,62.75a6.1,6.1,0,0,0-8.62,0L62.75,111.53a6.1,6.1,0,0,0,4.31,10.41h6.1v36.58h-9a67.07,67.07,0,1,1,103.39,0ZM280.45,288.2l-14.36,4.6L265.2,296a78.75,78.75,0,0,1-7,17l-1.61,2.86,6.89,13.38-19.57,19.57-13.39-6.88-2.85,1.6a79,79,0,0,1-17,7l-3.15.89-4.59,14.36H175.16l-4.6-14.37-3.15-.89a78.53,78.53,0,0,1-17-7l-2.85-1.59-13.39,6.88-19.57-19.58,6.89-13.38L119.83,313a78.75,78.75,0,0,1-7-17l-.89-3.15-14.36-4.6V260.52l14.36-4.61.89-3.15a79.24,79.24,0,0,1,7-17l1.6-2.85-6.88-13.38,19.57-19.58,13.39,6.88,2.85-1.59a78,78,0,0,1,17-7l3.15-.89,4.59-14.37h27.69l4.6,14.37,3.15.89a78.53,78.53,0,0,1,17,7l2.85,1.59,13.39-6.88,19.57,19.58-6.88,13.38,1.6,2.85a79.24,79.24,0,0,1,7,17l.89,3.15,14.36,4.6Zm-11.94-80.91h36.33V115.84H231.68V98.94a67,67,0,1,1,43,125.42l3.72-7.22ZM292.65,128v12.2h-61V128Zm0,24.39V195.1H256.32L246.21,185l-14.53,7.47v-40Zm73.16,20-14.16,4.77-.8,3.25a90.77,90.77,0,0,1-10.47,25.26l-1.74,2.87L345.28,222l-19.67,19.67L312.22,235l-2.86,1.74a91,91,0,0,1-25,10.41l-3.58.69L276,246.27a92.69,92.69,0,0,0-3.56-9.15A79.26,79.26,0,1,0,222.35,90l-6.85-2.31c-.59-2.09-1.41-4.09-2.13-6.14l1.88-1.45a90.92,90.92,0,0,1,25-10.29l3.25-.8,4.77-14.16h27.82L280.84,69l3.25.8A90.47,90.47,0,0,1,309.35,80.3L312.22,82l13.38-6.65,19.68,19.68-6.65,13.39,1.74,2.86a91,91,0,0,1,10.48,25.27l.79,3.25,14.17,4.76Z"/><path class="a" d="M195.38,286.84c12.87,0,23.35-10.91,23.35-24.32s-10.48-24.31-23.35-24.31H172.75v51.32h-5.27v10h5.27V311.2h10V299.56H201.3v-10H182.77v-2.69Zm-12.61-10V248.24h12.61c7.35,0,13.32,6.4,13.32,14.28s-6,14.29-13.32,14.29Z"/></svg>