<svg width="43" height="64" viewBox="0 0 43 64" fill="none" xmlns="http://www.w3.org/2000/svg">
<path d="M33.4792 60.9121L32.9467 60.0854C31.9524 58.5422 31.1786 57.7685 29.6353 56.7741L28.8087 56.2414L29.6353 55.7087C31.1786 54.7144 31.9524 53.9406 32.9467 52.3975L33.4792 51.5709L34.0119 52.3975C35.0064 53.9407 35.78 54.7144 37.3233 55.7087L38.1499 56.2414L37.3233 56.7741C35.78 57.7684 35.0064 58.5422 34.0119 60.0854L33.4792 60.9121ZM31.1051 56.2415C32.0814 56.9477 32.773 57.6394 33.4792 58.6156C34.1856 57.6394 34.8772 56.9477 35.8535 56.2415C34.8772 55.5353 34.1856 54.8435 33.4792 53.8674C32.773 54.8435 32.0814 55.5353 31.1051 56.2415Z" fill="#07559D" />
<path d="M41.9242 42.6088H0.633789V49.1165H41.9242V42.6088Z" fill="#D3E5F3" />
<path d="M42.558 49.7502H0V41.9752H7.95982V43.2425H1.2675V48.4829H41.2907V43.2425H17.2175V41.9752H42.558V49.7502Z" fill="#07559D" />
<path d="M18.0531 53.4645H7.11328V57.5879H18.0531V53.4645Z" fill="#D3E5F3" />
<path d="M33.0826 56.2415C31.4668 57.2826 30.6228 58.1264 29.5819 59.7422C28.5407 58.1265 27.6969 57.2826 26.0812 56.2415C27.6969 55.2004 28.5408 54.3565 29.5819 52.7408C30.6228 54.3565 31.4668 55.2004 33.0826 56.2415Z" fill="#D3E5F3" />
<path d="M29.5836 60.9121L29.051 60.0854C28.0566 58.5422 27.2828 57.7685 25.7396 56.7741L24.913 56.2414L25.7396 55.7087C27.2828 54.7144 28.0566 53.9406 29.051 52.3975L29.5836 51.5709L30.1163 52.3975C31.1106 53.9407 31.8843 54.7144 33.4275 55.7087L34.2542 56.2414L33.4275 56.7741C31.8843 57.7684 31.1106 58.5422 30.1163 60.0854L29.5836 60.9121ZM27.2094 56.2415C28.1856 56.9477 28.8774 57.6394 29.5836 58.6156C30.2898 57.6394 30.9816 56.9477 31.9577 56.2415C30.9816 55.5353 30.2898 54.8435 29.5836 53.8674C28.8774 54.8435 28.1856 55.5353 27.2094 56.2415Z" fill="#07559D" />
<path d="M28.4037 35.6804C30.5416 35.6804 32.2747 33.9473 32.2747 31.8094C32.2747 29.6715 30.5416 27.9384 28.4037 27.9384C26.2658 27.9384 24.5327 29.6715 24.5327 31.8094C24.5327 33.9473 26.2658 35.6804 28.4037 35.6804Z" fill="#D3E5F3" />
<path d="M12.612 29.3295C10.4123 29.3295 8.34428 28.4728 6.7888 26.9174C5.23332 25.362 4.37671 23.2939 4.37671 21.0941C4.37671 18.8943 5.23332 16.8262 6.7888 15.2707C8.34428 13.7153 10.4123 12.8586 12.612 12.8586C14.8117 12.8586 16.8798 13.7153 18.4353 15.2707C19.9908 16.8261 20.8474 18.8942 20.8474 21.0941C20.8474 23.2939 19.9908 25.3619 18.4353 26.9174C16.8799 28.4728 14.8118 29.3295 12.612 29.3295ZM12.612 14.126C8.76986 14.126 5.64406 17.2518 5.64406 21.0941C5.64406 24.9363 8.76986 28.0621 12.612 28.0621C16.4542 28.0621 19.58 24.9363 19.58 21.0941C19.58 17.2518 16.4544 14.126 12.612 14.126Z" fill="#07559D" />
<path d="M12.6113 26.0424C15.3441 26.0424 17.5596 23.8269 17.5596 21.0941C17.5596 18.3612 15.3441 16.1458 12.6113 16.1458C9.87839 16.1458 7.66296 18.3612 7.66296 21.0941C7.66296 23.8269 9.87839 26.0424 12.6113 26.0424Z" fill="#D3E5F3" />
<path d="M28.4049 21.6437C26.6623 21.6437 25.024 20.9651 23.7916 19.7328C22.5593 18.5004 21.8809 16.8621 21.8809 15.1193C21.8809 13.3766 22.5593 11.7382 23.7916 10.506C25.024 9.27379 26.6623 8.59509 28.4049 8.59509C30.1477 8.59509 31.786 9.27379 33.0184 10.506C34.2506 11.7382 34.9292 13.3766 34.9292 15.1193C34.9292 16.862 34.2506 18.5004 33.0184 19.7328C31.7862 20.965 30.1477 21.6437 28.4049 21.6437ZM28.4049 9.86231C25.5063 9.86231 23.1479 12.2206 23.1479 15.1193C23.1479 18.018 25.5063 20.3763 28.4049 20.3763C31.3036 20.3763 33.6619 18.018 33.6619 15.1193C33.6619 12.2206 31.3038 9.86231 28.4049 9.86231Z" fill="#07559D" />
<path d="M28.4037 18.9536C30.5213 18.9536 32.238 17.2369 32.238 15.1193C32.238 13.0016 30.5213 11.2849 28.4037 11.2849C26.286 11.2849 24.5693 13.0016 24.5693 15.1193C24.5693 17.2369 26.286 18.9536 28.4037 18.9536Z" fill="#D3E5F3" />
<path d="M39.6801 64H2.87772C1.29104 64 0 62.7091 0 61.1223V39.1306C0 37.5439 1.29104 36.2529 2.87772 36.2529H39.6801C41.2668 36.2529 42.5578 37.5438 42.5578 39.1306V61.1223C42.5578 62.7091 41.2668 64 39.6801 64ZM2.87759 37.5202C1.98964 37.5202 1.26735 38.2427 1.26735 39.1306V61.1223C1.26735 62.0102 1.98977 62.7327 2.87759 62.7327H39.68C40.5679 62.7327 41.2904 62.0102 41.2904 61.1223V39.1306C41.2904 38.2427 40.5678 37.5202 39.68 37.5202H2.87759V37.5202Z" fill="#07559D" />
<path d="M31.6787 37.5201H25.1272L24.9751 37.427C24.0305 36.8497 23.2406 36.0371 22.6904 35.0772C22.1227 34.0868 21.8228 32.9569 21.8228 31.8092C21.8228 30.0515 22.507 28.399 23.75 27.1561C24.9928 25.9132 26.6453 25.2288 28.403 25.2288C30.1606 25.2288 31.8131 25.9132 33.056 27.1561C34.2989 28.399 34.9833 30.0514 34.9833 31.8092C34.9833 32.9568 34.6832 34.0868 34.1155 35.0772C33.5653 36.0371 32.7753 36.8496 31.8308 37.427L31.6787 37.5201ZM25.4893 36.2529H31.3168C32.8225 35.2655 33.7161 33.6172 33.7161 31.8093C33.7161 28.8797 31.3326 26.4963 28.403 26.4963C25.4733 26.4963 23.09 28.8798 23.09 31.8093C23.09 33.6171 23.9835 35.2655 25.4893 36.2529Z" fill="#07559D" />
<path d="M34.1137 22.3282H32.8463V26.031H34.1137V22.3282Z" fill="#07559D" />
<path d="M7.1575 5.61029H5.89014V12.5108H7.1575V5.61029Z" fill="#07559D" />
<path d="M19.2195 8.52734H17.9521V12.5106H19.2195V8.52734Z" fill="#07559D" />
<path d="M13.2461 2.07581H11.9788V9.22872H13.2461V2.07581Z" fill="#07559D" />
<path d="M25.7269 3.19775H24.4596V7.23699H25.7269V3.19775Z" fill="#07559D" />
<path d="M33.4683 0H32.2009V7.23711H33.4683V0Z" fill="#07559D" />
</svg>