<svg width="64" height="46" viewBox="0 0 64 46" fill="none" xmlns="http://www.w3.org/2000/svg">
<path d="M6.01172 8.47516V16.7214C8.94635 15.7252 11.229 14.0908 12.7018 12.8055C14.6067 14.4677 17.8657 16.7138 22.1382 17.4081H63.3709V8.47516H6.01172Z" fill="#D3E5F3" />
<path d="M51.6456 31.5046C49.237 31.5046 47.2773 29.5682 47.2773 27.1881C47.2773 24.808 49.2368 22.8716 51.6456 22.8716C54.0542 22.8716 56.0139 24.808 56.0139 27.1881C56.0139 29.5682 54.0542 31.5046 51.6456 31.5046ZM51.6456 24.1117C49.9288 24.1117 48.5323 25.4918 48.5323 27.1881C48.5323 28.8844 49.929 30.2645 51.6456 30.2645C53.3623 30.2645 54.759 28.8844 54.759 27.1881C54.759 25.4918 53.3623 24.1117 51.6456 24.1117Z" fill="#07559D" />
<path d="M6.64164 16.7214H5.38672V8.47512C5.38672 8.13268 5.6677 7.85516 6.01411 7.85516H16.1912V9.0952H6.64164V16.7214V16.7214Z" fill="#07559D" />
<path d="M64.0003 18.0282H22.125V16.7883H62.7455V9.0952H29.0513V7.85516H64.0003V18.0282Z" fill="#07559D" />
<path d="M46.2291 30.8847C48.295 30.8847 49.9698 29.2297 49.9698 27.1883C49.9698 25.1468 48.295 23.4919 46.2291 23.4919C44.1631 23.4919 42.4883 25.1468 42.4883 27.1883C42.4883 29.2297 44.1631 30.8847 46.2291 30.8847Z" fill="#D3E5F3" />
<path d="M46.2247 33.1384L45.6972 32.3296C44.2933 30.1764 43.2007 29.097 41.0217 27.7096L40.2031 27.1885L41.0217 26.6673C43.2007 25.2799 44.2933 24.2005 45.6972 22.0473L46.2247 21.2385L46.752 22.0473C48.156 24.2005 49.2485 25.2799 51.4274 26.6673L52.246 27.1885L51.4274 27.7096C49.2485 29.097 48.156 30.1764 46.752 32.3296L46.2247 33.1384ZM42.4897 27.1883C44.075 28.2813 45.1184 29.3124 46.2247 30.879C47.3307 29.3125 48.3742 28.2813 49.9595 27.1883C48.3742 26.0953 47.3308 25.0641 46.2247 23.4977C45.1184 25.0643 44.075 26.0954 42.4897 27.1883Z" fill="#07559D" />
<path d="M12.7033 45.9999L12.3895 45.821C10.3313 44.6467 7.34527 42.7678 4.80871 40.4841C1.61792 37.6114 0 34.8652 0 32.3216V17.0017H0.627526C5.85037 17.0017 9.85121 14.467 12.2879 12.3407L12.7033 11.9783L13.1186 12.3407C15.5554 14.467 19.5563 17.0017 24.779 17.0017H25.4066V32.3216C25.4066 34.8653 23.7886 37.6114 20.5979 40.4841C18.0613 42.7677 15.0754 44.6467 13.0171 45.821L12.7033 45.9999ZM1.25505 18.2302V32.3215C1.25505 34.5015 2.73499 36.9395 5.65397 39.5673C7.98252 41.6636 10.7172 43.4159 12.7034 44.5666C14.6896 43.4159 17.4243 41.6636 19.7529 39.5673C22.6718 36.9395 24.1518 34.5015 24.1518 32.3215V18.2302C21.7972 18.1435 19.4739 17.5693 17.2363 16.5197C15.6379 15.7701 14.1152 14.7972 12.7034 13.6239C11.2916 14.7972 9.76905 15.7701 8.17055 16.5197C5.93292 17.5693 3.6095 18.1435 1.25505 18.2302Z" fill="#07559D" />
<path d="M12.7015 41.4709C11.1405 40.4988 9.15711 39.1451 7.45474 37.6124C6.27658 36.5517 5.37198 35.5347 4.76589 34.5893C4.21107 33.7239 3.92969 32.961 3.92969 32.3219V20.606C7.57278 19.9835 10.5593 18.4261 12.7013 16.9498C14.8433 18.4261 17.83 19.9835 21.4731 20.606V32.3217C21.4731 32.9609 21.1917 33.7239 20.6369 34.5892C20.0308 35.5345 19.1262 36.5517 17.9481 37.6123C16.246 39.1451 14.2625 40.4987 12.7015 41.4709Z" fill="#D3E5F3" />
<path d="M24.7773 23.3763C24.7773 25.079 24.7773 27.0283 24.7773 29.0366H30.2098V23.3763H24.7773Z" fill="#D3E5F3" />
<path d="M60.2559 37.5885H22.9981C22.7627 37.5885 22.5472 37.4582 22.4398 37.2514C22.3324 37.0445 22.3512 36.7955 22.4886 36.6066C23.5928 35.0888 24.1526 33.6471 24.1526 32.3217V18.2303C21.798 18.1436 19.4747 17.5694 17.2371 16.5198C15.6386 15.7701 14.1159 14.797 12.7041 13.6236C11.2348 14.8421 9.01713 16.3573 6.21794 17.3076C6.02625 17.3726 5.81447 17.3423 5.64962 17.2259C5.48451 17.1095 5.38672 16.9216 5.38672 16.7212V3.70038C5.38672 1.65991 7.06669 0 9.13152 0H60.256C62.3209 0 64.0008 1.66005 64.0008 3.70038V33.888C64.0005 35.9286 62.3207 37.5885 60.2559 37.5885ZM24.1585 36.3486H60.2559C61.6288 36.3486 62.7457 35.2449 62.7457 33.8882V3.70052C62.7457 2.34385 61.6288 1.24017 60.2559 1.24017H9.13139C7.75843 1.24017 6.64151 2.34385 6.64151 3.70052V15.8286C9.12316 14.8411 11.0584 13.4145 12.2889 12.3407C12.5261 12.1336 12.8823 12.1336 13.1195 12.3407C15.5563 14.467 19.5572 17.0017 24.78 17.0017C25.1265 17.0017 25.4074 17.2793 25.4074 17.6218V32.3216C25.4074 33.6102 24.9878 34.9608 24.1585 36.3486Z" fill="#07559D" />
</svg>