<svg width="24" height="24" viewBox="0 0 24 24" fill="none" xmlns="http://www.w3.org/2000/svg">
<circle cx="12" cy="12" r="11" fill="white" stroke="#07559D" stroke-width="2"/>
<path d="M7.72487 10.4724C7.34441 10.0721 6.71145 10.056 6.31112 10.4364C5.91078 10.8169 5.89467 11.4498 6.27513 11.8502L7.72487 10.4724ZM11.5985 16L10.8736 16.6889L11.7309 17.5909L12.4273 16.5596L11.5985 16ZM17.8288 8.55958C18.1378 8.10186 18.0173 7.48027 17.5596 7.17122C17.1019 6.86218 16.4803 6.9827 16.1712 7.44042L17.8288 8.55958ZM6.27513 11.8502L10.8736 16.6889L12.3234 15.3111L7.72487 10.4724L6.27513 11.8502ZM12.4273 16.5596L17.8288 8.55958L16.1712 7.44042L10.7697 15.4404L12.4273 16.5596Z" fill="#07559D"/>
</svg>
