<svg xmlns="http://www.w3.org/2000/svg" viewBox="0 0 281.02 315.01"><g id="Слой_2" data-name="Слой 2"><g id="Слой_1-2" data-name="Слой 1"><path style="fill:#a1a1a4" d="M281,303.76V67.29l-11.25-.16H202.58V33.75h-90V0H.08V22.12H11.33V11.25h90v247.5h-90V55.88H.08V303.76L0,315H281Zm-11.25,0H202.58V270h67.13Zm0-225.38V258.75H202.58V78.38ZM191.33,45V303.76H112.58V45Zm-180,225h90v33.76h-90Z"/><rect style="fill:#a1a1a4" x="0.08" y="33.38" width="11.25" height="11.25"/><path style="fill:#a1a1a4" d="M56.43,236.25a22.6,22.6,0,1,0-22.6-22.59,22.62,22.62,0,0,0,22.6,22.59Zm0-33.94a11.35,11.35,0,1,1-11.35,11.35,11.36,11.36,0,0,1,11.35-11.35Z"/><path style="fill:#a1a1a4" d="M78.83,22.5h-45V146.25h45ZM67.58,135H45.08V33.75h22.5Z"/><path style="fill:#a1a1a4" d="M168.46,168.38H135.08V292.14h33.38ZM157.21,280.89H146.33V179.63h10.88Z"/><path style="fill:#a1a1a4" d="M236,191.06a22.6,22.6,0,1,0,22.59,22.6A22.63,22.63,0,0,0,236,191.06ZM236,225a11.35,11.35,0,1,1,11.34-11.34A11.36,11.36,0,0,1,236,225Z"/><path style="fill:#a1a1a4" d="M258.46,89.63h-45v56.62h45ZM247.21,135h-22.5V100.88h22.5Z"/></g></g></svg>