<svg width="24" height="24" viewBox="0 0 24 24" fill="none" xmlns="http://www.w3.org/2000/svg">
<circle cx="12" cy="12" r="11" fill="white" stroke="#07559D" stroke-width="2"/>
<path d="M9.29289 15.2929C8.90237 15.6834 8.90237 16.3166 9.29289 16.7071C9.68342 17.0976 10.3166 17.0976 10.7071 16.7071L9.29289 15.2929ZM14 12L14.7071 12.7071L15.4142 12L14.7071 11.2929L14 12ZM10.7071 7.29289C10.3166 6.90237 9.68342 6.90237 9.29289 7.29289C8.90237 7.68342 8.90237 8.31658 9.29289 8.70711L10.7071 7.29289ZM10.7071 16.7071L14.7071 12.7071L13.2929 11.2929L9.29289 15.2929L10.7071 16.7071ZM14.7071 11.2929L10.7071 7.29289L9.29289 8.70711L13.2929 12.7071L14.7071 11.2929Z" fill="#07559D"/>
</svg>
