<svg width="40" height="40" viewBox="0 0 40 40" fill="none" xmlns="http://www.w3.org/2000/svg">
<path d="M30.8571 8.2392H35.3809V3.71547" stroke="#A1A1A4" stroke-width="1.5" stroke-miterlimit="10" stroke-linecap="round" stroke-linejoin="round"/>
<path d="M10.0476 14.5724V19.0962C10.0476 20.4632 12.4063 21.5951 15.4753 21.7833" stroke="#A1A1A4" stroke-width="1.5" stroke-miterlimit="10" stroke-linecap="round" stroke-linejoin="round"/>
<path d="M16.3809 12.7629C19.8787 12.7629 22.7142 11.5477 22.7142 10.0487C22.7142 8.54966 19.8787 7.33445 16.3809 7.33445C12.8831 7.33445 10.0476 8.54966 10.0476 10.0487C10.0476 11.5477 12.8831 12.7629 16.3809 12.7629Z" stroke="#A1A1A4" stroke-width="1.5" stroke-miterlimit="10" stroke-linecap="round" stroke-linejoin="round"/>
<path d="M22.7142 13.6677V10.0487" stroke="#A1A1A4" stroke-width="1.5" stroke-miterlimit="10" stroke-linecap="round" stroke-linejoin="round"/>
<path d="M10.0476 10.0487V14.5724C10.0476 15.9893 12.5827 17.1537 15.8155 17.2758" stroke="#A1A1A4" stroke-width="1.5" stroke-miterlimit="10" stroke-linecap="round" stroke-linejoin="round"/>
<path d="M2.70734 27.7211C1.59087 25.2711 1.00547 22.6364 1.00004 20.0009C0.990086 15.1279 2.89644 10.2514 6.62314 6.52381C10.2947 2.85235 15.1432 1.04828 20 1.00124C25.3073 0.94876 29.1933 2.57006 32.6666 5.52406C33.2819 6.047 35.3809 8.23921 35.3809 8.23921" stroke="#A1A1A4" stroke-width="1.5" stroke-miterlimit="10" stroke-linecap="round" stroke-linejoin="round"/>
<path d="M37.2926 12.2789C38.4091 14.7289 38.9945 17.3636 38.9999 19.9991C39.0098 24.8721 37.1035 29.7486 33.3768 33.4762C29.7062 37.1476 24.8567 38.9517 19.9999 38.9988C14.6926 39.0512 10.8067 37.4299 7.3333 34.4759C6.71806 33.953 4.61902 31.7608 4.61902 31.7608" stroke="#A1A1A4" stroke-width="1.5" stroke-miterlimit="10" stroke-linecap="round" stroke-linejoin="round"/>
<path d="M9.14282 31.7626H4.61902V36.2863" stroke="#A1A1A4" stroke-width="1.5" stroke-miterlimit="10" stroke-linecap="round" stroke-linejoin="round"/>
<path d="M24.5237 21.8104C28.0215 21.8104 30.8571 20.5952 30.8571 19.0962C30.8571 17.5971 28.0215 16.3819 24.5237 16.3819C21.026 16.3819 18.1904 17.5971 18.1904 19.0962C18.1904 20.5952 21.026 21.8104 24.5237 21.8104Z" stroke="#A1A1A4" stroke-width="1.5" stroke-miterlimit="10" stroke-linecap="round" stroke-linejoin="round"/>
<path d="M18.1904 19.0962V23.6199C18.1904 25.119 21.0259 26.3341 24.5237 26.3341C28.0215 26.3341 30.8571 25.119 30.8571 23.6199V19.0962" stroke="#A1A1A4" stroke-width="1.5" stroke-miterlimit="10" stroke-linecap="round" stroke-linejoin="round"/>
<path d="M30.8571 23.6199V28.1436C30.8571 29.6428 28.0215 30.8579 24.5237 30.8579C21.0259 30.8579 18.1904 29.6428 18.1904 28.1436V23.6199" stroke="#A1A1A4" stroke-width="1.5" stroke-miterlimit="10" stroke-linecap="round" stroke-linejoin="round"/>
<path d="M15.477 26.307C12.4072 26.1188 10.0476 24.9879 10.0476 23.6199V19.0962" stroke="#A1A1A4" stroke-width="1.5" stroke-miterlimit="10" stroke-linecap="round" stroke-linejoin="round"/>
</svg>
