<svg xmlns="http://www.w3.org/2000/svg" xmlns:xlink="http://www.w3.org/1999/xlink" viewBox="0 0 337.06 512"><defs><style>.cls-1{fill:none;stroke:#07559c;}.cls-2{clip-path:url(#clip-path);fill:#07559c;}.cls-3{fill-rule:evenodd;fill:#07559c;}</style><clipPath id="clip-path"><rect class="cls-1" width="338" height="512"/></clipPath></defs><g id="Слой_2" data-name="Слой 2"><g id="Слой_1-2" data-name="Слой 1"><g class="cls-2"><path class="cls-3" d="M337,100.15c0-.11,0-.22,0-.33a9.14,9.14,0,0,0-.16-1.28h0a9.25,9.25,0,0,0-.34-1.25l-.11-.3a8.81,8.81,0,0,0-.5-1.13l0-.06a8.54,8.54,0,0,0-.69-1.11l-.19-.26a11.88,11.88,0,0,0-.87-1L243.64,2.93a10.32,10.32,0,0,0-1-.87l-.27-.2a10.39,10.39,0,0,0-1.09-.68l-.08,0a11.23,11.23,0,0,0-1.12-.5l-.31-.1a10.89,10.89,0,0,0-1.24-.35h0A10.92,10.92,0,0,0,237.23,0h-.32l-.34,0H10A10,10,0,0,0,0,10V438a10,10,0,0,0,10,10H160.56v54a10,10,0,0,0,15.31,8.47L214,486.58,252,510.47A10,10,0,0,0,267.36,502V448h59.7a10,10,0,0,0,10-10V100.49c0-.11,0-.22,0-.34Zm-90.47-66,56.34,56.35H246.57ZM155.62,308.87c-.7-1.91-1.85-5-1.87-6.31.78-1,3.49-2.68,5.15-3.73,3.56-2.25,7.6-4.8,10.53-8.8s4.16-8.69,5.22-12.8a32.8,32.8,0,0,1,1.86-5.8,12.81,12.81,0,0,1,2.47-.18c1.12,0,2.36.07,3.68.13,1.52.08,3.08.15,4.72.15a28.32,28.32,0,0,0,9.14-1.28c4.6-1.53,8.29-4.5,11.54-7.11,1.8-1.45,4.8-3.87,5.85-4,1.14.15,4.15,2.57,6,4,3.24,2.61,6.93,5.58,11.54,7.11a28.28,28.28,0,0,0,9.14,1.28c1.63,0,3.2-.07,4.71-.15,1.32-.06,2.57-.13,3.68-.13a12.12,12.12,0,0,1,2.48.18,32,32,0,0,1,1.85,5.8c1.06,4.11,2.27,8.77,5.23,12.8s7,6.55,10.53,8.8c1.66,1.05,4.37,2.76,5.15,3.73,0,1.28-1.17,4.4-1.87,6.31-1.49,4.05-3.17,8.65-3.17,13.73s1.68,9.69,3.16,13.74c.71,1.91,1.85,5,1.88,6.31-.78,1-3.49,2.68-5.15,3.73-3.57,2.25-7.61,4.81-10.53,8.8s-4.17,8.69-5.23,12.8a32,32,0,0,1-1.85,5.8,13,13,0,0,1-2.48.18c-1.11,0-2.36-.06-3.68-.13-1.51-.07-3.08-.15-4.71-.15A28.56,28.56,0,0,0,231.4,375c-4.61,1.54-8.3,4.5-11.54,7.12-1.77,1.43-4.73,3.8-5.9,4-1.18-.21-4.13-2.58-5.9-4-3.25-2.62-6.94-5.58-11.54-7.12a28.6,28.6,0,0,0-9.14-1.28c-1.63,0-3.2.08-4.72.15-1.31.07-2.56.13-3.68.13a12.81,12.81,0,0,1-2.47-.18,32.8,32.8,0,0,1-1.86-5.8c-1.06-4.11-2.26-8.77-5.22-12.8s-7-6.55-10.53-8.8c-1.66-1-4.37-2.76-5.15-3.73,0-1.27,1.17-4.4,1.87-6.31,1.49-4,3.17-8.64,3.17-13.73s-1.69-9.69-3.17-13.74Zm91.74,175.05L219.27,466.3a10,10,0,0,0-10.63,0l-28.09,17.62v-90q1.6,0,3.12-.12c1.33-.07,2.58-.13,3.71-.13a9.71,9.71,0,0,1,2.82.26c1.19.4,3.48,2.24,5.32,3.72,4.67,3.76,10.48,8.43,18.44,8.43s13.77-4.67,18.43-8.43c1.84-1.48,4.13-3.32,5.32-3.72a9.87,9.87,0,0,1,2.83-.26c1.13,0,2.38.06,3.7.13,1,.05,2.06.09,3.12.12v90Zm20-55.9V385.87c3-4,4.21-8.82,5.27-12.88.55-2.14,1.3-5.05,2-6s3.22-2.54,5.08-3.71c4.92-3.11,11.05-7,13.48-14.3s-.1-14.05-2.11-19.53c-.91-2.49-1.95-5.32-1.95-6.86s1-4.35,1.95-6.84c2-5.49,4.52-12.32,2.11-19.54S284.62,285,279.7,281.93c-1.86-1.18-4.4-2.79-5.08-3.72s-1.44-3.85-2-6c-1.44-5.57-3.23-12.5-9.36-17-4.87-3.57-10.52-4-14.34-4-1.62,0-3.18.08-4.69.16-1.32.07-2.57.13-3.7.13a10.13,10.13,0,0,1-2.82-.26c-1.19-.4-3.48-2.24-5.32-3.73-4.67-3.75-10.48-8.43-18.44-8.43s-13.77,4.68-18.44,8.43c-1.84,1.48-4.13,3.33-5.32,3.73a10.13,10.13,0,0,1-2.82.26c-1.13,0-2.38-.06-3.71-.13-1.51-.08-3.06-.16-4.69-.16-3.82,0-9.46.42-14.33,4-6.13,4.49-7.92,11.42-9.36,17-.55,2.13-1.31,5-2,6s-3.23,2.54-5.09,3.72c-4.92,3.1-11,7-13.48,14.29s.1,14,2.11,19.54c.92,2.49,1.95,5.31,1.95,6.84s-1,4.37-1.95,6.86c-2,5.48-4.51,12.31-2.11,19.53s8.57,11.19,13.48,14.3c1.86,1.17,4.4,2.78,5.09,3.71s1.44,3.85,2,6c1.05,4.06,2.3,8.85,5.27,12.88V428H20V20H226.57v80.49a10,10,0,0,0,10,10h80.49V428Z"/></g><path class="cls-3" d="M58.86,110.49H187.7a10,10,0,0,0,0-20H58.86a10,10,0,0,0,0,20Z"/><path class="cls-3" d="M279.31,141H58.86a10,10,0,1,0,0,20H279.31a10,10,0,0,0,0-20Z"/><path class="cls-3" d="M239.31,191.45H58.86a10,10,0,1,0,0,20H239.31a10,10,0,1,0,0-20Z"/><path class="cls-3" d="M279.31,191.45a10,10,0,1,0,10,10,10,10,0,0,0-10-10Z"/></g></g></svg>