<svg xmlns="http://www.w3.org/2000/svg" viewBox="0 0 242.65 204.69"><g id="Слой_2" data-name="Слой 2"><g id="Capa_1" data-name="Capa 1"><polygon style="fill:#07559c" points="26.9 143.24 26.9 143.22 26.89 143.24 26.9 143.24"/><path style="fill:#07559c" d="M242.64,124.9a7.77,7.77,0,0,0-7.76-8.09H232l-21.78-52V62.2l2,0c1,0,2.07,0,3.1-.07a5.5,5.5,0,0,0-.28-11h-.22c-.84,0-1.7.05-2.56.06l-2,0V46.3a5.5,5.5,0,0,0-11,0v4l-2.4-.48c-15.68-3.13-23.43-9-30.27-14.16-6.49-4.91-11.62-8.79-22.05-8.79h-2.75l-.46-1.34a21.62,21.62,0,0,0-13.4-13.31l-1.36-.46V5.5a5.5,5.5,0,0,0-11,0v6.21l-1.35.46a21.59,21.59,0,0,0-13.4,13.31l-.39,1.13-1.18.19a4.84,4.84,0,0,1-.88,0,31.13,31.13,0,0,0-21,7.33,71.42,71.42,0,0,1-31.53,15.5l-2.41.5V46.31a5.5,5.5,0,0,0-11,0v4.85l-1.95.05a5.5,5.5,0,0,0,0,11l1.95,0v2.6l-21.7,51.77-1.09.18a5.18,5.18,0,0,1-.88,0,8.1,8.1,0,0,0-6.58,2.39C-.74,122.26-.17,126,.71,131.71a23.82,23.82,0,0,0,13.43,17.55,22.17,22.17,0,0,1,3.58,2.3c2.55,1.87,5,3.64,9.28,3.64H48.85a13.69,13.69,0,0,0,8.3-2.91,19.72,19.72,0,0,1,4.69-3.09c8.89-4.25,13.46-12.19,14-24.3a7.88,7.88,0,0,0-2.21-5.75,7.79,7.79,0,0,0-5.55-2.33H65.21l-21.78-52V61.25L45.09,61a84,84,0,0,0,39.4-18.42,20.64,20.64,0,0,1,14-4.72h.19l1.64-.26.43,1.69A21.55,21.55,0,0,0,114.2,52.76l1.36.46v81.23l-1.87.13a20.3,20.3,0,0,0-17.51,27.64l.81,2.06-2.13.6a20.29,20.29,0,0,0,5.53,39.81h42a20.29,20.29,0,0,0,5-40l-2.18-.55.81-2.1a20.31,20.31,0,0,0-17.58-27.5l-1.86-.13V53.22l1.36-.46A21.6,21.6,0,0,0,141.4,39.19l.53-1.6,1.58.24h.18a20.36,20.36,0,0,1,13.84,4.71,83.85,83.85,0,0,0,40,18.53l1.67.28v3.49l-21.69,51.78-1.1.17a4.22,4.22,0,0,1-.88,0,8.21,8.21,0,0,0-6.58,2.39,8,8,0,0,0-2.14,4.92V125c0,11.27,5,19.89,14.1,24.28a23.89,23.89,0,0,1,3.66,2.34c2.54,1.86,4.92,3.6,9.21,3.6h21.84c4.11,0,6.23-1.5,8.91-3.4a33.76,33.76,0,0,1,4.1-2.61C237.75,144.85,242.17,137.14,242.64,124.9Zm-178.4,5.31c-1.12,5.56-4.53,7.51-8.14,9.58a36.75,36.75,0,0,0-5.9,4L48.68,145,48,144.2c-6,0-10.36,0-13.24.06a60.61,60.61,0,0,1-7.71-.14l-.4.46-1.05-.91a6,6,0,0,1-1.32-1c-.67-.63-1.8-1.66-5.47-3.4a12.86,12.86,0,0,1-7.15-9.06l-.48-2.39H64.72Zm-11-13.4H22.58L37.93,80.18Zm89.1,58.3a9.29,9.29,0,0,1,0,18.58h-42a9.29,9.29,0,0,1,0-18.58Zm-15.32-29.58a9.29,9.29,0,1,1,0,18.58h-12a9.29,9.29,0,1,1,0-18.58Zm-6-102.64a10.43,10.43,0,1,1,10.43-10.43A10.43,10.43,0,0,1,121.06,42.89Zm83.69,37.28,15.35,36.64H189.39Zm18,59.78a34.73,34.73,0,0,0-5.6,3.72l-.57.64-1.46-.11c-5.76,0-9.94,0-13,.07h-.37c-3.34,0-5.33.06-6.7,0l-.76.93-.83-.64,0,0L192,143.38a10.78,10.78,0,0,1-1.17-.85,24.47,24.47,0,0,0-3.2-2.2L187,140c-3.46-1.86-7.38-4-8.55-9.79l-.48-2.39h53.58l-.49,2.39C229.92,135.84,226.42,137.84,222.72,140Z"/></g></g></svg>