<?xml version="1.0" encoding="utf-8"?>
<!-- Generator: Adobe Illustrator 21.1.0, SVG Export Plug-In . SVG Version: 6.00 Build 0)  -->
<svg version="1.1" id="Слой_1" xmlns="http://www.w3.org/2000/svg" xmlns:xlink="http://www.w3.org/1999/xlink" x="0px" y="0px"
	 viewBox="0 0 300 300" style="enable-background:new 0 0 300 300;" xml:space="preserve">
<style type="text/css">
	.st0{fill:#FFFFFF;}
</style>
<path class="st0" d="M-197.5,133.5h-78.4V54.1h78.4V133.5z M-248.7,99.7h6.7v6.7c0,3,2.4,5.5,5.5,5.5s5.5-2.4,5.5-5.5v-6.7h6.7
	c3,0,5.5-2.4,5.5-5.5s-2.4-5.5-5.5-5.5h-6.7v-6.7c0-3-2.4-5.5-5.5-5.5s-5.5,2.4-5.5,5.5v6.7h-6.7c-3,0-5.5,2.4-5.5,5.5
	S-251.7,99.7-248.7,99.7z"/>
<path class="st0" d="M-197.5,225.9h-78.4v-79.6h78.4V225.9z M-248.2,189h24.3c3,0,5.5-2.4,5.5-5.5c0-3-2.4-5.5-5.5-5.5h-24.3
	c-3,0-5.5,2.4-5.5,5.5C-253.7,186.6-251.2,189-248.2,189z"/>
<path class="st0" d="M-104.1,225.9h-80.6V54.1h80.6V225.9z M-157.1,135.9h24.3c3,0,5.5-2.4,5.5-5.5c0-3-2.4-5.5-5.5-5.5h-24.3
	c-3,0-5.5,2.4-5.5,5.5C-162.5,133.5-160.1,135.9-157.1,135.9z M-157.1,155h24.3c3,0,5.5-2.4,5.5-5.5s-2.4-5.5-5.5-5.5h-24.3
	c-3,0-5.5,2.4-5.5,5.5S-160.1,155-157.1,155z"/>
</svg>
