<svg width="58" height="66" viewBox="0 0 58 66" fill="none" xmlns="http://www.w3.org/2000/svg">
<path d="M20.9 37.4043V42.8511H19.55L15.5 46.9362L8.73785 50.1471C5.0942 51.1003 2.06885 53.7774 2 56.4681V66" stroke="#B9120C" stroke-width="4" stroke-miterlimit="10"/>
<path d="M42.4969 14.2553V16.9787L45.1969 18.3404V23.6919C45.1969 24.6029 44.746 25.4526 43.994 25.9578L42.4969 27.8723C42.4969 27.8723 42.4969 30.0075 42.4969 30.5957C42.4969 35.8723 35.5781 38.1709 34.3969 38.766C33.2156 39.361 31.1906 40.1277 28.9969 40.1277C26.8031 40.1277 24.7781 39.361 23.5969 38.766C22.4156 38.1709 15.4969 35.8723 15.4969 30.5957C15.4969 29.9626 15.4969 27.8723 15.4969 27.8723L13.9997 25.9578C13.2478 25.4526 12.7969 24.6029 12.7969 23.6919V18.3404L15.4969 16.9787V14.2553C15.4969 7.4863 20.936 2 27.6469 2H30.3469C37.0577 2 42.4969 7.4863 42.4969 14.2553Z" stroke="#B9120C" stroke-width="4" stroke-miterlimit="10"/>
<path d="M20.8984 42.8511L28.9984 49.6596" stroke="#B9120C" stroke-width="4" stroke-miterlimit="10"/>
<path d="M29 49.6596L22.25 55.1064L15.5 46.9362" stroke="#B9120C" stroke-width="4" stroke-miterlimit="10"/>
<path d="M37.1016 37.4043V42.8511H38.4516L42.5016 46.9362L49.2637 50.1471C52.9074 51.1003 55.9327 53.7774 56.0016 56.4681V66" stroke="#B9120C" stroke-width="4" stroke-miterlimit="10"/>
<path d="M37.1 42.8511L29 49.6596" stroke="#B9120C" stroke-width="4" stroke-miterlimit="10"/>
<path d="M29 49.6596L35.75 55.1064L42.5 46.9362" stroke="#B9120C" stroke-width="4" stroke-miterlimit="10"/>
<path d="M33.0531 52.383L31.7031 59.1915H26.3031L24.9531 52.383" stroke="#B9120C" stroke-width="4" stroke-miterlimit="10"/>
<path d="M33.0531 64.6383L31.7031 59.1915H26.3031L24.9531 64.6383" stroke="#B9120C" stroke-width="4" stroke-miterlimit="10"/>
</svg>
