<svg width="66" height="66" viewBox="0 0 66 60" fill="none" xmlns="http://www.w3.org/2000/svg">
<path d="M65 16L33 2L1 16" stroke="#B9120C" stroke-width="3" stroke-miterlimit="10"/>
<path d="M63.608 21.6H2.39062" stroke="#B9120C" stroke-width="3" stroke-miterlimit="10"/>
<path d="M12.1291 48.2V27.2H3.78125V53.8" stroke="#B9120C" stroke-width="3" stroke-miterlimit="10"/>
<path d="M9.35156 52.4H56.6559" stroke="#B9120C" stroke-width="3" stroke-miterlimit="10"/>
<path d="M2.39062 58H63.608" stroke="#B9120C" stroke-width="3" stroke-miterlimit="10"/>
<path d="M32.9942 17.4C35.2994 17.4 37.1681 15.5196 37.1681 13.2C37.1681 10.8804 35.2994 9 32.9942 9C30.689 9 28.8203 10.8804 28.8203 13.2C28.8203 15.5196 30.689 17.4 32.9942 17.4Z" stroke="#B9120C" stroke-width="3" stroke-miterlimit="10"/>
<path d="M3.78125 34.2H7.95516" stroke="#B9120C" stroke-width="3" stroke-miterlimit="10"/>
<path d="M3.78125 41.2H7.95516" stroke="#B9120C" stroke-width="3" stroke-miterlimit="10"/>
<path d="M3.78125 48.2H7.95516" stroke="#B9120C" stroke-width="3" stroke-miterlimit="10"/>
<path d="M53.8672 48.2V27.2H62.215V53.8" stroke="#B9120C" stroke-width="3" stroke-miterlimit="10"/>
<path d="M62.2208 34.2H58.0469" stroke="#B9120C" stroke-width="3" stroke-miterlimit="10"/>
<path d="M62.2208 41.2H58.0469" stroke="#B9120C" stroke-width="3" stroke-miterlimit="10"/>
<path d="M62.2208 48.2H58.0469" stroke="#B9120C" stroke-width="3" stroke-miterlimit="10"/>
<path d="M17.6953 48.2V30C17.6953 28.4544 18.9419 27.2 20.4779 27.2C22.0139 27.2 23.2605 28.4544 23.2605 30V48.2" stroke="#B9120C" stroke-width="3" stroke-miterlimit="10"/>
<path d="M30.2188 48.2V30C30.2188 28.4544 31.4654 27.2 33.0014 27.2C34.5374 27.2 35.784 28.4544 35.784 30V48.2" stroke="#B9120C" stroke-width="3" stroke-miterlimit="10"/>
<path d="M42.7344 48.2V30C42.7344 28.4544 43.981 27.2 45.517 27.2C47.053 27.2 48.2996 28.4544 48.2996 30V48.2" stroke="#B9120C" stroke-width="3" stroke-miterlimit="10"/>
</svg>
