<svg width="56" height="68" viewBox="0 0 56 68" fill="none" xmlns="http://www.w3.org/2000/svg">
<path d="M2 15.8486L9.77783 29.6643V38.0838L2.01281 51.8613L2 15.8486Z" fill="white" stroke="#07559D"/>
<path d="M31.832 24.6381L39.1101 20.1987L53.9995 20.1859L31.832 33.6955V24.6381Z" fill="#D3E5F3" stroke="#07559D"/>
<path d="M31.7913 15.772L31.8297 34.0526L24.0391 29.2943V1.96906L31.7913 15.772Z" fill="white" stroke="#07559D"/>
<path d="M53.9972 20.1859L39.1078 20.1986L31.7913 15.772L24.0391 1.96906L53.9972 20.1859Z" fill="white" stroke="#07559D"/>
<path d="M31.8297 51.9378V43.0717L24.0391 38.4027V65.7535L31.8297 51.9378Z" fill="white" stroke="#07559D"/>
<path d="M39.0952 47.5494L9.77783 29.6643L2 15.8486L53.9718 47.5239L39.0952 47.5494Z" fill="#D3E5F3" stroke="#07559D"/>
<path d="M24.0391 65.7535L31.8297 51.9378L39.095 47.5494L53.9715 47.5239L24.0391 65.7535Z" fill="white" stroke="#07559D"/>
<path d="M2.01172 51.8612L24.1023 38.4027L16.6704 33.874L9.77673 38.0838L2.01172 51.8612Z" fill="#D3E5F3" stroke="#07559D"/>
</svg>
