<svg width="29" height="34" viewBox="0 0 29 34" fill="none" xmlns="http://www.w3.org/2000/svg">
<path d="M14.1758 20.3244L15.3804 19.6385C15.7598 19.4222 16.4909 19.3262 16.9264 19.5578L18.131 18.8726C18.696 18.5512 19.6348 18.7161 20.0183 19.3971L21.2229 18.7112C21.7879 18.3898 22.726 18.5547 23.1102 19.2357L26.6618 25.5353C27.3521 26.7603 26.5642 28.1856 27.0239 29.0002L27.9966 30.9117" stroke="#07559D" stroke-width="2" stroke-miterlimit="10" stroke-linecap="round" stroke-linejoin="round"/>
<path d="M15.5406 22.7458L12.1281 16.6932C11.7515 16.0247 10.9061 15.7896 10.2408 16.1687C9.5755 16.5478 9.3415 17.3965 9.71881 18.065L14.4958 26.5391C14.3054 27.179 13.5813 27.4851 12.9928 27.1756L11.172 26.2177C9.45573 25.4323 8.40202 27.0211 8.73226 27.6068C8.73226 27.6068 12.979 30.8568 13.4726 31.1197C14.266 31.542 17.3205 32.4825 17.612 33" stroke="#07559D" stroke-width="2" stroke-miterlimit="10" stroke-linecap="round" stroke-linejoin="round"/>
<path d="M16.9258 19.5585L18.2903 21.9793" stroke="#07559D" stroke-width="2" stroke-miterlimit="10" stroke-linecap="round" stroke-linejoin="round"/>
<path d="M20.0195 19.3978L21.0435 21.2134" stroke="#07559D" stroke-width="2" stroke-miterlimit="10" stroke-linecap="round" stroke-linejoin="round"/>
<path d="M7.23091 19.0862H2.38465C1.62032 19.0862 1 18.4629 1 17.6949V2.77802" stroke="#07559D" stroke-width="2" stroke-miterlimit="10" stroke-linecap="round" stroke-linejoin="round"/>
<path d="M23.8477 14.9124V16.9993" stroke="#07559D" stroke-width="2" stroke-miterlimit="10" stroke-linecap="round" stroke-linejoin="round"/>
<path d="M23.846 8.65186C23.846 8.65186 23.846 9.34748 23.1537 9.34748H18.9998C17.4704 9.34748 16.2305 10.5933 16.2305 12.13C16.2305 13.6666 17.4704 14.9125 18.9998 14.9125H23.846C24.6103 14.9125 25.2307 14.2892 25.2307 13.5212V10.0431C25.2307 9.48521 25.2307 8.65186 23.846 8.65186Z" stroke="#07559D" stroke-width="2" stroke-miterlimit="10" stroke-linecap="round" stroke-linejoin="round"/>
<path d="M19 12.1299H19.6923" stroke="#07559D" stroke-width="2" stroke-miterlimit="10" stroke-linecap="round" stroke-linejoin="round"/>
<path d="M21.0774 4.47811V1H15.518H4.11545H2.73081C1.77471 1 1 1.7784 1 2.73905M4.46161 4.47811H23.8467V8.65184L4.46161 4.47811Z" stroke="#07559D" stroke-width="2" stroke-miterlimit="10" stroke-linecap="round" stroke-linejoin="round"/>
</svg>
