<svg width="50" height="41" viewBox="0 0 50 41" fill="none" xmlns="http://www.w3.org/2000/svg">
<path d="M49 12.8705V37.6572C49 38.9512 47.948 40 46.6505 40H3.34951C2.05199 40 1 38.9512 1 37.6572V12.8705" stroke="#07559D" stroke-miterlimit="10" stroke-linecap="round" stroke-linejoin="round"/>
<path d="M9.22302 5.3855C9.11148 5.64639 9.04688 5.93212 9.04688 6.23462C9.04688 7.46025 10.0427 8.45298 11.2712 8.45298C12.4997 8.45298 13.4955 7.46025 13.4955 6.23462C13.4955 5.93212 13.4305 5.64639 13.3194 5.3855" stroke="#07559D" stroke-miterlimit="10" stroke-linecap="round" stroke-linejoin="round"/>
<path d="M11.2734 6.19581V1" stroke="#07559D" stroke-miterlimit="10" stroke-linecap="round" stroke-linejoin="round"/>
<path d="M40.7804 5.3855C40.8915 5.64639 40.9565 5.93212 40.9565 6.23462C40.9565 7.46025 39.9607 8.45298 38.7321 8.45298C37.5036 8.45298 36.5078 7.46025 36.5078 6.23462C36.5078 5.93212 36.5724 5.64639 36.684 5.3855" stroke="#07559D" stroke-miterlimit="10" stroke-linecap="round" stroke-linejoin="round"/>
<path d="M38.7266 6.19581V1" stroke="#07559D" stroke-miterlimit="10" stroke-linecap="round" stroke-linejoin="round"/>
<path d="M36.2699 2.44012H13.7266" stroke="#07559D" stroke-miterlimit="10" stroke-linecap="round" stroke-linejoin="round"/>
<path d="M8.81122 2.44012H3.34951C2.05199 2.44012 1 3.48927 1 4.78333V12.8706H49V4.78333C49 3.48927 47.948 2.44012 46.6505 2.44012H41.1887" stroke="#07559D" stroke-miterlimit="10" stroke-linecap="round" stroke-linejoin="round"/>
<path d="M14.6016 18.0079V22.8728" stroke="#07559D" stroke-miterlimit="10" stroke-linecap="round" stroke-linejoin="round"/>
<path d="M21.5312 18.0079V22.8728" stroke="#07559D" stroke-miterlimit="10" stroke-linecap="round" stroke-linejoin="round"/>
<path d="M28.4688 18.0079V22.8728" stroke="#07559D" stroke-miterlimit="10" stroke-linecap="round" stroke-linejoin="round"/>
<path d="M35.3984 18.0079V22.8728" stroke="#07559D" stroke-miterlimit="10" stroke-linecap="round" stroke-linejoin="round"/>
<path d="M14.6016 29.9173V34.7826" stroke="#07559D" stroke-miterlimit="10" stroke-linecap="round" stroke-linejoin="round"/>
<path d="M21.5312 29.9173V34.7826" stroke="#07559D" stroke-miterlimit="10" stroke-linecap="round" stroke-linejoin="round"/>
<path d="M28.4688 29.9173V34.7826" stroke="#07559D" stroke-miterlimit="10" stroke-linecap="round" stroke-linejoin="round"/>
<path d="M35.3984 29.9173V34.7826" stroke="#07559D" stroke-miterlimit="10" stroke-linecap="round" stroke-linejoin="round"/>
<path d="M10.6875 26.4353H39.3049" stroke="#07559D" stroke-miterlimit="10" stroke-linecap="round" stroke-linejoin="round"/>
<path d="M33.2756 6.41266H16.7188" stroke="#07559D" stroke-miterlimit="10" stroke-linecap="round" stroke-linejoin="round"/>
<path d="M9.73418 37.5996C7.83524 34.775 6.66932 31.4559 6.48115 28.0587C6.38727 26.3681 6.52087 24.6715 6.4322 22.9809C6.34353 21.2903 6.01374 19.5621 5.08614 18.144C4.63678 17.4569 4.05822 16.8715 3.40625 16.3726V37.5996H9.73418Z" fill="#D3E5F3"/>
</svg>
