<svg width="49" height="46" viewBox="0 0 49 46" fill="none" xmlns="http://www.w3.org/2000/svg">
<path d="M21.1309 41.9332C18.2785 41.9332 15.511 41.3788 12.9057 40.2853C11.6535 39.7599 10.4458 39.1094 9.31614 38.3522C8.1973 37.602 7.14524 36.7409 6.18909 35.7922C5.23303 34.8435 4.36501 33.7997 3.60921 32.6896C2.84594 31.5687 2.19057 30.3704 1.6608 29.128C0.558782 26.5428 0 23.797 0 20.9666C0 18.1364 0.558782 15.3905 1.6608 12.8053C2.19057 11.5628 2.84594 10.3646 3.60921 9.2436C4.36511 8.13346 5.23313 7.08958 6.18909 6.14096C7.14524 5.19234 8.1973 4.33107 9.31614 3.58105C10.4458 2.82381 11.6535 2.17343 12.9057 1.64778C15.511 0.55433 18.2785 0 21.1309 0C23.9833 0 26.7507 0.554428 29.3561 1.64778C30.6083 2.17333 31.816 2.82371 32.9457 3.58105C34.0644 4.33107 35.1166 5.19234 36.0726 6.14096C37.0288 7.08958 37.8967 8.13356 38.6525 9.2436C39.4158 10.3645 40.0712 11.5628 40.6009 12.8053C41.7029 15.3904 42.2617 18.1364 42.2617 20.9666C42.2617 21.2246 42.0509 21.4336 41.7911 21.4336C41.5312 21.4336 41.3205 21.2246 41.3205 20.9666C41.3205 9.92062 32.2635 0.933978 21.1309 0.933978C9.99826 0.933978 0.941207 9.92062 0.941207 20.9666C0.941207 32.0127 9.99826 40.9992 21.1309 40.9992C21.3909 40.9992 21.6015 41.2084 21.6015 41.4662C21.6015 41.7241 21.3908 41.9332 21.1309 41.9332Z" fill="#07559D"/>
<path d="M41.7898 21.9752C41.6693 21.9752 41.549 21.9297 41.457 21.8385L35.9191 16.3437C35.7353 16.1613 35.7353 15.8657 35.9191 15.6833C36.1029 15.501 36.4008 15.501 36.5848 15.6833L41.7898 20.8479L46.9948 15.6833C47.1787 15.501 47.4766 15.501 47.6605 15.6833C47.8443 15.8657 47.8443 16.1613 47.6605 16.3437L42.1226 21.8385C42.0307 21.9297 41.9102 21.9752 41.7898 21.9752Z" fill="#07559D"/>
<path d="M22.3248 2.74835H19.9375V7.24133H22.3248V2.74835Z" fill="#D3E5F3"/>
<path d="M22.3248 34.5797H19.9375V39.0726H22.3248V34.5797Z" fill="#D3E5F3"/>
<path d="M39.4344 19.7261H34.9062V22.0948H39.4344V19.7261Z" fill="#D3E5F3"/>
<path d="M7.35631 19.7261H2.82812V22.0948H7.35631V19.7261Z" fill="#D3E5F3"/>
<path d="M13.0127 4.58206L10.9453 5.76642L13.2093 9.65724L15.2767 8.47288L13.0127 4.58206Z" fill="#D3E5F3"/>
<path d="M5.87328 10.802L4.67969 12.8532L8.60101 15.0997L9.7946 13.0484L5.87328 10.802Z" fill="#D3E5F3"/>
<path d="M4.68141 28.9701L5.875 31.0214L9.79641 28.7749L8.60281 26.7236L4.68141 28.9701Z" fill="#D3E5F3"/>
<path d="M32.4627 13.0545L33.6562 15.1058L37.5777 12.8593L36.3841 10.8081L32.4627 13.0545Z" fill="#D3E5F3"/>
<path d="M10.9483 36.0514L13.0156 37.2357L15.2797 33.3448L13.2124 32.1605L10.9483 36.0514Z" fill="#D3E5F3"/>
<path d="M26.9874 8.48396L29.0547 9.66827L31.3188 5.77736L29.2515 4.59304L26.9874 8.48396Z" fill="#D3E5F3"/>
<path d="M21.1351 22.8217C20.1043 22.8217 19.2656 21.9895 19.2656 20.9667C19.2656 19.9439 20.1042 19.1117 21.1351 19.1117C22.1661 19.1117 23.0047 19.9439 23.0047 20.9667C23.0046 21.9895 22.166 22.8217 21.1351 22.8217ZM21.1351 20.0456C20.6233 20.0456 20.2068 20.4588 20.2068 20.9667C20.2068 21.4746 20.6232 21.8878 21.1351 21.8878C21.6469 21.8878 22.0634 21.4747 22.0634 20.9667C22.0633 20.4588 21.6469 20.0456 21.1351 20.0456Z" fill="#07559D"/>
<path d="M21.1269 20.0457C20.8669 20.0457 20.6562 19.8365 20.6562 19.5787V8.45557C20.6562 8.19763 20.867 7.98859 21.1269 7.98859C21.3868 7.98859 21.5975 8.19763 21.5975 8.45557V19.5787C21.5975 19.8365 21.3868 20.0457 21.1269 20.0457Z" fill="#07559D"/>
<path d="M19.7403 21.4337H12.2363C11.9763 21.4337 11.7656 21.2246 11.7656 20.9667C11.7656 20.7088 11.9764 20.4997 12.2363 20.4997H19.7403C20.0003 20.4997 20.211 20.7088 20.211 20.9667C20.211 21.2245 20.0002 21.4337 19.7403 21.4337Z" fill="#07559D"/>
<path d="M33.5451 45.0031H21.9159C21.656 45.0031 21.4453 44.794 21.4453 44.5361C21.4453 44.0057 21.549 43.4883 21.7536 42.9983C21.9582 42.5083 22.2535 42.0697 22.6315 41.6946L31.527 32.8685C32.5261 31.8717 33.076 30.5475 33.0747 29.1401C33.0731 27.7069 32.507 26.3682 31.4805 25.3707C30.4533 24.3724 29.0918 23.8386 27.6457 23.8666C24.7706 23.9229 22.4315 26.2912 22.4315 29.1457C22.4315 29.4036 22.2207 29.6127 21.9608 29.6127C21.7009 29.6127 21.4902 29.4035 21.4902 29.1457C21.4902 27.5078 22.127 25.9619 23.2833 24.793C24.438 23.6256 25.9807 22.9651 27.627 22.9327C28.4856 22.9159 29.3204 23.0676 30.1078 23.3833C30.8681 23.6883 31.5516 24.1324 32.1391 24.7034C32.7263 25.274 33.1877 25.9422 33.5105 26.6895C33.8448 27.4634 34.0149 28.2875 34.0158 29.1392C34.0175 30.7953 33.3702 32.3538 32.1934 33.528L23.2971 42.3551C22.8224 42.8261 22.5202 43.4226 22.4218 44.0691H33.5453C33.8053 44.0691 34.0159 44.2783 34.0159 44.5361C34.0159 44.794 33.8051 45.0031 33.5451 45.0031Z" fill="#07559D"/>
<path d="M47.5349 39.4882H34.7675C34.598 39.4882 34.4416 39.3978 34.3581 39.2516C34.2745 39.1053 34.2767 38.9257 34.3637 38.7816L43.7837 23.159C43.9171 22.9376 44.2062 22.8655 44.4292 22.998C44.6523 23.1304 44.7249 23.4171 44.5914 23.6385L35.5975 38.5545H47.5349C47.7948 38.5545 48.0054 38.7635 48.0054 39.0214C48.0055 39.279 47.7948 39.4882 47.5349 39.4882Z" fill="#07559D"/>
<path d="M45.5722 45.0032C45.3121 45.0032 45.1016 44.7941 45.1016 44.5362V36.3905C45.1016 36.1325 45.3122 35.9235 45.5722 35.9235C45.8321 35.9235 46.0428 36.1326 46.0428 36.3905V44.5362C46.0428 44.7942 45.832 45.0032 45.5722 45.0032Z" fill="#07559D"/>
</svg>
