<svg width="50" height="50" viewBox="0 0 50 50" fill="none" xmlns="http://www.w3.org/2000/svg">
<path d="M33.8516 18.9952L39.3807 8.92896" stroke="#07559D" stroke-miterlimit="10" stroke-linecap="round" stroke-linejoin="round"/>
<path d="M40.446 18.9952C39.4573 18.9952 38.6562 18.1938 38.6562 17.2055V15.966C38.6562 14.9777 39.4577 14.1763 40.446 14.1763C41.4344 14.1763 42.2358 14.9777 42.2358 15.966V17.2055C42.2362 18.1938 41.4344 18.9952 40.446 18.9952Z" stroke="#07559D" stroke-miterlimit="10" stroke-linecap="round" stroke-linejoin="round"/>
<path d="M32.9226 13.7483C31.9342 13.7483 31.1328 12.9469 31.1328 11.9585V10.7191C31.1328 9.73073 31.9342 8.92932 32.9226 8.92932C33.9109 8.92932 34.7123 9.73073 34.7123 10.7191V11.9585C34.7123 12.9473 33.9109 13.7483 32.9226 13.7483Z" stroke="#07559D" stroke-miterlimit="10" stroke-linecap="round" stroke-linejoin="round"/>
<path d="M23.2502 5.29883C11.1171 5.29883 1.28125 15.1346 1.28125 27.2678C1.28125 39.4009 11.1171 49.2367 23.2502 49.2367C35.3834 49.2367 45.2192 39.4009 45.2192 27.2678H23.2502V5.29883Z" stroke="#07559D" stroke-miterlimit="10" stroke-linecap="round" stroke-linejoin="round"/>
<path d="M27.3125 1.23584V23.2048H49.2815C49.2815 11.0716 39.4457 1.23584 27.3125 1.23584Z" stroke="#07559D" stroke-miterlimit="10" stroke-linecap="round" stroke-linejoin="round"/>
<path d="M20.8787 19.3245C17.4569 20.3462 14.9609 23.5138 14.9609 27.2679C14.9609 31.8479 18.6738 35.5607 23.2538 35.5607C27.0078 35.5607 30.1754 33.0647 31.1972 29.643" stroke="#07559D" stroke-miterlimit="10" stroke-linecap="round" stroke-linejoin="round"/>
<path d="M37.0674 30.6907C35.5302 36.893 29.9195 41.5048 23.249 41.5048C15.3985 41.5048 9.01164 35.118 9.01164 27.2674C9.01164 20.7317 13.44 15.2144 19.4526 13.5486V11.1428C12.1407 12.8641 6.67969 19.4379 6.67969 27.2678C6.67969 36.404 14.1128 43.8371 23.249 43.8371C31.2118 43.8371 37.8785 38.1899 39.4604 30.6911H37.0674V30.6907Z" fill="#D3E5F3"/>
</svg>
