<svg width="48" height="50" viewBox="0 0 48 50" fill="none" xmlns="http://www.w3.org/2000/svg">
<path d="M47.4949 25.3065H23.5781V49.017H47.4949V25.3065Z" stroke="#07559D" stroke-miterlimit="10" stroke-linecap="round" stroke-linejoin="round"/>
<path d="M39.4844 31.3303H44.0221" stroke="#07559D" stroke-miterlimit="10" stroke-linecap="round" stroke-linejoin="round"/>
<path d="M27.0391 31.3303H31.5772" stroke="#07559D" stroke-miterlimit="10" stroke-linecap="round" stroke-linejoin="round"/>
<path d="M29.3125 29.0811V33.5796" stroke="#07559D" stroke-miterlimit="10" stroke-linecap="round" stroke-linejoin="round"/>
<path d="M27.7109 41.9173L30.9194 45.0985" stroke="#07559D" stroke-miterlimit="10" stroke-linecap="round" stroke-linejoin="round"/>
<path d="M30.9194 41.9173L27.7109 45.0985" stroke="#07559D" stroke-miterlimit="10" stroke-linecap="round" stroke-linejoin="round"/>
<path d="M39.0078 43.4534H43.5456" stroke="#07559D" stroke-miterlimit="10" stroke-linecap="round" stroke-linejoin="round"/>
<path d="M41.3276 41.4676C41.4136 41.4676 41.4834 41.3985 41.4834 41.3132C41.4834 41.228 41.4136 41.1589 41.3276 41.1589C41.2416 41.1589 41.1719 41.228 41.1719 41.3132C41.1719 41.3985 41.2416 41.4676 41.3276 41.4676Z" stroke="#07559D" stroke-miterlimit="10" stroke-linecap="round" stroke-linejoin="round"/>
<path d="M41.3276 45.9023C41.4136 45.9023 41.4834 45.8332 41.4834 45.7479C41.4834 45.6627 41.4136 45.5935 41.3276 45.5935C41.2416 45.5935 41.1719 45.6627 41.1719 45.7479C41.1719 45.8332 41.2416 45.9023 41.3276 45.9023Z" stroke="#07559D" stroke-miterlimit="10" stroke-linecap="round" stroke-linejoin="round"/>
<path d="M23.5781 37.1616H47.4949" stroke="#07559D" stroke-miterlimit="10" stroke-linecap="round" stroke-linejoin="round"/>
<path d="M35.6641 25.3065V49.017" stroke="#07559D" stroke-miterlimit="10" stroke-linecap="round" stroke-linejoin="round"/>
<path d="M21.3324 36.3837H3.27344" stroke="#07559D" stroke-miterlimit="10" stroke-linecap="round" stroke-linejoin="round"/>
<path d="M3.27344 5.48047H24.0545" stroke="#07559D" stroke-miterlimit="10" stroke-linecap="round" stroke-linejoin="round"/>
<path d="M21.321 43.4535H3.28772C2.02414 43.4535 1 42.4382 1 41.1855V3.58712C1 2.16809 2.16064 1.01709 3.59239 1.01709H24.4062C25.8379 1.01709 26.9986 2.16772 26.9986 3.58712V23.0641" stroke="#07559D" stroke-miterlimit="10" stroke-linecap="round" stroke-linejoin="round"/>
<path d="M14.0026 41.5865C14.9102 41.5865 15.6459 40.8572 15.6459 39.9574C15.6459 39.0577 14.9102 38.3283 14.0026 38.3283C13.0951 38.3283 12.3594 39.0577 12.3594 39.9574C12.3594 40.8572 13.0951 41.5865 14.0026 41.5865Z" fill="#DEEBF6"/>
<path d="M11.4219 3.27313H16.5746" stroke="#07559D" stroke-miterlimit="10" stroke-linecap="round" stroke-linejoin="round"/>
<path d="M4.54688 12.7464L10.7309 18.8771L14.1468 15.4903L20.3965 21.6864" stroke="#07559D" stroke-miterlimit="10" stroke-linecap="round" stroke-linejoin="round"/>
<path d="M22.3483 21.8644V23.658H20.5391" stroke="#07559D" stroke-miterlimit="10" stroke-linecap="round" stroke-linejoin="round"/>
</svg>
