<?xml version="1.0" encoding="UTF-8"?>
<svg xmlns="http://www.w3.org/2000/svg">
    <defs>
        <symbol viewBox="0 0 11.04 15.17" id="telegram-ico">
            <g fill-rule="evenodd">
                <g>
                    <path style="fill:none;stroke-miterlimit:10;" d="M10.45,10,1,.59a.28.28,0,0,0-.41,0A.27.27,0,0,0,.5.8V14.38a.28.28,0,0,0,.19.27A.28.28,0,0,0,1,14.58l3.75-4h5.48a.29.29,0,0,0,.3-.3A.27.27,0,0,0,10.45,10Z" />
                </g>
            </g>
        </symbol>
        <symbol viewBox="0 0 15.37 15.37" id="phone-ico">
            <g fill-rule="evenodd">
                <g>
                    <path style="fill:none;stroke-linecap:round;stroke-linejoin:round;stroke-width:1.2px;" d="M13.64,9.9a8,8,0,0,1-2.53-.4A1.1,1.1,0,0,0,10,9.74l-1.6,1.2a8.82,8.82,0,0,1-4-4L5.6,5.43a1.15,1.15,0,0,0,.28-1.16,8,8,0,0,1-.4-2.53A1.14,1.14,0,0,0,4.34.6H1.74A1.14,1.14,0,0,0,.6,1.74a13,13,0,0,0,13,13,1.14,1.14,0,0,0,1.13-1.13V11A1.14,1.14,0,0,0,13.64,9.9Z" />
                </g>
            </g>
        </symbol>
        <symbol viewBox="0 0 14.17 14.17" id="search-ico">
            <g fill-rule="evenodd">
                <g>
                    <path d="M14,13.17,10.59,9.76a5.89,5.89,0,1,0-.83.84l3.4,3.4A.6.6,0,0,0,14,14,.59.59,0,0,0,14,13.17ZM6,10.76A4.79,4.79,0,1,1,10.76,6,4.79,4.79,0,0,1,6,10.76Z" />
                </g>
            </g>
        </symbol>
        <symbol viewBox="0 0 22.28 12.98" id="eye-ico">
            <g fill-rule="evenodd">
                <g>
                    <path style="stroke-miterlimit:10;stroke-width:0.22px;" d="M11.14,1a.43.43,0,0,1-.27-.76.44.44,0,0,1,.5,0,.45.45,0,0,1,.2.45A.44.44,0,0,1,11.14,1Z" />
                    <path style="stroke-miterlimit:10;stroke-width:0.22px;" d="M22.07,6.76h0a.45.45,0,0,0,0-.55h0a19.8,19.8,0,0,0-2.51-2.5A15.52,15.52,0,0,0,13.25.35l-.05,0a.44.44,0,1,0-.19.85h.06A14.65,14.65,0,0,1,19,4.35c.28.24.54.47.78.7A21.06,21.06,0,0,0,17.6,3.87l-.12-.05a15.22,15.22,0,0,0-6.34-1.49A15,15,0,0,0,5.3,3.6S3.4,4.5,2.53,5A15.3,15.3,0,0,1,9.26,1.18.45.45,0,0,0,9.61.67.44.44,0,0,0,9.09.33,15.58,15.58,0,0,0,2.74,3.69,19.63,19.63,0,0,0,.22,6.21h0a.41.41,0,0,0,0,.53h0a20.65,20.65,0,0,0,3.18,3,16.33,16.33,0,0,0,3.46,2.1,10.66,10.66,0,0,0,4.29,1,10.7,10.7,0,0,0,4.3-1l.55-.25a13.32,13.32,0,0,0,2-1.18c.3-.21.61-.43.91-.67a20.86,20.86,0,0,0,3.17-3ZM10,4.8a1,1,0,1,1-1,1A1,1,0,0,1,10,4.8ZM8.35,6.72a1.88,1.88,0,1,0,2.34-2.65A2.84,2.84,0,0,1,11.35,4a3,3,0,1,1-3,3,2.83,2.83,0,0,1,0-.29ZM10.6,3.21a3.87,3.87,0,1,0,1.69,0,14.93,14.93,0,0,1,4.65,1.27,5.63,5.63,0,0,1,.23,1.63,5.83,5.83,0,1,1-11.65,0,5.66,5.66,0,0,1,.3-1.83A14.21,14.21,0,0,1,10.6,3.21ZM1.41,6.82A23,23,0,0,1,4.8,4.77a7,7,0,0,0-.14,1.38A6.64,6.64,0,0,0,6.55,10.8,16.24,16.24,0,0,1,3.93,9.13,20.8,20.8,0,0,1,1.41,6.82Zm15.12,3.55A6.65,6.65,0,0,0,18,6.15,7.34,7.34,0,0,0,17.94,5a23.91,23.91,0,0,1,2.94,1.82,21.44,21.44,0,0,1-2.51,2.3,16.79,16.79,0,0,1-1.84,1.25Z" />
                </g>
            </g>
        </symbol>
        <symbol viewBox="0 0 12.48 15.27" id="ballon-ico">
            <g fill-rule="evenodd">
                <g>
                    <path style="fill:none;stroke-miterlimit:10;" d="M6.24.5A5.74,5.74,0,0,0,.5,6.24c0,4.69,5.74,8.43,5.74,8.43S12,11.12,12,6.24A5.75,5.75,0,0,0,6.24.5Zm0,9.33A3.6,3.6,0,1,1,9.83,6.24,3.6,3.6,0,0,1,6.24,9.83Z" />
                </g>
            </g>
        </symbol>
        <symbol viewBox="0 0 11.04 15.17" id="loc-arrow-ico">
            <g fill-rule="evenodd">
                <g>
                    <g>
                        <path style="fill: none;stroke-miterlimit: 10;" d="M10.45,10,1,.59a.28.28,0,0,0-.41,0A.27.27,0,0,0,.5.8V14.38a.28.28,0,0,0,.19.27A.28.28,0,0,0,1,14.58l3.75-4h5.48a.29.29,0,0,0,.3-.3A.27.27,0,0,0,10.45,10Z" />
                    </g>
                </g>
            </g>
        </symbol>
        <symbol viewBox="0 0 512 512" id="brief-ico">
            <g fill-rule="evenodd">
                <g>
                    <g>
                        <path d="m497 120.5h-135.625v-29.808c0-33.397-27.171-60.567-60.567-60.567h-89.615c-33.396 0-60.567 27.17-60.567 60.567v29.808h-135.626c-8.284 0-15 6.716-15 15v272.5c0 40.735 33.141 73.875 73.875 73.875h364.25c40.734 0 73.875-33.14 73.875-73.875v-272.5c0-8.284-6.716-15-15-15zm-206.965 195.75c0 18.767-15.269 34.035-34.035 34.035s-34.035-15.268-34.035-34.035v-34.035h68.07zm15-64.035h-98.07c-8.284 0-15 6.716-15 15v27.247c-87.228-18.932-152.617-75.51-161.03-143.962h450.129c-8.413 68.452-73.801 125.03-161.029 143.963v-27.247c0-8.285-6.716-15.001-15-15.001zm-124.41-161.523c0-16.855 13.713-30.567 30.567-30.567h89.615c16.854 0 30.567 13.712 30.567 30.567v29.808h-150.75v-29.808zm301.375 317.308c0 24.193-19.683 43.875-43.875 43.875h-364.25c-24.192 0-43.875-19.682-43.875-43.875v-180.146c12.11 17.317 27.724 33.308 46.587 47.455 32.687 24.515 72.592 41.535 116.022 49.932 4.386 31.065 31.134 55.043 63.391 55.043s59.005-23.978 63.391-55.043c43.43-8.397 83.334-25.417 116.022-49.932 18.863-14.147 34.477-30.139 46.587-47.455z"/>
                    </g>
                </g>
            </g>
        </symbol>
        <symbol viewBox="0 0 512 512" id="operator-ico">
            <g fill-rule="evenodd">
                <g>
                    <g>
                        <path d="m492.632 400.416c-12.67-22.905-31.088-42.365-53.263-56.276l-84.365-52.925c3.242-4.202 6.224-8.615 8.919-13.215h6.077c30.327 0 55-24.673 55-55v-69c0-27.467-20.239-50.295-46.587-54.356-11.751-56.81-62.173-99.644-122.413-99.644-68.925 0-125 56.075-125 125v90c0 28.666 9.706 55.104 25.995 76.215l-84.365 52.925c-22.174 13.911-40.592 33.371-53.263 56.276s-19.367 48.849-19.367 75.025v21.559c0 8.284 6.716 15 15 15h482c8.284 0 15-6.716 15-15v-21.559c0-26.176-6.697-52.12-19.368-75.025zm-141.632-272.416h-20.714c-17.703 0-34.859-7.353-47.069-20.172l-16.354-17.173c-2.825-2.966-6.739-4.647-10.835-4.655-.009 0-.018 0-.027 0-4.085 0-7.995 1.667-10.824 4.616l-16.384 17.077c-12.194 12.711-29.291 20.001-46.905 20.001h-20.888v-2.694c0-52.383 42.617-95 95-95s95 42.617 95 95zm-169.113 29.694c25.744 0 50.73-10.654 68.553-29.232l5.52-5.753 5.532 5.81c17.846 18.735 42.92 29.481 68.794 29.481h20.714v57c0 11.598-2.093 22.716-5.915 33h-68.085c-8.284 0-15 6.716-15 15s6.716 15 15 15h50.039c-17.416 19.616-42.806 32-71.039 32-52.383 0-95-42.617-95-95v-57.306zm74.113 182.306c23.633 0 45.753-6.594 64.622-18.036-3.487 32.578-31.134 58.036-64.622 58.036s-61.135-25.458-64.622-58.036c18.869 11.442 40.989 18.036 64.622 18.036zm139-186v69c0 11.417-7.696 21.064-18.17 24.044 2.716-10.231 4.17-20.97 4.17-32.044v-83.443c8.284 4.077 14 12.603 14 22.443zm87 328h-452v-6.559c0-43.296 21.896-82.88 58.573-105.888l72.844-45.698c4.481 48.247 45.186 86.145 94.583 86.145s90.102-37.898 94.584-86.144l72.844 45.698c36.676 23.008 58.572 62.592 58.572 105.887z"/><path d="m416 422h-80c-8.284 0-15 6.716-15 15s6.716 15 15 15h80c8.284 0 15-6.716 15-15s-6.716-15-15-15z"/>
                    </g>
                </g>
            </g>
        </symbol>        
        <symbol viewBox="0 1 511 511.99938" id="profit-ico">
            <g fill-rule="evenodd">
                <g>
                    <g>
                        <path d="m216.5 366c5.519531 0 10-4.480469 10-10s-4.480469-10-10-10-10 4.480469-10 10 4.480469 10 10 10zm0 0"/><path d="m3.429688 389.070312 120 120c3.90625 3.90625 10.234374 3.90625 14.140624 0l66-66c3.90625-3.90625 3.90625-10.234374 0-14.140624l-2.929687-2.929688h144.148437c12.660157 0 24.742188-4.746094 34.058594-13.394531l121.316406-113.699219c11.613282-10.785156 15.460938-27.917969 9.570313-42.628906-4.257813-10.648438-12.953125-18.796875-23.851563-22.355469-10.902343-3.566406-22.726562-2.121094-32.453124 3.957031-.0625.039063-26.933594 17.671875-26.933594 17.671875-.183594-54.207031-32.945313-112.011719-78.042969-138.035156 2.574219-2.957031 4.597656-6.457031 5.886719-10.375 5.160156-15.699219-3.417969-32.691406-19.140625-37.882813-.492188-.164062-.984375-.308593-1.476563-.460937l25.742188-46.242187c1.480468-2.660157 1.671875-5.851563.511718-8.664063-1.15625-2.816406-3.53125-4.953125-6.457031-5.800781-18.457031-5.367188-37.640625-8.089844-57.019531-8.089844-19.375 0-38.5625 2.722656-57.019531 8.085938-2.925781.851562-5.300781 2.984374-6.460938 5.800781-1.15625 2.816406-.96875 6.007812.515625 8.667969l25.742188 46.242187c-.5.15625-1 .304687-1.5.46875-15.699219 5.183594-24.273438 22.171875-19.113282 37.882813 1.289063 3.910156 3.328126 7.398437 5.910157 10.359374-45.769531 26.410157-78.074219 84.808594-78.074219 138.492188 0 1.464844.035156 2.910156.082031 4.34375-17.910156 4.886719-34.5625 13.789062-48.566406 26.050781l-30.390625 26.589844-4.054688-4.054687c-3.90625-3.90625-10.234374-3.90625-14.140624 0l-66 66c-3.90625 3.90625-3.90625 10.234374 0 14.140624zm253.902343-364.886718c12.8125-2.78125 25.9375-4.183594 39.167969-4.183594s26.355469 1.402344 39.171875 4.183594l-22.285156 40.027344c-11.234375-1.566407-22.546875-1.566407-33.769531 0zm6.6875 64.082031c20.519531-6.714844 42.890625-7.222656 64.933594-.007813 5.246094 1.730469 8.109375 7.402344 6.386719 12.636719-1.296875 3.941407-4.8125 6.617188-8.886719 6.855469-19.71875-6.269531-40.199219-6.28125-59.910156-.019531 0 0 0 0-.003907 0-4.109374-.257813-7.597656-2.945313-8.878906-6.832031-1.722656-5.242188 1.140625-10.914063 6.359375-12.632813zm5.53125 39.550781c17.339844-6.246094 35.304688-6.394531 52.6875-.421875 46.460938 15.976563 84.261719 73.667969 84.261719 128.605469 0 4.65625-.292969 9.09375-.871094 13.242188l-48.066406 31.535156c-7.441406-9.21875-18.71875-14.777344-31.0625-14.777344h-20v-11.71875c11.640625-4.128906 20-15.246094 20-28.28125 0-16.542969-13.457031-30-30-30-5.511719 0-10-4.484375-10-10s4.488281-10 10-10c3.542969 0 7.28125 1.808594 10.816406 5.226562 3.96875 3.839844 10.300782 3.734376 14.140625-.230468 3.839844-3.96875 3.734375-10.300782-.234375-14.140625-5.074218-4.914063-10.152344-7.691407-14.722656-9.207031v-11.648438c0-5.523438-4.476562-10-10-10s-10 4.476562-10 10v11.71875c-11.636719 4.128906-20 15.246094-20 28.28125 0 16.542969 13.457031 30 30 30 5.515625 0 10 4.484375 10 10s-4.484375 10-10 10c-4.273438 0-8.882812-2.6875-12.984375-7.566406-3.554687-4.226563-9.863281-4.773438-14.089844-1.21875-4.226562 3.554687-4.773437 9.863281-1.21875 14.089844 5.34375 6.359374 11.632813 10.789062 18.292969 13.023437v11.671875h-3.328125c-4.914063 0-7.121094-3.203125-10.582031-5.441406-21.128906-15.835938-47.300782-24.558594-73.699219-24.558594-4.128906 0-8.265625.214844-12.382813.632812 0-.210937-.007812-.417968-.007812-.632812 0-54.167969 37.257812-111.667969 83.050781-128.183594zm-138.363281 173.625c18.789062-16.453125 42.933594-25.441406 67.703125-25.441406 22.101563 0 44.011719 7.300781 61.691406 20.554688 2.550781 1.492187 9.652344 9.445312 22.585938 9.445312h43.332031c11.382812 0 20 9.253906 20 20 0 11.027344-8.972656 20-20 20h-70c-5.523438 0-10 4.476562-10 10s4.476562 10 10 10h70c22.054688 0 40-17.945312 40-40 0-2.292969-.203125-4.554688-.585938-6.78125l98.199219-64.429688c4.671875-2.886718 10.339844-3.5625 15.558594-1.859374 5.25 1.71875 9.441406 5.644531 11.492187 10.777343 2.886719 7.203125 1.074219 15.269531-4.644531 20.578125l-121.3125 113.695313c-5.570312 5.171875-12.820312 8.019531-20.417969 8.019531h-164.148437l-78.839844-78.84375zm-54.6875 28.699219 105.859375 105.859375-51.859375 51.859375-105.859375-105.859375zm0 0"/>
                    </g>
                </g>
            </g>
        </symbol>
        <symbol viewBox="0 0 351.75 384" id="umbrella-ico">
            <g fill-rule="evenodd">
                <g>
                    <clipPath id="clip-path" transform="translate(-0.13)"><rect style="fill:none;" width="352" height="384"/></clipPath><g style="clip-path:url(#clip-path)"><path d="M8.92,375.2a30,30,0,0,0,42.42,0L67.25,359.3a7.5,7.5,0,1,0-10.6-10.61L40.73,364.6a15,15,0,0,1-21.21-21.21l135-134.68c6-6,25.4,4.19,37.13,15.91,13.61,13.61,21.19,31.84,15.91,37.13a7,7,0,0,0-1.34,1.81,7.5,7.5,0,0,0,11.94,8.79c4.33-4.32,20.94-.27,37.12,15.91S275.51,321,271.2,325.37h0A7.5,7.5,0,0,0,281.8,336l15.91-15.91a187.25,187.25,0,0,0,49.52-87.79,7.5,7.5,0,0,0-14.57-3.57,172.32,172.32,0,0,1-45.55,80.75l-.79.78c-2.83-10.43-9.84-22-20.43-32.6-10.77-10.77-22.56-17.83-33.13-20.57,36.78-40.26,80.14-104.16,80.69-157.8a170.94,170.94,0,0,1,22.62,65,7.5,7.5,0,0,0,14.87-2,185.66,185.66,0,0,0-48-102l10.71-10.7A7.5,7.5,0,0,0,303,39L292.29,49.72A187.49,187.49,0,0,0,32.55,54.91L16.64,70.83a7.5,7.5,0,0,0,10.61,10.6c5.8-5.8,24.87,3.66,37.12,15.91,13.45,13.46,21.24,31.78,15.9,37.12a7.5,7.5,0,0,0,10.61,10.61c4.33-4.33,20.94-.28,37.12,15.91,15.19,15.18,19.75,31.12,16.48,36.4L117.3,224.52,106.8,214a7.5,7.5,0,1,0-10.61,10.6l10.49,10.5L8.92,332.78a30,30,0,0,0,0,42.42ZM222.51,246.06c-3.42-11.83-11.47-23.26-20.26-32s-20.63-17.15-32.74-20.45L291.77,71.43c28,44.91-32.73,134.44-69.26,174.63ZM75,86.74c-8.83-8.84-20.53-17.1-32.61-20.42l.8-.8C100,8.66,187.05-.12,253.23,39.18c-53.77.62-117.69,44.15-157.69,80.7C92.31,107.61,83.93,95.7,75,86.74Zm63.64,63.63c-10.4-10.39-21.74-17.33-32-20.27C148,92.46,236.84,33.29,281.16,60.83L159,182.88c-2.87-10.46-9.89-22-20.38-32.51Z" transform="translate(-0.13)"/></g><path d="M351.88,197a7.5,7.5,0,1,1-7.5-7.5,7.5,7.5,0,0,1,7.5,7.5Z" transform="translate(-0.13)"/>
                </g>
            </g>
        </symbol>
        <symbol viewBox="0 0 512 506" id="m-monets-ico">
            <g fill-rule="evenodd">
                <g>
                    <path d="M451.48,265.88a130.21,130.21,0,0,0-53.22-47.1,10,10,0,1,0-8.67,18,110.09,110.09,0,0,1,49.59,150.79,10,10,0,1,0,17.65,9.4,130.12,130.12,0,0,0-5.35-131.11Z"/><path d="M357.67,206H357a10,10,0,0,0,0,20h.63a10,10,0,0,0,0-20Z"/><path d="M294.41,435.2a110.09,110.09,0,0,1-49.59-150.79A10,10,0,1,0,227.17,275a130.05,130.05,0,0,0,58.57,178.21,10,10,0,1,0,8.67-18Z"/><path d="M327,446h-.58a10,10,0,0,0-.09,20H327a10,10,0,0,0,0-20Z"/><path d="M387.41,172.17A46.6,46.6,0,0,0,383,164h26a46,46,0,0,0,0-92H328.92A46,46,0,0,0,291,0H46a46,46,0,0,0,0,92h80.08a45.87,45.87,0,0,0,0,52H100a46,46,0,0,0-28.58,82,45.91,45.91,0,0,0,0,72,45.91,45.91,0,0,0,0,72A46,46,0,0,0,100,452H217.85A169.54,169.54,0,0,0,342,506c93.74,0,170-76.26,170-170C512,258,459.17,192.08,387.41,172.17ZM409,92a26,26,0,0,1,0,52H164a26,26,0,0,1,0-52ZM46,72a26,26,0,0,1,0-52H291a26,26,0,0,1,0,52Zm54,92H345a26.08,26.08,0,0,1,11.35,2.61Q349.24,166,342,166a169.49,169.49,0,0,0-120.3,50H100a26,26,0,0,1,0-52Zm0,72H204.61a169.71,169.71,0,0,0-25.7,52H100a26,26,0,0,1,0-52Zm0,72h74.32a170.19,170.19,0,0,0-.62,52H100a26,26,0,0,1,0-52Zm0,124a26,26,0,0,1,0-52h77.79a169.17,169.17,0,0,0,24,52Zm242,54c-82.71,0-150-67.29-150-150s67.29-150,150-150,150,67.29,150,150S424.71,486,342,486Z"/>
                </g>
            </g>
        </symbol>
        <symbol viewBox="0 0 344.51 384" id="s-saver-ico">
            <g fill-rule="evenodd">
                <g>
                    <path d="M25.58,345V358.4A25.6,25.6,0,0,0,51.18,384h62.93a25.6,25.6,0,0,0,25.6-25.6V345.6h64v12.8a25.6,25.6,0,0,0,25.6,25.6h62.93a25.6,25.6,0,0,0,25.6-25.6V345.06a32,32,0,0,0,26.67-31.46V32a32,32,0,0,0-32-32H32A32,32,0,0,0,0,32V57.6a6.4,6.4,0,0,0,12.8,0V32A19.2,19.2,0,0,1,32,12.8H312.51A19.2,19.2,0,0,1,331.71,32V313.6a19.2,19.2,0,0,1-19.2,19.2H32a19.2,19.2,0,0,1-19.2-19.2V89.6A6.4,6.4,0,0,0,0,89.6v224A32.07,32.07,0,0,0,25.58,345ZM305,345.6v12.8a12.8,12.8,0,0,1-12.8,12.8H229.31a12.8,12.8,0,0,1-12.8-12.8V345.6Zm-178.13,0v12.8a12.8,12.8,0,0,1-12.8,12.8H51.18a12.8,12.8,0,0,1-12.8-12.8V345.6Z"/><path d="M50.11,217.6a6.4,6.4,0,0,0-6.4,6.4v57.6a19.2,19.2,0,0,0,19.2,19.2h217.6a19.2,19.2,0,0,0,19.2-19.2v-6.4a19.19,19.19,0,0,0,19.2-19.2V217.6a19.2,19.2,0,0,0-19.2-19.2V147.2a19.2,19.2,0,0,0,19.2-19.2V89.6a19.2,19.2,0,0,0-19.2-19.2V64a19.2,19.2,0,0,0-19.2-19.2H62.91A19.2,19.2,0,0,0,43.71,64V192a6.4,6.4,0,0,0,12.8,0V64a6.4,6.4,0,0,1,6.4-6.4h217.6a6.39,6.39,0,0,1,6.4,6.4v6.4a19.2,19.2,0,0,0-19.2,19.2V128a19.2,19.2,0,0,0,19.2,19.2v51.2a19.2,19.2,0,0,0-19.2,19.2V256a19.2,19.2,0,0,0,19.2,19.2v6.4a6.4,6.4,0,0,1-6.4,6.4H62.91a6.41,6.41,0,0,1-6.4-6.4V224a6.39,6.39,0,0,0-6.4-6.4ZM280.51,128V89.6a6.41,6.41,0,0,1,6.4-6.4h12.8a6.4,6.4,0,0,1,6.4,6.4V128a6.39,6.39,0,0,1-6.4,6.4h-12.8a6.4,6.4,0,0,1-6.4-6.4Zm0,128V217.6a6.41,6.41,0,0,1,6.4-6.4h12.8a6.4,6.4,0,0,1,6.4,6.4V256a6.39,6.39,0,0,1-6.4,6.4h-12.8a6.4,6.4,0,0,1-6.4-6.4Z"/><path d="M100.76,202.19a76.8,76.8,0,1,0,0-58.78,76.8,76.8,0,0,0,0,58.78Zm40.67-85.76,2.32,5.62a6.41,6.41,0,1,0,11.83-4.91l-2.33-5.61a63.44,63.44,0,0,1,36.92,0l-2.33,5.61a6.41,6.41,0,1,0,11.83,4.91l2.33-5.63a63.37,63.37,0,0,1,26.09,26.11l-5.61,2.33a6.4,6.4,0,1,0,4.9,11.82l5.62-2.33a63.44,63.44,0,0,1,0,36.92L227.38,189a6.4,6.4,0,1,0-4.9,11.82l5.62,2.33A63.48,63.48,0,0,1,202,229.2l-2.33-5.62a6.4,6.4,0,1,0-11.83,4.9l2.33,5.62a63.44,63.44,0,0,1-36.92,0l2.33-5.62a6.4,6.4,0,1,0-11.83-4.9l-2.32,5.62a63.37,63.37,0,0,1-26.1-26.1l5.62-2.33A6.4,6.4,0,1,0,116,189l-5.61,2.32a63.44,63.44,0,0,1,0-36.92l5.61,2.33A6.4,6.4,0,1,0,121,144.86l-5.63-2.33a63.5,63.5,0,0,1,26.11-26.12Z"/><path d="M171.76,211.2a38.39,38.39,0,1,0-35.53-23.68,38.42,38.42,0,0,0,35.53,23.68Zm-9.85-62.08A25.53,25.53,0,1,1,148,163a25.6,25.6,0,0,1,13.91-13.85Z"/><path d="M107.71,70.4h-32a6.41,6.41,0,0,0-6.4,6.4v32a6.4,6.4,0,0,0,12.8,0V83.2h25.6a6.4,6.4,0,1,0,0-12.8Z"/>
                </g>
            </g>
        </symbol>
    </defs>
</svg>
