<svg xmlns="http://www.w3.org/2000/svg" width="379.7" height="379.66" viewBox="0 0 379.7 379.66"><defs><style>.a{fill:#a7a7a7;}</style></defs><path class="a" d="M379.7,126.06c-.63,2.62-1.18,5.27-1.92,7.87-6.72,23.58-27.83,38.17-53,36.67-22.54-1.33-42-19.44-45.76-42.55-4.37-27,14.53-53.4,41.19-57.64,28.29-4.51,54.26,13.78,58.78,41.37a19,19,0,0,0,.72,2.41Zm-50.48,32a37.91,37.91,0,1,0-38.05-37.75A37.94,37.94,0,0,0,329.22,158.1Z"/><path class="a" d="M195.78,0c4.81,1.44,9.82,2.42,14.41,4.39a50.37,50.37,0,0,1,29.1,57.2c-5.3,23.51-26.5,40.26-50.17,39.63-24.66-.65-44.93-17.93-49.08-41.83A50.48,50.48,0,0,1,181.83.65,14.29,14.29,0,0,0,183.91,0Zm-6,88.52a37.94,37.94,0,1,0-37.83-38A37.81,37.81,0,0,0,189.78,88.52Z"/><path class="a" d="M284.93,272.11v63c2.18.39,4.27.62,6.29,1.14A25.09,25.09,0,0,1,310,360c.06,2.47.1,4.94,0,7.41a12.54,12.54,0,0,1-12.07,12.18c-1,.05-2,0-3,0H84.79c-10.55,0-14.88-4.57-15.21-15.08-.4-12.46,3.94-22,15.71-27.19,2.88-1.27,6.15-1.68,9.46-2.55V272.1c-2,0-3.94,0-5.87,0-7.25-.19-12.48-4.92-12.88-12.16-.31-5.79-.24-11.62,0-17.42.18-5.12,3-8.72,7.48-11.1,31.31-16.55,62.79-32.79,93.81-49.86,9.13-5,16.43-4.86,25.43.08,30.39,16.68,61.13,32.74,91.85,48.81,6.63,3.46,9.72,8.32,9.31,15.7-.22,3.82,0,7.66-.05,11.49-.07,9.43-5.05,14.43-14.4,14.47Zm6.18-12.74c0-5.12.13-9.92-.11-14.7-.05-1-1.29-2.3-2.31-2.84q-48.19-25.64-96.52-51a5.84,5.84,0,0,0-4.67,0q-48.34,25.36-96.54,51c-.9.48-2.2,1.39-2.23,2.14-.19,5.11-.1,10.22-.1,15.4ZM297,366.83c2.25-12.87-4.64-19.14-16-19-34.84.39-69.68.14-104.53.14q-39.84,0-79.69,0c-5.29,0-10.23,1.24-12.5,6.23-1.69,3.72-1.83,8.14-2.73,12.64ZM107.79,272.27V335h24.83V272.27Zm94.45,62.87V272.39H177.48v62.75Zm44.88-62.89V335h24.79V272.25Zm-82.79,62.9V272.37H145.74v62.78Zm51-62.89V335H234V272.26Z"/><path class="a" d="M101.23,120.69a50.47,50.47,0,0,1-51.18,50.09c-28.39-.39-50.55-23.41-50-52C.5,91.25,23.76,69.15,51.74,69.66,79.36,70.16,101.68,93.18,101.23,120.69ZM88.52,120a37.94,37.94,0,1,0-37.7,38.09A37.87,37.87,0,0,0,88.52,120Z"/><path class="a" d="M183.33,152.81c0,1.73.1,3.46,0,5.18-.29,3.94-2.76,6.48-6.19,6.51s-6.13-2.77-6.42-6.75c-.35-4.91-.24-9.94-1.35-14.67-4.76-20.21-18.58-30.58-38.32-34-4.48-.78-9.06-1-13.59-1.5-3.74-.4-6.29-3.13-6.13-6.59a6.11,6.11,0,0,1,6.33-6c16.44.51,32.19,3.64,45.34,14.35C176.65,120.52,182.59,135.52,183.33,152.81Z"/><path class="a" d="M259.87,94.23c6.37.57,10.07,4.72,7.94,9.51-1.27,2.83-3.6,3.76-6.57,3.9-9.3.44-18.45,1.77-27,5.74-17.28,8-24.53,22.35-25.3,40.66-.06,1.24.08,2.48,0,3.71-.19,4-2.88,6.79-6.43,6.74s-5.83-2.59-6.18-6.56a56,56,0,0,1,39-58.44C243.29,97,251.68,95.94,259.87,94.23Z"/><path class="a" d="M139.57,161.71c.66-12.55-7-21-20-22.26-3.87-.38-6.3-2.46-6.65-5.71a6.46,6.46,0,0,1,4.73-6.7,8.12,8.12,0,0,1,2.56-.2c21.41,1.51,34.26,17.95,31.91,38.57a6.08,6.08,0,0,1-6.39,5.46,6.25,6.25,0,0,1-6.1-5.83C139.48,163.94,139.57,162.82,139.57,161.71Z"/><path class="a" d="M227.34,160.86c.29-19.1,13.75-33.21,31.69-34,3.44-.16,6.1.86,7.37,4.27,1.54,4.12-1.24,7.85-6.15,8.34-10.67,1.07-17.44,6.36-19.59,15.66a34.52,34.52,0,0,0-.52,8.08c0,4.44-2.08,7.35-5.82,7.59s-6.37-2.22-6.77-6.64C227.43,162.79,227.37,161.43,227.34,160.86Z"/><path class="a" d="M355.21,107.24c-1.42,2.3-2.15,4.19-3.46,5.52Q336.69,128,321.44,143.1c-3.06,3-6.87,3.21-9.51.64s-2.62-6.34.48-9.46c10.16-10.23,20.41-20.38,30.57-30.61,2.15-2.16,4.8-3.15,7.35-1.73C352.24,103,353.47,105.28,355.21,107.24Z"/><path class="a" d="M309.42,120.87c-1.69-1.35-4.18-2.36-4.75-4-.69-2-.59-5.3.65-6.79A157.26,157.26,0,0,1,318.59,96.6a6,6,0,0,1,8.66.42,6,6,0,0,1,.09,8.41c-4.23,4.5-8.63,8.85-13.11,13.1C313.16,119.55,311.46,119.91,309.42,120.87Z"/><path class="a" d="M177.09,76.73c-2-1.53-4.41-2.46-5.21-4.14s-.3-4.17.05-6.23c.16-.94,1.3-1.75,2.08-2.53q14.64-14.69,29.31-29.32c3.48-3.46,7.31-3.82,10.06-1s2.38,6.46-1.18,10c-9.76,9.79-19.5,19.59-29.35,29.28C181.35,74.26,179.35,75.21,177.09,76.73Z"/><path class="a" d="M184,24.71c1.58,1.17,4,2.09,4.76,3.77s1,5.12-.14,6.43a173.83,173.83,0,0,1-14.27,14.46c-2.28,2.1-6,1.46-8.07-.72a5.88,5.88,0,0,1-.41-8.09c4.44-4.79,9.13-9.35,13.85-13.88C180.66,25.81,182.15,25.55,184,24.71Z"/><path class="a" d="M189.86,240.38c-6,0-12.09.05-18.14,0-4.5,0-7.11-2.4-7.12-6.24s2.74-6.33,7.12-6.36q18.14-.1,36.27,0c4.4,0,7.12,2.58,7.12,6.34s-2.63,6.23-7.11,6.28c-6,.06-12.09,0-18.14,0Z"/><path class="a" d="M37.8,146.36c-2-1.55-4.54-2.6-5.19-4.35a9.17,9.17,0,0,1,.71-6.77c1.24-2.3,3.63-4,5.55-5.9q12.81-12.82,25.64-25.64c2.35-2.36,5.07-3.07,8.07-1.51a5.55,5.55,0,0,1,3,6.52,9,9,0,0,1-2.32,4.06q-15,15.14-30.09,30.09C41.88,144.16,40,144.94,37.8,146.36Z"/><path class="a" d="M31,120.75c-1.59-1.31-4-2.39-4.78-4.18s-.58-5,.6-6.39a170.94,170.94,0,0,1,13.5-13.69c2.52-2.34,6-1.94,8.35.41,2.16,2.17,2.7,5.76.57,8.07-4.42,4.81-9.12,9.36-13.84,13.88C34.5,119.7,33,119.92,31,120.75Z"/></svg>