<svg id="Layer_1" enable-background="new 0 0 512 512" height="512" viewBox="0 0 512 512" width="512" xmlns="http://www.w3.org/2000/svg"><g><path style="fill:#acacaf" d="m248 272c-35.29 0-64-28.71-64-64s28.71-64 64-64 64 28.71 64 64-28.71 64-64 64zm0-96c-17.645 0-32 14.355-32 32s14.355 32 32 32 32-14.355 32-32-14.355-32-32-32z"/><path style="fill:#acacaf" d="m496 288.862v-65.723c9.888-10.104 16-23.918 16-39.138s-6.112-29.035-16-39.138v-98.863c0-25.364-20.636-46-46-46h-404c-25.364 0-46 20.636-46 46v420c0 25.364 20.636 46 46 46h404c25.364 0 46-20.636 46-46v-98.862c9.888-10.104 16-23.918 16-39.138s-6.112-29.035-16-39.138zm-16-104.862c0 13.234-10.767 24-24 24h-16v-48h16c13.233 0 24 10.766 24 24zm-72-40v80 64 80 42c0 7.72-6.28 14-14 14h-292c-7.72 0-14-6.28-14-14v-308c0-7.72 6.28-14 14-14h292c7.72 0 14 6.28 14 14zm32 96h16c2.717 0 5.386-.205 8-.581v33.161c-2.614-.376-5.283-.581-8-.581h-16zm0 64h16c13.233 0 24 10.766 24 24s-10.767 24-24 24h-16zm10 176h-404c-7.72 0-14-6.28-14-14v-420c0-7.72 6.28-14 14-14h404c7.72 0 14 6.28 14 14v82.581c-2.614-.376-5.283-.581-8-.581h-16v-26c0-25.364-20.636-46-46-46h-292c-25.364 0-46 20.636-46 46v308c0 25.364 20.636 46 46 46h292c25.364 0 46-20.636 46-46v-26h16c2.717 0 5.386-.205 8-.581v82.581c0 7.72-6.28 14-14 14z"/><path style="fill:#acacaf" d="m144 352c-8.837 0-16-7.164-16-16v-64c0-8.836 7.163-16 16-16s16 7.164 16 16v64c0 8.836-7.163 16-16 16z"/></g></svg>