<svg width="33" height="34" viewBox="0 0 33 34" fill="none" xmlns="http://www.w3.org/2000/svg">
<path d="M19.4531 12.907H25.3579" stroke="#07559D" stroke-width="2" stroke-miterlimit="10"/>
<path d="M21.6641 10.509H24.6164C25.4318 10.509 26.0926 9.78723 26.0926 8.89664V7.82171C26.0926 6.93112 25.4318 6.2093 24.6164 6.2093H21.6641V15.8837" stroke="#07559D" stroke-width="2" stroke-miterlimit="10"/>
<path d="M19.4531 10.6744H21.6674" stroke="#07559D" stroke-width="2" stroke-miterlimit="10"/>
<path d="M22.2699 19.5615C22.557 19.5898 22.8478 19.6047 23.1423 19.6047C28.0337 19.6047 31.9994 15.6061 31.9994 10.6744C31.9994 5.7427 28.0337 1.74419 23.1423 1.74419C18.2509 1.74419 14.2852 5.7427 14.2852 10.6744C14.2852 10.9825 14.3007 11.2876 14.3309 11.5875" stroke="#07559D" stroke-width="2" stroke-miterlimit="10"/>
<path d="M19.4531 32.2558C26.096 32.2558 29.7865 28.3741 29.7865 22.2093V21.093" stroke="#07559D" stroke-width="2" stroke-miterlimit="10"/>
<path d="M31.9989 23.3256L29.7846 21.093L27.5703 23.3256" stroke="#07559D" stroke-width="2" stroke-miterlimit="10"/>
<path d="M14.2865 1C7.6436 1 3.95312 4.88167 3.95312 11.0465V12.1628" stroke="#07559D" stroke-width="2" stroke-miterlimit="10"/>
<path d="M1.73828 9.93024L3.95257 12.1628L6.16685 9.93024" stroke="#07559D" stroke-width="2" stroke-miterlimit="10"/>
<path d="M10.5952 33C15.8945 33 20.1905 28.6686 20.1905 23.3256C20.1905 17.9825 15.8945 13.6512 10.5952 13.6512C5.29593 13.6512 1 17.9825 1 23.3256C1 28.6686 5.29593 33 10.5952 33Z" stroke="#07559D" stroke-width="2" stroke-miterlimit="10"/>
<path d="M6.90625 26.3023H14.2872" stroke="#07559D" stroke-width="2" stroke-miterlimit="10"/>
<path d="M6.90625 23.3256H14.2872" stroke="#07559D" stroke-width="2" stroke-miterlimit="10"/>
<path d="M10.5977 29.2791V23.3256" stroke="#07559D" stroke-width="2" stroke-miterlimit="10"/>
<path d="M6.16797 18.1163L10.5965 23.3256" stroke="#07559D" stroke-width="2" stroke-miterlimit="10"/>
<path d="M15.0262 18.1163L10.5977 23.3256" stroke="#07559D" stroke-width="2" stroke-miterlimit="10"/>
</svg>
