<svg width="44" height="44" viewBox="0 0 44 44" fill="none" xmlns="http://www.w3.org/2000/svg">
<path d="M30 15H36L40 22L36 29H30" stroke="white" stroke-width="2" stroke-miterlimit="10"/>
<path d="M32.329 18L30 22L32.329 26H35" stroke="white" stroke-width="2" stroke-miterlimit="10"/>
<path d="M22 9H26L30 15L26 22" stroke="white" stroke-width="2" stroke-miterlimit="10"/>
<path d="M29 42L26 35" stroke="white" stroke-width="2" stroke-miterlimit="10"/>
<path d="M36 29L39 34" stroke="white" stroke-width="2" stroke-miterlimit="10"/>
<path d="M36 15L39 10" stroke="white" stroke-width="2" stroke-miterlimit="10"/>
<path d="M26 9L29 3" stroke="white" stroke-width="2" stroke-miterlimit="10"/>
<path d="M40 22H43" stroke="white" stroke-width="2" stroke-miterlimit="10"/>
<path d="M19 4L20 6H25" stroke="white" stroke-width="2" stroke-miterlimit="10"/>
<path d="M19 40L20 38H25" stroke="white" stroke-width="2" stroke-miterlimit="10"/>
<path d="M22 22H18L14 29L18 35H22H26L30 29L26 22H22Z" stroke="white" stroke-width="2" stroke-miterlimit="10"/>
<path d="M14 15H8L4 22L8 29H14" stroke="white" stroke-width="2" stroke-miterlimit="10"/>
<path d="M10.329 18L8 22L10.329 26H13" stroke="white" stroke-width="2" stroke-miterlimit="10"/>
<path d="M22 9H18L14 15L18 22" stroke="white" stroke-width="2" stroke-miterlimit="10"/>
<path d="M22 43C33.598 43 43 33.598 43 22C43 10.402 33.598 1 22 1C10.402 1 1 10.402 1 22C1 33.598 10.402 43 22 43Z" stroke="white" stroke-width="2" stroke-miterlimit="10"/>
<path d="M15 42L18 35" stroke="white" stroke-width="2" stroke-miterlimit="10"/>
<path d="M8 29L5 34" stroke="white" stroke-width="2" stroke-miterlimit="10"/>
<path d="M8 15L5 10" stroke="white" stroke-width="2" stroke-miterlimit="10"/>
<path d="M18 9L15 3" stroke="white" stroke-width="2" stroke-miterlimit="10"/>
<path d="M4 22H1" stroke="white" stroke-width="2" stroke-miterlimit="10"/>
</svg>
