<svg width="43" height="64" viewBox="0 0 43 64" fill="none" xmlns="http://www.w3.org/2000/svg">
<path d="M33.483 60.9121L32.9505 60.0854C31.9562 58.5422 31.1823 57.7685 29.6391 56.7741L28.8125 56.2414L29.6391 55.7087C31.1823 54.7144 31.9562 53.9406 32.9505 52.3975L33.483 51.5709L34.0157 52.3975C35.0101 53.9407 35.7838 54.7144 37.327 55.7087L38.1537 56.2414L37.327 56.7741C35.7838 57.7684 35.0101 58.5422 34.0157 60.0854L33.483 60.9121ZM31.1089 56.2415C32.0852 56.9477 32.7768 57.6394 33.483 58.6156C34.1894 57.6394 34.881 56.9477 35.8572 56.2415C34.881 55.5353 34.1894 54.8435 33.483 53.8674C32.7768 54.8435 32.0852 55.5353 31.1089 56.2415Z" fill="#07559D"/>
<path d="M41.9232 42.6088H0.632812V49.1166H41.9232V42.6088Z" fill="#D3E5F3"/>
<path d="M42.558 49.7503H0V41.9752H7.95982V43.2426H1.2675V48.483H41.2906V43.2426H17.2175V41.9752H42.558V49.7503Z" fill="#07559D"/>
<path d="M18.0492 53.4645H7.10938V57.5879H18.0492V53.4645Z" fill="#D3E5F3"/>
<path d="M33.0796 56.2416C31.4637 57.2826 30.6198 58.1265 29.5788 59.7423C28.5376 58.1266 27.6938 57.2826 26.0781 56.2416C27.6938 55.2005 28.5378 54.3565 29.5788 52.7408C30.6198 54.3565 31.4637 55.2005 33.0796 56.2416Z" fill="#D3E5F3"/>
<path d="M29.5847 60.9121L29.0521 60.0854C28.0577 58.5422 27.2839 57.7685 25.7407 56.7741L24.9141 56.2414L25.7407 55.7087C27.2839 54.7144 28.0577 53.9406 29.0521 52.3975L29.5847 51.5709L30.1174 52.3975C31.1117 53.9407 31.8854 54.7144 33.4286 55.7087L34.2553 56.2414L33.4286 56.7741C31.8854 57.7684 31.1117 58.5422 30.1174 60.0854L29.5847 60.9121ZM27.2105 56.2415C28.1867 56.9477 28.8785 57.6394 29.5847 58.6156C30.2909 57.6394 30.9827 56.9477 31.9588 56.2415C30.9827 55.5353 30.2909 54.8435 29.5847 53.8674C28.8785 54.8435 28.1867 55.5353 27.2105 56.2415Z" fill="#07559D"/>
<path d="M28.4022 35.6804C30.5401 35.6804 32.2732 33.9473 32.2732 31.8094C32.2732 29.6715 30.5401 27.9384 28.4022 27.9384C26.2644 27.9384 24.5312 29.6715 24.5312 31.8094C24.5312 33.9473 26.2644 35.6804 28.4022 35.6804Z" fill="#D3E5F3"/>
<path d="M12.6103 29.3295C10.4105 29.3295 8.34257 28.4729 6.78709 26.9174C5.23161 25.3621 4.375 23.294 4.375 21.0941C4.375 18.8944 5.23161 16.8263 6.78709 15.2708C8.34257 13.7153 10.4105 12.8587 12.6103 12.8587C14.81 12.8587 16.8781 13.7153 18.4336 15.2708C19.9891 16.8261 20.8457 18.8943 20.8457 21.0941C20.8457 23.294 19.9891 25.3619 18.4336 26.9174C16.8782 28.4729 14.8101 29.3295 12.6103 29.3295ZM12.6103 14.1261C8.76815 14.1261 5.64235 17.2519 5.64235 21.0941C5.64235 24.9364 8.76815 28.0622 12.6103 28.0622C16.4525 28.0622 19.5783 24.9364 19.5783 21.0941C19.5783 17.2519 16.4526 14.1261 12.6103 14.1261Z" fill="#07559D"/>
<path d="M12.6124 26.0424C15.3452 26.0424 17.5607 23.8269 17.5607 21.0941C17.5607 18.3612 15.3452 16.1458 12.6124 16.1458C9.87949 16.1458 7.66406 18.3612 7.66406 21.0941C7.66406 23.8269 9.87949 26.0424 12.6124 26.0424Z" fill="#D3E5F3"/>
<path d="M28.4069 21.6437C26.6642 21.6437 25.0259 20.9651 23.7936 19.7328C22.5612 18.5004 21.8828 16.8621 21.8828 15.1193C21.8828 13.3766 22.5612 11.7382 23.7936 10.506C25.0259 9.27379 26.6642 8.59509 28.4069 8.59509C30.1497 8.59509 31.788 9.27379 33.0203 10.506C34.2525 11.7382 34.9311 13.3766 34.9311 15.1193C34.9311 16.862 34.2525 18.5004 33.0203 19.7328C31.7881 20.965 30.1497 21.6437 28.4069 21.6437ZM28.4069 9.86231C25.5083 9.86231 23.1499 12.2206 23.1499 15.1193C23.1499 18.018 25.5083 20.3763 28.4069 20.3763C31.3056 20.3763 33.6639 18.018 33.6639 15.1193C33.6639 12.2206 31.3057 9.86231 28.4069 9.86231Z" fill="#07559D"/>
<path d="M28.4047 18.9536C30.5223 18.9536 32.239 17.2369 32.239 15.1193C32.239 13.0016 30.5223 11.2849 28.4047 11.2849C26.287 11.2849 24.5703 13.0016 24.5703 15.1193C24.5703 17.2369 26.287 18.9536 28.4047 18.9536Z" fill="#D3E5F3"/>
<path d="M39.6801 64H2.87772C1.29104 64 0 62.709 0 61.1222V39.1305C0 37.5439 1.29104 36.2528 2.87772 36.2528H39.6801C41.2668 36.2528 42.5578 37.5437 42.5578 39.1305V61.1222C42.5578 62.709 41.2668 64 39.6801 64ZM2.87759 37.5202C1.98964 37.5202 1.26735 38.2426 1.26735 39.1305V61.1222C1.26735 62.0102 1.98977 62.7326 2.87759 62.7326H39.68C40.5679 62.7326 41.2904 62.0102 41.2904 61.1222V39.1305C41.2904 38.2426 40.5678 37.5202 39.68 37.5202H2.87759Z" fill="#07559D"/>
<path d="M31.6763 37.5202H25.1247L24.9727 37.4272C24.028 36.8498 23.2382 36.0372 22.688 35.0773C22.1203 34.0869 21.8203 32.957 21.8203 31.8093C21.8203 30.0516 22.5046 28.3992 23.7476 27.1562C24.9904 25.9134 26.6429 25.2289 28.4005 25.2289C30.1582 25.2289 31.8106 25.9134 33.0536 27.1562C34.2964 28.3992 34.9809 30.0515 34.9809 31.8093C34.9809 32.9569 34.6808 34.0869 34.1131 35.0773C33.5629 36.0372 32.7729 36.8497 31.8284 37.4272L31.6763 37.5202ZM25.4868 36.253H31.3143C32.8201 35.2656 33.7136 33.6173 33.7136 31.8094C33.7136 28.8798 31.3302 26.4964 28.4005 26.4964C25.4709 26.4964 23.0875 28.8799 23.0875 31.8094C23.0875 33.6172 23.9811 35.2656 25.4868 36.253Z" fill="#07559D"/>
<path d="M34.1111 22.3284H32.8438V26.0311H34.1111V22.3284Z" fill="#07559D"/>
<path d="M7.15799 5.61023H5.89062V12.5107H7.15799V5.61023Z" fill="#07559D"/>
<path d="M19.2205 8.52753H17.9531V12.5108H19.2205V8.52753Z" fill="#07559D"/>
<path d="M13.2439 2.07574H11.9766V9.22866H13.2439V2.07574Z" fill="#07559D"/>
<path d="M25.7283 3.19788H24.4609V7.23711H25.7283V3.19788Z" fill="#07559D"/>
<path d="M33.4705 0H32.2031V7.23711H33.4705V0Z" fill="#07559D"/>
</svg>
