<svg width="34" height="24" viewBox="0 0 34 24" fill="none" xmlns="http://www.w3.org/2000/svg">
<path d="M8.78368 9.8C6.74 9.8 5.32422 8.11127 5.32422 6.02831V4.7708C5.32422 2.68784 6.74 1 8.78368 1C10.8274 1 12.2431 2.68784 12.2431 4.7708V6.02831C12.2431 8.11127 10.8274 9.8 8.78368 9.8Z" stroke="#07559D" stroke-width="2" stroke-miterlimit="10"/>
<path d="M1 23C1 23 1.56735 18.1046 1.86486 15.96C2.16238 13.8155 3.42162 12.44 5.32432 12.44H5.97297C6.65968 12.44 7.31266 12.7419 7.76412 13.2681L13.0917 19.48H18.2809C18.2809 19.48 18.6674 23 15.6863 23C13.9479 23 10.5135 23 10.5135 23L6.18919 18.6" stroke="#07559D" stroke-width="2" stroke-miterlimit="10" stroke-linecap="round" stroke-linejoin="round"/>
<path d="M14.3438 16.2698L17.4296 11.56H31.2674L26.0782 20.36H20.889" stroke="#07559D" stroke-width="2" stroke-miterlimit="10" stroke-linecap="round" stroke-linejoin="round"/>
<path d="M7.05469 23H33.0006" stroke="#07559D" stroke-width="2" stroke-miterlimit="10" stroke-linecap="round" stroke-linejoin="round"/>
</svg>
