<svg width="64" height="53" viewBox="0 0 64 53" fill="none" xmlns="http://www.w3.org/2000/svg">
<path d="M51.8541 32.3576V35.028C51.8541 36.0916 50.9918 36.954 49.9282 36.954C48.8644 36.954 48.0022 36.0916 48.0022 35.028C48.0022 36.0916 47.1399 36.954 46.0762 36.954C45.0126 36.954 44.1503 36.0916 44.1503 35.028V28.8963L40.9614 27.4635C40.444 28.9824 39.0498 30.0955 37.3819 30.1993V42.8714C37.3819 44.3272 36.2019 45.5071 34.7462 45.5071C33.2905 45.5071 32.1106 44.3271 32.1106 42.8714C32.1106 44.3272 30.9304 45.5071 29.4748 45.5071C28.0191 45.5071 26.8391 44.3271 26.8391 42.8714V30.2071C25.074 30.1926 23.5783 29.0493 23.0383 27.4635L20.0113 28.8236V35.0279C20.0113 36.0915 19.1489 36.9539 18.0853 36.9539C17.0215 36.9539 16.1593 36.0915 16.1593 35.0279C16.1593 36.0915 15.297 36.9539 14.2333 36.9539C13.1695 36.9539 12.3072 36.0915 12.3072 35.0279V32.2849L0 37.8145L32.0001 52.1919L64 37.8145L51.8541 32.3576Z" fill="#D3E5F3" />
<path d="M32.0012 11.556C29.282 11.556 27.0698 9.34397 27.0698 6.62481V4.93124C27.0698 2.21208 29.282 0 32.0012 0C34.7204 0 36.9326 2.21208 36.9326 4.93124V6.62481C36.9326 9.34397 34.7204 11.556 32.0012 11.556ZM32.0012 1.2802C29.9878 1.2802 28.3499 2.91811 28.3499 4.93137V6.62495C28.3499 8.6382 29.9879 10.2761 32.0012 10.2761C34.0144 10.2761 35.6525 8.6382 35.6525 6.62495V4.93137C35.6525 2.91798 34.0146 1.2802 32.0012 1.2802Z" fill="#07559D" />
<path d="M29.4747 46.1473C27.6685 46.1473 26.199 44.6778 26.199 42.8716V16.905C26.199 16.5516 26.4855 16.265 26.839 16.265C27.1924 16.265 27.479 16.5514 27.479 16.905V42.8715C27.479 43.9719 28.3744 44.8673 29.4748 44.8673C30.5754 44.8673 31.4706 43.9719 31.4706 42.8715V30.0156C31.4706 29.6622 31.7572 29.3756 32.1108 29.3756C32.4642 29.3756 32.7507 29.6622 32.7507 30.0156V42.8715C32.7504 44.6778 31.2809 46.1473 29.4747 46.1473Z" fill="#07559D" />
<path d="M34.7475 46.1473C32.9412 46.1473 31.4717 44.6778 31.4717 42.8716V30.0157C31.4717 29.6623 31.7583 29.3757 32.1119 29.3757C32.4653 29.3757 32.7518 29.6623 32.7518 30.0157V42.8716C32.7518 43.9721 33.6471 44.8674 34.7477 44.8674C35.8483 44.8674 36.7434 43.9721 36.7434 42.8716V16.905C36.7434 16.5516 37.0301 16.265 37.3835 16.265C37.737 16.265 38.0235 16.5514 38.0235 16.905V42.8715C38.0232 44.6778 36.5538 46.1473 34.7475 46.1473Z" fill="#07559D" />
<path d="M26.8373 30.8471C26.8356 30.8471 26.8339 30.8471 26.832 30.8471C25.5874 30.8369 24.4189 30.3445 23.5419 29.4607C22.6643 28.5763 22.181 27.4031 22.181 26.1572V14.4732C22.181 14.3502 22.2201 13.24 23.576 12.1889C25.2133 10.9197 28.0468 10.2761 31.9982 10.2761C35.9496 10.2761 38.7831 10.9196 40.4204 12.1889C41.7763 13.24 41.8154 14.3502 41.8154 14.4732V26.1575C41.8154 28.6289 39.8848 30.6849 37.4201 30.8383C37.2439 30.8493 37.0707 30.7869 36.9421 30.6659C36.8133 30.5451 36.7403 30.3762 36.7403 30.1996V16.9052C36.7403 16.5518 37.0269 16.2651 37.3803 16.2651C37.7337 16.2651 38.0204 16.5516 38.0204 16.9052V29.4488C39.4746 29.0538 40.5354 27.7197 40.5354 26.1576V14.4866C40.5299 14.4203 40.452 13.7753 39.4995 13.0993C38.5078 12.3954 36.4013 11.5563 31.9982 11.5563C27.595 11.5563 25.4886 12.3954 24.4969 13.0993C23.5444 13.7753 23.4665 14.4203 23.461 14.4866V26.1576C23.461 27.8018 24.6401 29.1855 26.1972 29.5004V16.9052C26.1972 16.5518 26.4837 16.2651 26.8372 16.2651C27.1906 16.2651 27.4772 16.5516 27.4772 16.9052V30.2074C27.4772 30.3781 27.4091 30.5416 27.2878 30.6617C27.1682 30.7804 27.0061 30.8471 26.8373 30.8471ZM40.5356 14.4732C40.5356 14.4732 40.5353 14.4767 40.5356 14.4835V14.4732ZM23.4611 14.4732V14.4835C23.4614 14.4767 23.4611 14.4732 23.4611 14.4732Z" fill="#07559D" />
<path d="M16.0801 12.3181C13.9982 12.3181 12.3044 10.6243 12.3044 8.5424V7.30508C12.3044 5.22313 13.9982 3.52942 16.0801 3.52942C18.1621 3.52942 19.8558 5.22313 19.8558 7.30508V8.5424C19.8558 10.6243 18.1621 12.3181 16.0801 12.3181ZM16.0801 4.80949C14.7041 4.80949 13.5845 5.92903 13.5845 7.30508V8.5424C13.5845 9.91858 14.7041 11.038 16.0801 11.038C17.4562 11.038 18.5757 9.91844 18.5757 8.5424V7.30508C18.5757 5.92903 17.4562 4.80949 16.0801 4.80949Z" fill="#07559D" />
<path d="M14.2313 37.5939C12.8164 37.5939 11.6654 36.4428 11.6654 35.028V16.0542C11.6654 15.7007 11.9519 15.4141 12.3054 15.4141C12.659 15.4141 12.9455 15.7007 12.9455 16.0542V35.028C12.9455 35.737 13.5225 36.314 14.2314 36.314C14.9406 36.314 15.5174 35.737 15.5174 35.028V25.6342C15.5174 25.2808 15.804 24.9942 16.1574 24.9942C16.5109 24.9942 16.7975 25.2808 16.7975 25.6342V35.028C16.7973 36.4428 15.6462 37.5939 14.2313 37.5939Z" fill="#07559D" />
<path d="M18.0846 37.5939C16.6697 37.5939 15.5186 36.4428 15.5186 35.028V25.6342C15.5186 25.2808 15.8052 24.9942 16.1586 24.9942C16.512 24.9942 16.7986 25.2808 16.7986 25.6342V35.028C16.7986 35.737 17.3756 36.314 18.0846 36.314C18.7936 36.314 19.3706 35.737 19.3706 35.028V16.0542C19.3706 15.7007 19.6571 15.4141 20.0106 15.4141C20.3642 15.4141 20.6506 15.7007 20.6506 16.0542V35.028C20.6506 36.4428 19.4995 37.5939 18.0846 37.5939Z" fill="#07559D" />
<path d="M12.3088 26.4141C12.3071 26.4141 12.3053 26.4141 12.3036 26.4141C11.3484 26.4062 10.4516 26.0284 9.77854 25.3502C9.10503 24.6715 8.73413 23.7712 8.73413 22.8149V14.2773C8.73413 14.1786 8.76464 13.2902 9.8202 12.4719C11.0474 11.5205 13.1536 11.038 16.0799 11.038C19.0062 11.038 21.1124 11.5204 22.3396 12.4719C23.3953 13.2902 23.4257 14.1786 23.4257 14.2773V22.8149C23.4257 24.7116 21.944 26.2896 20.0524 26.4072C19.8759 26.4183 19.7031 26.3559 19.5743 26.2348C19.4456 26.1139 19.3727 25.9451 19.3727 25.7684V16.0541C19.3727 15.7007 19.6592 15.4141 20.0127 15.4141C20.3663 15.4141 20.6528 15.7007 20.6528 16.0541V24.9825C21.5283 24.6481 22.1457 23.7978 22.1457 22.8148V14.2964C22.1382 14.238 22.0629 13.8235 21.4161 13.3821C20.7046 12.8967 19.2012 12.318 16.08 12.318C12.9589 12.318 11.4554 12.8967 10.7439 13.3821C10.097 13.8235 10.0217 14.2382 10.0142 14.2964V22.8148C10.0142 23.8593 10.7138 24.7492 11.6689 25.0366V16.0541C11.6689 15.7007 11.9554 15.4141 12.309 15.4141C12.6625 15.4141 12.949 15.7007 12.949 16.0541V25.7741C12.949 25.9448 12.8808 26.1083 12.7597 26.2284C12.6395 26.3474 12.4775 26.4141 12.3088 26.4141ZM22.1457 14.2773C22.1457 14.2773 22.1453 14.2824 22.1457 14.2922V14.2773ZM10.0141 14.2773V14.2922C10.0145 14.2824 10.0141 14.2773 10.0141 14.2773Z" fill="#07559D" />
<path d="M47.9225 12.3181C45.8407 12.3181 44.1469 10.6243 44.1469 8.5424V7.30508C44.1469 5.22313 45.8407 3.52942 47.9225 3.52942C50.0045 3.52942 51.6982 5.22313 51.6982 7.30508V8.5424C51.6982 10.6243 50.0045 12.3181 47.9225 12.3181ZM47.9225 4.80949C46.5465 4.80949 45.4269 5.92903 45.4269 7.30508V8.5424C45.4269 9.91858 46.5465 11.038 47.9225 11.038C49.2985 11.038 50.4181 9.91844 50.4181 8.5424V7.30508C50.4181 5.92903 49.2985 4.80949 47.9225 4.80949Z" fill="#07559D" />
<path d="M46.0748 37.5939C44.6601 37.5939 43.5089 36.4428 43.5089 35.028V16.0542C43.5089 15.7007 43.7955 15.4141 44.1489 15.4141C44.5024 15.4141 44.789 15.7007 44.789 16.0542V35.028C44.789 35.737 45.3658 36.314 46.0748 36.314C46.7839 36.314 47.3608 35.737 47.3608 35.028V25.6342C47.3608 25.2808 47.6474 24.9942 48.0008 24.9942C48.3543 24.9942 48.6409 25.2808 48.6409 25.6342V35.028C48.6409 36.4428 47.4897 37.5939 46.0748 37.5939Z" fill="#07559D" />
<path d="M49.927 37.5939C48.5121 37.5939 47.361 36.4428 47.361 35.028V25.6342C47.361 25.2808 47.6476 24.9942 48.001 24.9942C48.3544 24.9942 48.641 25.2808 48.641 25.6342V35.028C48.641 35.737 49.2179 36.314 49.927 36.314C50.636 36.314 51.2129 35.737 51.2129 35.028V16.0542C51.2129 15.7007 51.4995 15.4141 51.8529 15.4141C52.2063 15.4141 52.4929 15.7007 52.4929 16.0542V35.028C52.4929 36.4428 51.3419 37.5939 49.927 37.5939Z" fill="#07559D" />
<path d="M44.1514 26.4141C44.1495 26.4141 44.1479 26.4141 44.1461 26.4141C43.191 26.4062 42.2942 26.0284 41.6211 25.3502C40.9476 24.6715 40.5765 23.7712 40.5765 22.8149V14.2773C40.5765 14.1786 40.6071 13.2902 41.6628 12.4719C42.89 11.5205 44.996 11.038 47.9223 11.038C50.8486 11.038 52.9548 11.5204 54.182 12.4719C55.2377 13.2902 55.2681 14.1786 55.2681 14.2773V22.8149C55.2681 24.7116 53.7864 26.2896 51.8948 26.4072C51.7184 26.4183 51.5454 26.3559 51.4167 26.2348C51.288 26.1139 51.215 25.9451 51.215 25.7684V16.0541C51.215 15.7007 51.5016 15.4141 51.855 15.4141C52.2086 15.4141 52.495 15.7007 52.495 16.0541V24.9825C53.3707 24.6481 53.988 23.7978 53.988 22.8148V14.2964C53.9804 14.238 53.9052 13.8235 53.2583 13.3821C52.5468 12.8967 51.0433 12.318 47.9222 12.318C44.6392 12.318 43.1326 12.9518 42.4468 13.4833C42.1217 13.7354 41.975 13.9708 41.9092 14.1239C41.878 14.1968 41.8563 14.2769 41.8563 14.2773V22.8149C41.8563 23.8595 42.5561 24.7493 43.5112 25.0367V16.0541C43.5112 15.7007 43.7978 15.4141 44.1512 15.4141C44.5047 15.4141 44.7913 15.7007 44.7913 16.0541V25.7741C44.7913 25.9448 44.7231 26.1083 44.602 26.2284C44.4822 26.3474 44.3201 26.4141 44.1514 26.4141ZM53.9883 14.2773C53.9883 14.2773 53.9879 14.2824 53.9883 14.2922V14.2773Z" fill="#07559D" />
</svg>