<svg width="58" height="64" viewBox="0 0 58 64" fill="none" xmlns="http://www.w3.org/2000/svg">
    <path d="M21.1621 5.39571L25.9393 0.627319H24.4797H21.5513L21.1621 1.01588V5.39571Z" fill="#D3E5F3" />
    <path d="M36.7768 4.21198L29.0713 11.9031H33.4592L36.7768 6.56509V4.21198Z" fill="#D3E5F3" />
    <path d="M24.3137 11.6391L35.3463 0.627319H33.4581H30.9584L22.6338 8.93614L24.3137 11.6391Z" fill="#D3E5F3" />
    <path d="M57.3715 64H0.628556C0.281304 64 0 63.7191 0 63.3725V32.4841C0 32.1375 0.281435 31.8566 0.628556 31.8566H6.1198C6.46706 31.8566 6.74849 32.1375 6.74849 32.4841V35.451H51.2516V32.4841C51.2516 32.1375 51.5331 31.8566 51.8802 31.8566H57.3715C57.7187 31.8566 58 32.1375 58 32.4841V63.3725C58 63.7191 57.7186 64 57.3715 64ZM1.25722 62.7452H56.7428V33.1115H52.5088V36.0785C52.5088 36.4251 52.2273 36.706 51.8802 36.706H6.1198C5.77255 36.706 5.49114 36.4251 5.49114 36.0785V33.1115H1.25722V62.7452Z" fill="#07559D" />
    <path d="M8.15026 39.3575H5.8623V60.4538H8.15026V39.3575Z" fill="#D3E5F3" />
    <path d="M15.4735 39.3575H13.1855V60.4538H15.4735V39.3575Z" fill="#D3E5F3" />
    <path d="M22.7958 39.3575H20.5078V60.4538H22.7958V39.3575Z" fill="#D3E5F3" />
    <path d="M30.1141 39.3575H27.8262V60.4538H30.1141V39.3575Z" fill="#D3E5F3" />
    <path d="M37.4364 39.3575H35.1484V60.4538H37.4364V39.3575Z" fill="#D3E5F3" />
    <path d="M44.7587 39.3575H42.4707V60.4538H44.7587V39.3575Z" fill="#D3E5F3" />
    <path d="M52.0819 39.3575H49.7939V60.4538H52.0819V39.3575Z" fill="#D3E5F3" />
    <path d="M33.4619 12.5306H24.4815C24.264 12.5306 24.0619 12.4185 23.9472 12.2339L20.6296 6.89569C20.5679 6.79642 20.5352 6.68181 20.5352 6.56497V0.627358C20.5352 0.280763 20.8167 0 21.1638 0H36.7795C37.1268 0 37.4082 0.280895 37.4082 0.627358V6.56497C37.4082 6.68181 37.3755 6.79642 37.3137 6.89569L33.9961 12.2339C33.8816 12.4184 33.6796 12.5306 33.4619 12.5306ZM24.8313 11.2758H33.1122L36.151 6.38636V1.25498H21.7925V6.38636L24.8313 11.2758Z" fill="#07559D" />
    <path d="M28.9689 23.4178C26.6491 23.4178 24.7617 21.5341 24.7617 19.2185C24.7617 18.872 25.0431 18.591 25.3903 18.591C25.7374 18.591 26.0189 18.872 26.0189 19.2185C26.0189 20.8421 27.3423 22.163 28.9689 22.163C30.5956 22.163 31.9189 20.8421 31.9189 19.2185C31.9189 17.558 31.0524 16.5737 30.1352 15.5315C29.2527 14.529 28.3402 13.4925 28.3402 11.9031C28.3402 11.5565 28.6218 11.2756 28.9689 11.2756C29.3161 11.2756 29.5975 11.5565 29.5975 11.9031C29.5975 13.0195 30.2845 13.7998 31.0796 14.7033C32.0623 15.8198 33.1762 17.0851 33.1762 19.2185C33.1762 21.5341 31.2889 23.4178 28.9689 23.4178Z" fill="#07559D" />
    <path d="M54.7758 35.4965C54.6782 35.4965 54.5793 35.4736 54.4868 35.4257L29.0021 22.2152L3.58119 35.4254C3.27323 35.5854 2.89365 35.466 2.73336 35.1587C2.57294 34.8513 2.69251 34.4724 3.00061 34.3123L28.7113 20.9514C28.8933 20.8569 29.1095 20.8567 29.2914 20.9512L55.0661 34.312C55.3743 34.4718 55.4942 34.8505 55.3342 35.158C55.2224 35.3731 55.003 35.4965 54.7758 35.4965Z" fill="#07559D" />
</svg>