<svg width="26" height="34" viewBox="0 0 26 34" fill="none" xmlns="http://www.w3.org/2000/svg">
<path d="M10.5993 5.86957H24.9993V33H3.74219V5.86957H9.91362" stroke="#07559D" stroke-width="2" stroke-miterlimit="10" stroke-linejoin="round"/>
<path d="M12.6562 3.08696H22.942" stroke="#07559D" stroke-width="2" stroke-miterlimit="10" stroke-linejoin="round"/>
<path d="M1 30.2174V3.08696H5.8" stroke="#07559D" stroke-width="2" stroke-miterlimit="10" stroke-linejoin="round"/>
<path d="M7.85759 7.95652V10.0435C7.85759 10.8115 8.47199 11.4348 9.22902 11.4348H9.91473C10.6718 11.4348 11.2862 10.8115 11.2862 10.0435V2.3913C11.2862 1.6233 10.6718 1 9.91473 1H8.5433C7.78627 1 7.17188 1.6233 7.17188 2.3913V5.86957" stroke="#07559D" stroke-width="2" stroke-miterlimit="10" stroke-linejoin="round"/>
<path d="M11.2852 23.2609H18.1423" stroke="#07559D" stroke-width="2" stroke-miterlimit="10"/>
<path d="M11.2852 20.4783H18.1423" stroke="#07559D" stroke-width="2" stroke-miterlimit="10"/>
<path d="M19.5141 14.2174L14.7141 20.4783L9.91406 14.2174" stroke="#07559D" stroke-width="2" stroke-miterlimit="10"/>
<path d="M14.7148 27.4348V20.4783" stroke="#07559D" stroke-width="2" stroke-miterlimit="10"/>
</svg>
