<svg width="56" height="64" viewBox="0 0 56 64" fill="none" xmlns="http://www.w3.org/2000/svg">
    <path d="M29.5245 51.2164L34.8011 43.9539L36.6986 48.9062C37.689 48.4356 38.6515 47.9007 39.5794 47.3037C44.1584 43.7713 47.1106 38.2116 47.1106 31.9582C47.1106 21.2844 38.509 12.6316 27.8986 12.6316C27.4455 12.6316 26.996 12.6478 26.5507 12.6788L21.198 20.0459L19.3004 15.0937C17.7027 15.8527 16.1779 16.7791 14.7539 17.8634C11.0194 21.3892 8.68652 26.3996 8.68652 31.9582C8.68652 42.6321 17.2881 51.2848 27.8985 51.2848C28.4461 51.285 28.9884 51.2616 29.5245 51.2164Z" fill="#D3E5F3" />
    <path fill-rule="evenodd" clip-rule="evenodd" d="M22.2998 36C22.2998 35.6134 22.6132 35.3 22.9998 35.3H32.9998C33.3864 35.3 33.6998 35.6134 33.6998 36C33.6998 36.3866 33.3864 36.7 32.9998 36.7H22.9998C22.6132 36.7 22.2998 36.3866 22.2998 36Z" fill="#07559D" />
    <path fill-rule="evenodd" clip-rule="evenodd" d="M22.2998 32C22.2998 31.6134 22.6132 31.3 22.9998 31.3H32.9998C33.3864 31.3 33.6998 31.6134 33.6998 32C33.6998 32.3866 33.3864 32.7 32.9998 32.7H22.9998C22.6132 32.7 22.2998 32.3866 22.2998 32Z" fill="#07559D" />
    <path fill-rule="evenodd" clip-rule="evenodd" d="M20.5701 22.4475C20.8752 22.2101 21.315 22.2651 21.5524 22.5703L27.9998 30.8598L34.4473 22.5703C34.6846 22.2651 35.1244 22.2101 35.4296 22.4475C35.7348 22.6848 35.7897 23.1246 35.5524 23.4298L27.9998 33.1402L20.4473 23.4298C20.2099 23.1246 20.2649 22.6848 20.5701 22.4475Z" fill="#07559D" />
    <path fill-rule="evenodd" clip-rule="evenodd" d="M27.9998 31.3C28.3864 31.3 28.6998 31.6134 28.6998 32V42C28.6998 42.3866 28.3864 42.7 27.9998 42.7C27.6132 42.7 27.2998 42.3866 27.2998 42V32C27.2998 31.6134 27.6132 31.3 27.9998 31.3Z" fill="#07559D" />
    <path d="M7.1793 50.5714C7.00254 50.5714 6.82685 50.4963 6.70358 50.35C4.89194 48.203 3.41073 45.7973 2.30133 43.1994C1.20181 40.6249 0.487154 37.9086 0.176853 35.1258C-0.467229 29.3487 0.655376 23.585 3.42314 18.4579C4.85791 15.8004 6.6841 13.4104 8.85114 11.3543C10.8079 9.49785 13.0159 7.93762 15.421 6.71075L13.1767 0.853137C13.0854 0.615198 13.1465 0.345453 13.3312 0.170588C13.5157 -0.00414177 13.787 -0.0492333 14.0177 0.0566516L30.1763 7.4757C30.3468 7.55394 30.4734 7.70533 30.5207 7.88784C30.5681 8.07035 30.5314 8.26454 30.4208 8.41686L21.7024 20.4163C21.5678 20.6017 21.3432 20.6983 21.1168 20.6681C20.8907 20.6379 20.6989 20.486 20.6167 20.2717L18.9638 15.9578C14.3901 18.2805 10.6864 21.8989 8.2252 26.4577C6.80336 29.0914 5.86499 31.9161 5.43609 34.8536C5.38607 35.1965 5.06923 35.4335 4.72838 35.3832C4.38753 35.3328 4.1518 35.0141 4.20196 34.6712C4.6522 31.5874 5.637 28.6225 7.12888 25.8587C8.48975 23.3379 10.2259 21.075 12.2893 19.133C14.2845 17.255 16.554 15.7051 19.0346 14.5262C19.1915 14.4518 19.3719 14.4463 19.5329 14.5111C19.6939 14.5759 19.8208 14.7051 19.8831 14.8679L21.3695 18.7474L28.9619 8.29769L14.8903 1.83683L16.7894 6.79383C16.9063 7.09873 16.7709 7.44282 16.4782 7.58481C11.3694 10.061 7.234 14.028 4.51907 19.0569C-0.751647 28.8202 0.508234 41.0695 7.6541 49.5378C7.87702 49.802 7.84487 50.1979 7.58219 50.4222C7.46546 50.5224 7.32205 50.5714 7.1793 50.5714Z" fill="#07559D" />
    <path d="M42.2401 64C42.1525 64 42.0643 63.9815 41.9813 63.9434L25.8227 56.5243C25.6522 56.4461 25.5256 56.2947 25.4783 56.1123C25.4309 55.9298 25.4675 55.7356 25.5782 55.5833L34.2966 43.5838C34.4312 43.3985 34.6559 43.3019 34.882 43.3321C35.1083 43.3621 35.3001 43.5142 35.3822 43.7284L37.0351 48.0424C41.6089 45.7196 45.3125 42.1014 47.7737 37.5425C49.1954 34.9088 50.1337 32.084 50.5626 29.1466C50.6127 28.8037 50.9296 28.5668 51.2705 28.617C51.6112 28.6673 51.8469 28.9861 51.7969 29.329C51.3467 32.4128 50.3619 35.3777 48.87 38.1414C47.5091 40.6623 45.7729 42.9252 43.7096 44.8672C41.7144 46.7452 39.4448 48.2951 36.9641 49.4739C36.8073 49.5484 36.6268 49.5539 36.4658 49.4891C36.3049 49.4244 36.1781 49.2951 36.1156 49.1323L34.6292 45.2528L27.0369 55.7025L41.1085 62.1634L39.2092 57.2064C39.0924 56.9014 39.2277 56.5574 39.5204 56.4154C44.6292 53.9393 48.7646 49.9724 51.4795 44.9434C56.7504 35.1801 55.4904 22.9308 48.3445 14.4624C48.1216 14.1982 48.1537 13.8023 48.4164 13.578C48.6791 13.3538 49.0726 13.3861 49.2955 13.6503C51.1072 15.7973 52.5883 18.203 53.6978 20.8009C54.7973 23.3755 55.512 26.0918 55.8223 28.8746C56.4664 34.6518 55.3438 40.4153 52.576 45.5424C51.1412 48.2 49.315 50.5899 47.148 52.6459C45.1912 54.5023 42.9832 56.0627 40.578 57.2894L42.8225 63.147C42.9136 63.385 42.8526 63.6547 42.668 63.8295C42.5496 63.9414 42.396 64 42.2401 64Z" fill="#07559D" />
</svg>