<svg width="34" height="32" viewBox="0 0 34 32" fill="none" xmlns="http://www.w3.org/2000/svg">
<path d="M20.8242 14.6364H24.3025" stroke="#07559D" stroke-width="2" stroke-miterlimit="10" stroke-linecap="round" stroke-linejoin="round"/>
<path d="M22.5671 14.6363V9.18176H21.1758" stroke="#07559D" stroke-width="2" stroke-miterlimit="10" stroke-linecap="round" stroke-linejoin="round"/>
<path d="M22.5664 6.11365V6.79547" stroke="#07559D" stroke-width="2" stroke-miterlimit="10" stroke-linecap="round" stroke-linejoin="round"/>
<path d="M6.56522 25.9852V28.3041C6.56522 28.917 6.10747 29.455 5.44313 29.6241L1 31" stroke="#07559D" stroke-width="2" stroke-miterlimit="10" stroke-linecap="round" stroke-linejoin="round"/>
<path d="M12.1289 27.4314V28.3041C12.1289 28.917 12.5866 29.455 13.251 29.6241L17.6941 31" stroke="#07559D" stroke-width="2" stroke-miterlimit="10" stroke-linecap="round" stroke-linejoin="round"/>
<path d="M8.38288 26.9192C6.13731 26.3465 4.45312 23.9826 4.45312 21.6426V18.3979C4.45312 17.3165 6.05868 16.0858 7.86738 15.3338" stroke="#07559D" stroke-width="2" stroke-miterlimit="10" stroke-linecap="round" stroke-linejoin="round"/>
<path d="M7.21094 13.5305C7.21094 16.2346 12.8249 18.7273 14.7915 18.6564" stroke="#07559D" stroke-width="2" stroke-miterlimit="10" stroke-linecap="round" stroke-linejoin="round"/>
<path d="M14.2188 22.8181V18.7272" stroke="#07559D" stroke-width="2" stroke-miterlimit="10" stroke-linecap="round" stroke-linejoin="round"/>
<path d="M10.7391 26.2272V27.5908C14.0783 27.5908 16.3043 24.9808 16.3043 22.8181L17.6957 22.1363V18.0454L16.3043 17.3636V16.6817C16.3043 12.7995 13.3437 9.20425 9.34783 9.20425C5.352 9.20425 2.3913 12.3515 2.3913 16.2345V17.3636L1 18.0454V22.1363L2.66956 22.8529" stroke="#07559D" stroke-width="2" stroke-miterlimit="10" stroke-linecap="round" stroke-linejoin="round"/>
<path d="M19.9352 21.1157C20.3394 21.2186 20.5384 21.2568 20.9599 21.312C20.9599 21.312 20.9418 23.8266 20.507 25.5454C23.6952 24.6366 25.2883 21.102 25.2883 21.102L25.2542 21.0993C29.7112 19.9348 32.9996 15.9625 32.9996 11.2273C32.9996 5.57909 28.3276 1 22.5648 1C18.1432 1 14.3637 3.69523 12.8438 7.50113" stroke="#07559D" stroke-width="2" stroke-miterlimit="10" stroke-linecap="round" stroke-linejoin="round"/>
</svg>
