<?xml version="1.0" encoding="utf-8"?>
<!-- Generator: Adobe Illustrator 16.0.3, SVG Export Plug-In . SVG Version: 6.00 Build 0)  -->
<!DOCTYPE svg PUBLIC "-//W3C//DTD SVG 1.1//EN" "http://www.w3.org/Graphics/SVG/1.1/DTD/svg11.dtd">
<svg version="1.1" id="Layer_1" xmlns="http://www.w3.org/2000/svg" xmlns:xlink="http://www.w3.org/1999/xlink" x="0px" y="0px"
	 width="30px" height="30px" viewBox="0 0 30 30" enable-background="new 0 0 30 30" xml:space="preserve">
<path fill="none" stroke="#A8A7AA" stroke-width="2" stroke-linecap="round" stroke-miterlimit="10" d="M7.666,23.668h-4v4"/>
<path fill="none" stroke="#A8A7AA" stroke-width="2" stroke-linecap="round" stroke-miterlimit="10" d="M27.741,9.312
	C28.564,11.117,28.995,13.058,29,15c0.006,3.59-1.398,7.184-4.145,9.931C22.151,27.637,18.578,28.965,15,29
	c-3.911,0.039-6.774-1.156-9.333-3.332c-0.453-0.386-2-2.001-2-2.001"/>
<path fill="none" stroke="#A8A7AA" stroke-width="2" stroke-linecap="round" stroke-miterlimit="10" d="M2.258,20.689
	C1.436,18.885,1.004,16.943,1,15.001C0.993,11.41,2.397,7.817,5.144,5.07C7.849,2.365,11.421,1.036,15,1.001
	c3.91-0.039,6.773,1.156,9.334,3.333c0.453,0.385,2,2,2,2"/>
<path fill="none" stroke="#A8A7AA" stroke-width="2" stroke-linecap="round" stroke-miterlimit="10" d="M22.334,6.334h4v-4"/>
<path fill="none" stroke="#A8A7AA" stroke-width="2" stroke-linejoin="round" stroke-miterlimit="10" d="M19,9.667h2.666
	c0.368,0,0.666,0.299,0.666,0.667v10c0,0.368-0.298,0.667-0.666,0.667H8.333c-0.368,0-0.667-0.299-0.667-0.667v-10
	c0-0.368,0.299-0.667,0.667-0.667H19z"/>
<path fill="none" stroke="#A8A7AA" stroke-width="2" stroke-linecap="round" stroke-linejoin="round" stroke-miterlimit="10" d="
	M19,8.334v2.667"/>
<path fill="none" stroke="#A8A7AA" stroke-width="2" stroke-linecap="round" stroke-linejoin="round" stroke-miterlimit="10" d="
	M11,8.334v2.667"/>
<path fill="none" stroke="#A8A7AA" stroke-width="2" stroke-linejoin="round" stroke-miterlimit="10" d="M7.666,13.667h14.666"/>
</svg>
