<?xml version="1.0" encoding="utf-8"?>
<!-- Generator: Adobe Illustrator 16.0.3, SVG Export Plug-In . SVG Version: 6.00 Build 0)  -->
<!DOCTYPE svg PUBLIC "-//W3C//DTD SVG 1.1//EN" "http://www.w3.org/Graphics/SVG/1.1/DTD/svg11.dtd">
<svg version="1.1" id="Layer_1" xmlns="http://www.w3.org/2000/svg" xmlns:xlink="http://www.w3.org/1999/xlink" x="0px" y="0px"
	 width="30px" height="30px" viewBox="0 0 30 30" enable-background="new 0 0 30 30" xml:space="preserve">
<path fill="none" stroke="#A8A7AA" stroke-width="2" stroke-linecap="round" stroke-linejoin="round" stroke-miterlimit="10" d="
	M4.043,15h1.826"/>
<path fill="none" stroke="#A8A7AA" stroke-width="2" stroke-linecap="round" stroke-linejoin="round" stroke-miterlimit="10" d="
	M8.305,15h1.826"/>
<path fill="none" stroke="#A8A7AA" stroke-width="2" stroke-linecap="round" stroke-linejoin="round" stroke-miterlimit="10" d="
	M12.564,15h1.826"/>
<path fill="none" stroke="#A8A7AA" stroke-width="2" stroke-linecap="round" stroke-linejoin="round" stroke-miterlimit="10" d="
	M16.826,15h1.826"/>
<path fill="none" stroke="#A8A7AA" stroke-width="2" stroke-linecap="round" stroke-linejoin="round" stroke-miterlimit="10" d="
	M8.304,7.941c-0.47,0-0.894,0.176-1.217,0.458C6.763,8.118,6.339,7.941,5.869,7.941c-1.009,0-1.826,0.79-1.826,1.765
	c0,0.975,0.817,1.765,1.826,1.765c0.47,0,0.894-0.177,1.217-0.458c0.324,0.282,0.748,0.458,1.217,0.458
	c1.009,0,1.826-0.79,1.826-1.765C10.13,8.731,9.313,7.941,8.304,7.941z"/>
<path fill="none" stroke="#A8A7AA" stroke-width="2" stroke-linecap="round" stroke-linejoin="round" stroke-miterlimit="10" d="
	M21.391,5H1.913C1.408,5,1,5.395,1,5.882v11.764c0,0.488,0.408,0.883,0.913,0.883h19.478c0.506,0,0.914-0.395,0.914-0.883V5.882
	C22.305,5.395,21.896,5,21.391,5z"/>
<path fill="none" stroke="#A8A7AA" stroke-width="2" stroke-linecap="round" stroke-linejoin="round" stroke-miterlimit="10" d="
	M7.695,20.294v3.823C7.695,24.605,8.104,25,8.608,25h19.478C28.592,25,29,24.605,29,24.117V12.353c0-0.488-0.408-0.882-0.914-0.882
	H24.13"/>
<path fill="none" stroke="#A8A7AA" stroke-width="2" stroke-linecap="round" stroke-linejoin="round" stroke-miterlimit="10" d="
	M7.695,21.471H29"/>
</svg>
