<?xml version="1.0" encoding="utf-8"?>
<!-- Generator: Adobe Illustrator 16.0.3, SVG Export Plug-In . SVG Version: 6.00 Build 0)  -->
<!DOCTYPE svg PUBLIC "-//W3C//DTD SVG 1.1//EN" "http://www.w3.org/Graphics/SVG/1.1/DTD/svg11.dtd">
<svg version="1.1" id="Layer_1" xmlns="http://www.w3.org/2000/svg" xmlns:xlink="http://www.w3.org/1999/xlink" x="0px" y="0px"
	 width="30px" height="30px" viewBox="0 0 30 30" enable-background="new 0 0 30 30" xml:space="preserve">
<path fill="none" stroke="#A8A7AA" stroke-width="2" stroke-miterlimit="10" d="M20.91,1.851H29v16.042h-1.867"/>
<path fill="none" stroke="#A8A7AA" stroke-width="2" stroke-miterlimit="10" d="M7.223,9.872h1.245"/>
<path fill="none" stroke="#A8A7AA" stroke-width="2" stroke-miterlimit="10" d="M12.535,11.816c1.104,0,2-0.896,2-2
	c0-1.105-0.896-2-2-2s-2,0.895-2,2C10.535,10.921,11.431,11.816,12.535,11.816z"/>
<path fill="none" stroke="#A8A7AA" stroke-width="2" stroke-miterlimit="10" d="M17.178,4.82H5.355c0,1.022-0.334,1.351-1.365,1.351
	v7.431c1.245,0,1.365,0.306,1.365,1.329h11.822"/>
<path fill="none" stroke="#A8A7AA" stroke-width="2" stroke-miterlimit="10" d="M20.91,4.82h3.733c0,1.234,0.325,1.387,1.356,1.387
	v3.666"/>
<path fill="none" stroke="#A8A7AA" stroke-width="2" stroke-miterlimit="10" d="M19.045,0v2.468"/>
<path fill="none" stroke="#A8A7AA" stroke-width="2" stroke-miterlimit="10" d="M19.045,4.319v2.468"/>
<path fill="none" stroke="#A8A7AA" stroke-width="2" stroke-miterlimit="10" d="M19.045,8.638v2.468"/>
<path fill="none" stroke="#A8A7AA" stroke-width="2" stroke-miterlimit="10" d="M19.045,12.958v2.468"/>
<path fill="none" stroke="#A8A7AA" stroke-width="2" stroke-miterlimit="10" d="M19.045,19.127l-1.244-1.233H1V1.851h16.179"/>
<path fill="none" stroke="#A8A7AA" stroke-width="2" stroke-miterlimit="10" d="M15.937,20.361l-2.489-2.468"/>
<path fill="none" stroke="#A8A7AA" stroke-width="2" stroke-miterlimit="10" d="M17.8,20.979l-3.699,3.669
	c-0.433-0.358-0.982-0.583-1.59-0.583c-1.375,0-2.489,1.104-2.489,2.467c0,1.363,1.114,2.469,2.489,2.469
	c1.141,0,1.692-0.791,2.178-1.234l9.956-9.872c1.036-1.027,1.244-2.247,1.244-3.701V12.34l-5.6,5.553"/>
<path fill="none" stroke="#A8A7AA" stroke-width="2" stroke-miterlimit="10" d="M22.158,22.83l1.832,1.817
	c0.433-0.358,0.982-0.583,1.59-0.583c1.375,0,2.489,1.104,2.489,2.468c0,1.362-1.114,2.468-2.489,2.468
	c-1.141,0-1.691-0.791-2.178-1.234l-3.111-3.085"/>
</svg>
