<?xml version="1.0" encoding="utf-8"?>
<!-- Generator: Adobe Illustrator 16.0.3, SVG Export Plug-In . SVG Version: 6.00 Build 0)  -->
<!DOCTYPE svg PUBLIC "-//W3C//DTD SVG 1.1//EN" "http://www.w3.org/Graphics/SVG/1.1/DTD/svg11.dtd">
<svg version="1.1" id="Layer_1" xmlns="http://www.w3.org/2000/svg" xmlns:xlink="http://www.w3.org/1999/xlink" x="0px" y="0px"
	 width="30px" height="30px" viewBox="0 0 30 30" enable-background="new 0 0 30 30" xml:space="preserve">
<path fill="none" stroke="#A8A7AA" stroke-width="2" stroke-linecap="round" stroke-linejoin="round" stroke-miterlimit="10" d="
	M26.093,3.954h2.256c0.36,0,0.651,0.292,0.651,0.651v22.14c0,0.359-0.291,0.651-0.651,0.651H1.651C1.292,27.396,1,27.104,1,26.744
	V4.604c0-0.359,0.292-0.651,0.651-0.651h2.255"/>
<path fill="none" stroke="#A8A7AA" stroke-width="2" stroke-linejoin="round" stroke-miterlimit="10" d="M1,9.163h28"/>
<path fill="none" stroke="#A8A7AA" stroke-width="2" stroke-linecap="round" stroke-linejoin="round" stroke-miterlimit="10" d="
	M23.139,2v3"/>
<path fill="none" stroke="#A8A7AA" stroke-width="2" stroke-linecap="round" stroke-linejoin="round" stroke-miterlimit="10" d="
	M9.814,3.954h10.372"/>
<path fill="none" stroke="#A8A7AA" stroke-width="2" stroke-linecap="round" stroke-linejoin="round" stroke-miterlimit="10" d="
	M6.861,2v3"/>
<path fill="none" stroke="#A8A7AA" stroke-width="2" stroke-linejoin="round" stroke-miterlimit="10" d="M10,18c1.104,0,2-0.896,2-2
	s-0.896-2-2-2s-2,0.896-2,2S8.896,18,10,18z"/>
<path fill="none" stroke="#A8A7AA" stroke-width="2" stroke-linejoin="round" stroke-miterlimit="10" d="M19,23
	c-1.104,0-2-0.896-2-2s0.896-2,2-2s2,0.896,2,2S20.104,23,19,23z"/>
<path fill="none" stroke="#A8A7AA" stroke-width="2" stroke-linejoin="round" stroke-miterlimit="10" d="M10.768,22.838l7.162-9.117
	"/>
</svg>
