<?xml version="1.0" encoding="utf-8"?>
<!-- Generator: Adobe Illustrator 16.0.3, SVG Export Plug-In . SVG Version: 6.00 Build 0)  -->
<!DOCTYPE svg PUBLIC "-//W3C//DTD SVG 1.1//EN" "http://www.w3.org/Graphics/SVG/1.1/DTD/svg11.dtd">
<svg version="1.1" id="Layer_1" xmlns="http://www.w3.org/2000/svg" xmlns:xlink="http://www.w3.org/1999/xlink" x="0px" y="0px"
	 width="30px" height="30px" viewBox="0 0 30 30" enable-background="new 0 0 30 30" xml:space="preserve">
<path fill="none" stroke="#A8A7AA" stroke-width="2" stroke-linecap="round" stroke-linejoin="round" stroke-miterlimit="10" d="
	M18.818,22.637c2.459,0,4.454-0.855,4.454-1.909c0-1.055-1.995-1.909-4.454-1.909c-2.461,0-4.455,0.854-4.455,1.909
	C14.363,21.781,16.357,22.637,18.818,22.637z"/>
<path fill="none" stroke="#A8A7AA" stroke-width="2" stroke-linecap="round" stroke-linejoin="round" stroke-miterlimit="10" d="
	M23.272,20.728v3.182c0,1.054-1.995,1.909-4.454,1.909c-2.461,0-4.455-0.855-4.455-1.909v-3.182"/>
<path fill="none" stroke="#A8A7AA" stroke-width="2" stroke-linecap="round" stroke-linejoin="round" stroke-miterlimit="10" d="
	M14.363,23.909v3.182c0,1.055,1.994,1.909,4.455,1.909c2.459,0,4.454-0.854,4.454-1.909v-3.182"/>
<path fill="none" stroke="#A8A7AA" stroke-width="2" stroke-linecap="round" stroke-linejoin="round" stroke-miterlimit="10" d="
	M29,17.545v3.182c0,0.963-1.659,1.758-3.818,1.891"/>
<path fill="none" stroke="#A8A7AA" stroke-width="2" stroke-linecap="round" stroke-linejoin="round" stroke-miterlimit="10" d="
	M24.547,16.273c2.459,0,4.454-0.855,4.454-1.91c0-1.055-1.995-1.909-4.454-1.909c-2.461,0-4.455,0.854-4.455,1.909
	C20.092,15.418,22.086,16.273,24.547,16.273z"/>
<path fill="none" stroke="#A8A7AA" stroke-width="2" stroke-linecap="round" stroke-linejoin="round" stroke-miterlimit="10" d="
	M20.092,16.909v-2.545"/>
<path fill="none" stroke="#A8A7AA" stroke-width="2" stroke-linecap="round" stroke-linejoin="round" stroke-miterlimit="10" d="
	M29,14.364v3.181c0,0.997-1.783,1.816-4.057,1.902"/>
<path fill="none" stroke="#A8A7AA" stroke-width="2" stroke-linecap="round" stroke-linejoin="round" stroke-miterlimit="10" d="
	M25.18,25.799c2.159-0.132,3.818-0.928,3.818-1.89v-3.182"/>
<path fill="none" stroke="#A8A7AA" stroke-width="2" stroke-linecap="round" stroke-linejoin="round" stroke-miterlimit="10" d="
	M11.818,22.637H2.273C1.57,22.637,1,22.066,1,21.363V4.182c0-0.702,0.57-1.272,1.273-1.272h21.636c0.702,0,1.272,0.57,1.272,1.272
	v6.364"/>
<path fill="none" stroke="#A8A7AA" stroke-width="2" stroke-linecap="round" stroke-linejoin="round" stroke-miterlimit="10" d="
	M6.092,1v3.818"/>
<path fill="none" stroke="#A8A7AA" stroke-width="2" stroke-linecap="round" stroke-linejoin="round" stroke-miterlimit="10" d="
	M20.092,1v3.818"/>
<path fill="none" stroke="#A8A7AA" stroke-width="2" stroke-linecap="round" stroke-linejoin="round" stroke-miterlimit="10" d="
	M1,7.364h24.182"/>
<path fill="none" stroke="#A8A7AA" stroke-width="2" stroke-miterlimit="10" d="M9.273,11.182h1.909"/>
<path fill="none" stroke="#A8A7AA" stroke-width="2" stroke-miterlimit="10" d="M12.455,11.182h1.909"/>
<path fill="none" stroke="#A8A7AA" stroke-width="2" stroke-miterlimit="10" d="M17.546,11.182h-1.909"/>
<path fill="none" stroke="#A8A7AA" stroke-width="2" stroke-miterlimit="10" d="M6.092,14.364h1.909"/>
<path fill="none" stroke="#A8A7AA" stroke-width="2" stroke-miterlimit="10" d="M9.273,14.364h1.909"/>
<path fill="none" stroke="#A8A7AA" stroke-width="2" stroke-miterlimit="10" d="M12.455,14.364h1.909"/>
<path fill="none" stroke="#A8A7AA" stroke-width="2" stroke-miterlimit="10" d="M17.546,14.364h-1.909"/>
<path fill="none" stroke="#A8A7AA" stroke-width="2" stroke-miterlimit="10" d="M6.092,17.545h1.909"/>
<path fill="none" stroke="#A8A7AA" stroke-width="2" stroke-miterlimit="10" d="M9.273,17.545h1.909"/>
<path fill="none" stroke="#A8A7AA" stroke-width="2" stroke-miterlimit="10" d="M12.455,17.545h1.909"/>
</svg>
