<svg xmlns="http://www.w3.org/2000/svg" viewBox="0 0 22.28 12.98"><defs><style>.cls-1{fill:#fff;stroke:#fff;stroke-miterlimit:10;stroke-width:0.22px;}</style></defs><g id="Слой_2" data-name="Слой 2"><g id="Capa_1" data-name="Capa 1"><path class="cls-1" d="M11.14,1a.43.43,0,0,1-.27-.76.44.44,0,0,1,.5,0,.45.45,0,0,1,.2.45A.44.44,0,0,1,11.14,1Z"/><path class="cls-1" d="M22.07,6.76h0a.45.45,0,0,0,0-.55h0a19.8,19.8,0,0,0-2.51-2.5A15.52,15.52,0,0,0,13.25.35l-.05,0a.44.44,0,1,0-.19.85h.06A14.65,14.65,0,0,1,19,4.35c.28.24.54.47.78.7A21.06,21.06,0,0,0,17.6,3.87l-.12-.05a15.22,15.22,0,0,0-6.34-1.49A15,15,0,0,0,5.3,3.6S3.4,4.5,2.53,5A15.3,15.3,0,0,1,9.26,1.18.45.45,0,0,0,9.61.67.44.44,0,0,0,9.09.33,15.58,15.58,0,0,0,2.74,3.69,19.63,19.63,0,0,0,.22,6.21h0a.41.41,0,0,0,0,.53h0a20.65,20.65,0,0,0,3.18,3,16.33,16.33,0,0,0,3.46,2.1,10.66,10.66,0,0,0,4.29,1,10.7,10.7,0,0,0,4.3-1l.55-.25a13.32,13.32,0,0,0,2-1.18c.3-.21.61-.43.91-.67a20.86,20.86,0,0,0,3.17-3ZM10,4.8a1,1,0,1,1-1,1A1,1,0,0,1,10,4.8ZM8.35,6.72a1.88,1.88,0,1,0,2.34-2.65A2.84,2.84,0,0,1,11.35,4a3,3,0,1,1-3,3,2.83,2.83,0,0,1,0-.29ZM10.6,3.21a3.87,3.87,0,1,0,1.69,0,14.93,14.93,0,0,1,4.65,1.27,5.63,5.63,0,0,1,.23,1.63,5.83,5.83,0,1,1-11.65,0,5.66,5.66,0,0,1,.3-1.83A14.21,14.21,0,0,1,10.6,3.21ZM1.41,6.82A23,23,0,0,1,4.8,4.77a7,7,0,0,0-.14,1.38A6.64,6.64,0,0,0,6.55,10.8,16.24,16.24,0,0,1,3.93,9.13,20.8,20.8,0,0,1,1.41,6.82Zm15.12,3.55A6.65,6.65,0,0,0,18,6.15,7.34,7.34,0,0,0,17.94,5a23.91,23.91,0,0,1,2.94,1.82,21.44,21.44,0,0,1-2.51,2.3,16.79,16.79,0,0,1-1.84,1.25Z"/></g></g></svg>