<?xml version="1.0" encoding="utf-8"?>
<!-- Generator: Adobe Illustrator 16.0.3, SVG Export Plug-In . SVG Version: 6.00 Build 0)  -->
<!DOCTYPE svg PUBLIC "-//W3C//DTD SVG 1.1//EN" "http://www.w3.org/Graphics/SVG/1.1/DTD/svg11.dtd">
<svg version="1.1" id="Layer_1" xmlns="http://www.w3.org/2000/svg" xmlns:xlink="http://www.w3.org/1999/xlink" x="0px" y="0px"
	 width="30px" height="30px" viewBox="0 0 30 30" enable-background="new 0 0 30 30" xml:space="preserve">
<path fill="none" stroke="#A8A7AA" stroke-width="2" stroke-linejoin="round" stroke-miterlimit="10" d="M25.817,15h2.546
	C28.715,15,29,15.285,29,15.637v12.727C29,28.715,28.715,29,28.363,29h-14c-0.351,0-0.636-0.285-0.636-0.637V15.637
	c0-0.352,0.285-0.637,0.636-0.637H25.817z"/>
<path fill="none" stroke="#A8A7AA" stroke-width="2" stroke-linecap="round" stroke-linejoin="round" stroke-miterlimit="10" d="
	M25.818,13.728v2.545"/>
<path fill="none" stroke="#A8A7AA" stroke-width="2" stroke-linecap="round" stroke-linejoin="round" stroke-miterlimit="10" d="
	M16.908,13.728v2.545"/>
<path fill="none" stroke="#A8A7AA" stroke-width="2" stroke-linejoin="round" stroke-miterlimit="10" d="M13.727,18.818H29"/>
<path fill="none" stroke="#A8A7AA" stroke-width="2" stroke-linejoin="round" stroke-miterlimit="10" d="M19.455,22.637h1.273"/>
<path fill="none" stroke="#A8A7AA" stroke-width="2" stroke-linejoin="round" stroke-miterlimit="10" d="M22,22.637h1.273"/>
<path fill="none" stroke="#A8A7AA" stroke-width="2" stroke-linejoin="round" stroke-miterlimit="10" d="M24.545,22.637h1.272"/>
<path fill="none" stroke="#A8A7AA" stroke-width="2" stroke-linejoin="round" stroke-miterlimit="10" d="M16.908,25.182h1.273"/>
<path fill="none" stroke="#A8A7AA" stroke-width="2" stroke-linejoin="round" stroke-miterlimit="10" d="M19.455,25.182h1.273"/>
<path fill="none" stroke="#A8A7AA" stroke-width="2" stroke-linejoin="round" stroke-miterlimit="10" d="M22,25.182h1.273"/>
<path fill="none" stroke="#A8A7AA" stroke-width="2" stroke-linecap="round" stroke-linejoin="round" stroke-miterlimit="10" d="
	M11.5,13c1.381,0,2.5-1.119,2.5-2.5S12.881,8,11.5,8S9,9.119,9,10.5S10.119,13,11.5,13z"/>
<path fill="none" stroke="#A8A7AA" stroke-width="2" stroke-linecap="round" stroke-linejoin="round" stroke-miterlimit="10" d="
	M3.682,6.182c1.381,0,2.5-1.119,2.5-2.5c0-1.38-1.119-2.5-2.5-2.5s-2.5,1.12-2.5,2.5C1.182,5.063,2.301,6.182,3.682,6.182z"/>
<path fill="none" stroke="#A8A7AA" stroke-width="2" stroke-linecap="round" stroke-linejoin="round" stroke-miterlimit="10" d="
	M4,13l7-12"/>
</svg>
