<svg width="34" height="31" viewBox="0 0 34 31" fill="none" xmlns="http://www.w3.org/2000/svg">
<path d="M10.7853 12.0262C8.87244 9.56603 5.41195 9.1117 4.95773 9.67997C4.6329 10.0853 5.64844 11.8453 6.34263 13.0412C5.35073 13.7096 4.55152 14.6652 4.04097 15.799C3.43303 16.0793 2.6658 16.2319 1.5487 16.2243C0.580456 16.2181 1.01658 18.8792 1.90553 20.5612C2.71658 22.0961 7.95916 25.2571 8.65474 25.3786V30H10.7415L12.1326 27.2381C13.4236 27.6323 15.5375 27.9286 17.0017 27.9286C18.6252 27.9286 20.2626 27.7753 21.8554 27.2947L23.2619 30H25.3486L26.2661 24.7151C27.9877 23.0807 28.8265 20.8512 28.8265 18.2619C28.8265 13.0799 22.8181 9.28571 16.3569 9.28571C14.6235 9.28571 11.6763 9.80356 9.76905 10.9995" stroke="#B9120C" stroke-width="2" stroke-miterlimit="10"/>
<path d="M7.26172 16.1905H8.65288" stroke="#B9120C" stroke-width="2" stroke-miterlimit="10"/>
<path d="M28.8242 18.2619L30.0923 17.4223C30.5047 17.1496 31.0647 17.3408 31.2219 17.8076C31.3985 18.3338 32.0712 18.4912 32.4663 18.099L32.9977 17.5715" stroke="#B9120C" stroke-width="2" stroke-miterlimit="10"/>
<path d="M14.9149 18.2619C16.0673 18.2619 17.0016 17.3345 17.0016 16.1905C17.0016 15.0465 16.0673 14.1191 14.9149 14.1191C13.7624 14.1191 12.8281 15.0465 12.8281 16.1905C12.8281 17.3345 13.7624 18.2619 14.9149 18.2619Z" stroke="#B9120C" stroke-width="2" stroke-miterlimit="10"/>
<path d="M21.1727 23.7857C20.0201 23.7857 19.0859 22.8584 19.0859 21.7143C19.0859 20.5702 20.0201 19.6429 21.1727 19.6429C22.3252 19.6429 23.2594 20.5702 23.2594 21.7143C23.2594 22.8584 22.3252 23.7857 21.1727 23.7857Z" stroke="#B9120C" stroke-width="2" stroke-miterlimit="10"/>
<path d="M14.2188 23.7857L21.8701 14.1191" stroke="#B9120C" stroke-width="2" stroke-miterlimit="10"/>
<path d="M13.1957 7.90476C12.5349 7.17148 12.1328 6.20343 12.1328 5.14286C12.1328 2.85462 14.0018 1 16.3063 1C18.6107 1 20.4798 2.85462 20.4798 5.14286C20.4798 6.20343 20.0777 7.17148 19.4169 7.90476" stroke="#B9120C" stroke-width="2" stroke-miterlimit="10"/>
</svg>
