<svg width="32" height="32" viewBox="0 0 32 32" fill="none" xmlns="http://www.w3.org/2000/svg">
<path d="M27.8323 4.21704H30.2385C30.6219 4.21704 30.9331 4.52821 30.9331 4.91161V28.5271C30.9331 28.9105 30.6219 29.2217 30.2385 29.2217H1.76098C1.37758 29.2217 1.06641 28.9105 1.06641 28.5271V4.91161C1.06641 4.52821 1.37758 4.21704 1.76098 4.21704H4.16718" stroke="#B9120C" stroke-width="2" stroke-miterlimit="10" stroke-linecap="round" stroke-linejoin="round"/>
<path d="M1.06641 9.77356H30.9331" stroke="#B9120C" stroke-width="2" stroke-miterlimit="10" stroke-linejoin="round"/>
<path d="M24.6797 2.1333V5.3333" stroke="#B9120C" stroke-width="2" stroke-miterlimit="10" stroke-linecap="round" stroke-linejoin="round"/>
<path d="M10.4688 4.21704H21.5323" stroke="#B9120C" stroke-width="2" stroke-miterlimit="10" stroke-linecap="round" stroke-linejoin="round"/>
<path d="M7.32031 2.1333V5.3333" stroke="#B9120C" stroke-width="2" stroke-miterlimit="10" stroke-linecap="round" stroke-linejoin="round"/>
<path d="M10.6646 19.2C11.8428 19.2 12.7979 18.2449 12.7979 17.0667C12.7979 15.8885 11.8428 14.9333 10.6646 14.9333C9.48638 14.9333 8.53125 15.8885 8.53125 17.0667C8.53125 18.2449 9.48638 19.2 10.6646 19.2Z" stroke="#B9120C" stroke-width="2" stroke-miterlimit="10" stroke-linejoin="round"/>
<path d="M20.2661 24.5333C19.0878 24.5333 18.1328 23.5782 18.1328 22.3999C18.1328 21.2216 19.0878 20.2666 20.2661 20.2666C21.4445 20.2666 22.3995 21.2216 22.3995 22.3999C22.3995 23.5782 21.4445 24.5333 20.2661 24.5333Z" stroke="#B9120C" stroke-width="2" stroke-miterlimit="10" stroke-linejoin="round"/>
<path d="M11.4844 24.3597L19.1247 14.6356" stroke="#B9120C" stroke-width="2" stroke-miterlimit="10" stroke-linejoin="round"/>
</svg>
