<?xml version="1.0" encoding="utf-8"?>
<!-- Generator: Adobe Illustrator 16.0.3, SVG Export Plug-In . SVG Version: 6.00 Build 0)  -->
<!DOCTYPE svg PUBLIC "-//W3C//DTD SVG 1.1//EN" "http://www.w3.org/Graphics/SVG/1.1/DTD/svg11.dtd">
<svg version="1.1" id="Layer_1" xmlns="http://www.w3.org/2000/svg" xmlns:xlink="http://www.w3.org/1999/xlink" x="0px" y="0px"
	 width="30px" height="30px" viewBox="0 0 30 30" enable-background="new 0 0 30 30" xml:space="preserve">
<path fill="none" stroke="#A8A7AA" stroke-width="2" stroke-linecap="round" stroke-linejoin="round" stroke-miterlimit="10" d="
	M17.434,20.25L7.412,14.543l4.511-2.292l2.649,1.401l7.731,4.088v6.152l-4.87,2.646V20.25z"/>
<path fill="none" stroke="#A8A7AA" stroke-width="2" stroke-linecap="round" stroke-linejoin="round" stroke-miterlimit="10" d="
	M17.436,20.299l-6.696,3.572L1,18.744l7.198-3.753"/>
<path fill="none" stroke="#A8A7AA" stroke-width="2" stroke-linecap="round" stroke-linejoin="round" stroke-miterlimit="10" d="
	M17.436,22.863l-6.696,3.572L1,21.308"/>
<path fill="none" stroke="#A8A7AA" stroke-width="2" stroke-linecap="round" stroke-linejoin="round" stroke-miterlimit="10" d="
	M17.436,25.428L10.739,29L1,23.871"/>
<path fill="none" stroke="#A8A7AA" stroke-width="2" stroke-linecap="round" stroke-linejoin="round" stroke-miterlimit="10" d="
	M12.604,12.605L19.262,9L29,14.128l-6.729,3.59"/>
<path fill="none" stroke="#A8A7AA" stroke-width="2" stroke-linecap="round" stroke-linejoin="round" stroke-miterlimit="10" d="
	M29,16.692l-6.693,3.571"/>
<path fill="none" stroke="#A8A7AA" stroke-width="2" stroke-linecap="round" stroke-linejoin="round" stroke-miterlimit="10" d="
	M29,19.256l-6.695,3.573"/>
<path fill="none" stroke="#A8A7AA" stroke-width="2" stroke-linecap="round" stroke-linejoin="round" stroke-miterlimit="10" d="
	M1,1v4"/>
<path fill="none" stroke="#A8A7AA" stroke-width="2" stroke-linejoin="round" stroke-miterlimit="10" d="M6,5C4.896,5,4,4.104,4,3
	s0.896-2,2-2s2,0.896,2,2S7.104,5,6,5z"/>
<path fill="none" stroke="#A8A7AA" stroke-width="2" stroke-linejoin="round" stroke-miterlimit="10" d="M13,5c-1.104,0-2-0.896-2-2
	s0.896-2,2-2s2,0.896,2,2S14.104,5,13,5z"/>
<path fill="none" stroke="#A8A7AA" stroke-width="2" stroke-linejoin="round" stroke-miterlimit="10" d="M20,5c-1.104,0-2-0.896-2-2
	s0.896-2,2-2s2,0.896,2,2S21.104,5,20,5z"/>
<path fill="none" stroke="#A8A7AA" stroke-width="2" stroke-linejoin="round" stroke-miterlimit="10" d="M27,5c-1.104,0-2-0.896-2-2
	s0.896-2,2-2s2,0.896,2,2S28.104,5,27,5z"/>
</svg>
