<svg xmlns="http://www.w3.org/2000/svg" viewBox="0 0 512 506"><g id="Слой_2" data-name="Слой 2"><g id="Capa_1" data-name="Capa 1"><path d="M451.48,265.88a130.21,130.21,0,0,0-53.22-47.1,10,10,0,1,0-8.67,18,110.09,110.09,0,0,1,49.59,150.79,10,10,0,1,0,17.65,9.4,130.12,130.12,0,0,0-5.35-131.11Z"/><path d="M357.67,206H357a10,10,0,0,0,0,20h.63a10,10,0,0,0,0-20Z"/><path d="M294.41,435.2a110.09,110.09,0,0,1-49.59-150.79A10,10,0,1,0,227.17,275a130.05,130.05,0,0,0,58.57,178.21,10,10,0,1,0,8.67-18Z"/><path d="M327,446h-.58a10,10,0,0,0-.09,20H327a10,10,0,0,0,0-20Z"/><path d="M387.41,172.17A46.6,46.6,0,0,0,383,164h26a46,46,0,0,0,0-92H328.92A46,46,0,0,0,291,0H46a46,46,0,0,0,0,92h80.08a45.87,45.87,0,0,0,0,52H100a46,46,0,0,0-28.58,82,45.91,45.91,0,0,0,0,72,45.91,45.91,0,0,0,0,72A46,46,0,0,0,100,452H217.85A169.54,169.54,0,0,0,342,506c93.74,0,170-76.26,170-170C512,258,459.17,192.08,387.41,172.17ZM409,92a26,26,0,0,1,0,52H164a26,26,0,0,1,0-52ZM46,72a26,26,0,0,1,0-52H291a26,26,0,0,1,0,52Zm54,92H345a26.08,26.08,0,0,1,11.35,2.61Q349.24,166,342,166a169.49,169.49,0,0,0-120.3,50H100a26,26,0,0,1,0-52Zm0,72H204.61a169.71,169.71,0,0,0-25.7,52H100a26,26,0,0,1,0-52Zm0,72h74.32a170.19,170.19,0,0,0-.62,52H100a26,26,0,0,1,0-52Zm0,124a26,26,0,0,1,0-52h77.79a169.17,169.17,0,0,0,24,52Zm242,54c-82.71,0-150-67.29-150-150s67.29-150,150-150,150,67.29,150,150S424.71,486,342,486Z"/></g></g></svg>