<?xml version="1.0" encoding="utf-8"?>
<!-- Generator: Adobe Illustrator 16.0.3, SVG Export Plug-In . SVG Version: 6.00 Build 0)  -->
<!DOCTYPE svg PUBLIC "-//W3C//DTD SVG 1.1//EN" "http://www.w3.org/Graphics/SVG/1.1/DTD/svg11.dtd">
<svg version="1.1" id="Layer_1" xmlns="http://www.w3.org/2000/svg" xmlns:xlink="http://www.w3.org/1999/xlink" x="0px" y="0px"
	 width="30px" height="30px" viewBox="0 0 30 30" enable-background="new 0 0 30 30" xml:space="preserve">
<path fill="none" stroke="#A8A7AA" stroke-width="2" stroke-linecap="round" stroke-linejoin="round" stroke-miterlimit="10" d="
	M11.31,11.344c2.441,0,4.421-0.868,4.421-1.939s-1.979-1.939-4.421-1.939c-2.442,0-4.421,0.868-4.421,1.939
	S8.868,11.344,11.31,11.344z"/>
<path fill="none" stroke="#A8A7AA" stroke-width="2" stroke-linecap="round" stroke-linejoin="round" stroke-miterlimit="10" d="
	M15.73,9.404v3.232c0,1.071-1.979,1.939-4.421,1.939c-2.442,0-4.421-0.868-4.421-1.939V9.404"/>
<path fill="none" stroke="#A8A7AA" stroke-width="2" stroke-linecap="round" stroke-linejoin="round" stroke-miterlimit="10" d="
	M15.73,14.497v-1.86"/>
<path fill="none" stroke="#A8A7AA" stroke-width="2" stroke-linecap="round" stroke-linejoin="round" stroke-miterlimit="10" d="
	M21.414,6.172v3.232c0,0.977-1.646,1.786-3.789,1.92"/>
<path fill="none" stroke="#A8A7AA" stroke-width="2" stroke-linecap="round" stroke-linejoin="round" stroke-miterlimit="10" d="
	M16.993,4.879c2.441,0,4.421-0.868,4.421-1.939S19.435,1,16.993,1c-2.442,0-4.421,0.868-4.421,1.939S14.551,4.879,16.993,4.879z"/>
<path fill="none" stroke="#A8A7AA" stroke-width="2" stroke-linecap="round" stroke-linejoin="round" stroke-miterlimit="10" d="
	M12.572,5.525V2.939"/>
<path fill="none" stroke="#A8A7AA" stroke-width="2" stroke-linecap="round" stroke-linejoin="round" stroke-miterlimit="10" d="
	M21.414,2.939v3.232c0,1.012-1.77,1.844-4.025,1.932"/>
<path fill="none" stroke="#A8A7AA" stroke-width="2" stroke-linecap="round" stroke-linejoin="round" stroke-miterlimit="10" d="
	M21.414,11.667V9.404"/>
<path fill="none" stroke="#A8A7AA" stroke-width="2" stroke-linecap="round" stroke-linejoin="round" stroke-miterlimit="10" d="
	M3.134,22.414C5.073,26.322,9.037,29,13.611,29c4.482,0,8.368-2.576,10.346-6.355L27,24.115l-1.805-12.639l-10.683,6.601
	l3.259,1.576c-1.496,2.045-3.877,3.372-6.565,3.372C6.674,23.025,3,19.264,3,14.624c0-1.563,0.416-3.025,1.142-4.278"/>
<path fill="none" stroke="#A8A7AA" stroke-width="2" stroke-linecap="round" stroke-linejoin="round" stroke-miterlimit="10" d="
	M6.889,12.637v3.232c0,1.071,1.979,1.939,4.421,1.939c0.36,0,0.711-0.019,1.047-0.055"/>
</svg>
