<?xml version="1.0" encoding="utf-8"?>
<!-- Generator: Adobe Illustrator 16.0.3, SVG Export Plug-In . SVG Version: 6.00 Build 0)  -->
<!DOCTYPE svg PUBLIC "-//W3C//DTD SVG 1.1//EN" "http://www.w3.org/Graphics/SVG/1.1/DTD/svg11.dtd">
<svg version="1.1" id="Layer_1" xmlns="http://www.w3.org/2000/svg" xmlns:xlink="http://www.w3.org/1999/xlink" x="0px" y="0px"
	 width="30px" height="30px" viewBox="0 0 30 30" enable-background="new 0 0 30 30" xml:space="preserve">
<path fill="none" stroke="#A8A7AA" stroke-width="2" stroke-linecap="round" stroke-miterlimit="10" d="M15,29
	c7.732,0,14-6.268,14-14c0-7.732-6.268-14-14-14C7.268,1,1,7.268,1,15C1,22.732,7.268,29,15,29z"/>
<path fill="none" stroke="#A8A7AA" stroke-width="2" stroke-linecap="round" stroke-miterlimit="10" d="M5.1,5.101l19.799,19.799"/>
<path fill="none" stroke="#A8A7AA" stroke-width="2" stroke-linecap="round" stroke-linejoin="round" stroke-miterlimit="10" d="
	M11.455,17.182c2.46,0,4.455-0.854,4.455-1.909c0-1.054-1.995-1.909-4.455-1.909S7,14.218,7,15.272
	C7,16.327,8.995,17.182,11.455,17.182z"/>
<path fill="none" stroke="#A8A7AA" stroke-width="2" stroke-linecap="round" stroke-linejoin="round" stroke-miterlimit="10" d="
	M15.909,15.272v3.183c0,1.054-1.995,1.908-4.455,1.908C8.994,20.363,7,19.509,7,18.455v-3.183"/>
<path fill="none" stroke="#A8A7AA" stroke-width="2" stroke-linecap="round" stroke-linejoin="round" stroke-miterlimit="10" d="
	M7,18.455v3.182c0,1.055,1.994,1.908,4.455,1.908c2.46,0,4.455-0.854,4.455-1.908v-3.182"/>
<path fill="none" stroke="#A8A7AA" stroke-width="2" stroke-linecap="round" stroke-linejoin="round" stroke-miterlimit="10" d="
	M21.637,12.091v3.182c0,0.962-1.659,1.758-3.818,1.89"/>
<path fill="none" stroke="#A8A7AA" stroke-width="2" stroke-linecap="round" stroke-linejoin="round" stroke-miterlimit="10" d="
	M17.184,10.818c2.459,0,4.454-0.855,4.454-1.909C21.638,7.854,19.643,7,17.184,7c-2.46,0-4.455,0.854-4.455,1.909
	C12.729,9.963,14.723,10.818,17.184,10.818z"/>
<path fill="none" stroke="#A8A7AA" stroke-width="2" stroke-linecap="round" stroke-linejoin="round" stroke-miterlimit="10" d="
	M12.729,11.455V8.909"/>
<path fill="none" stroke="#A8A7AA" stroke-width="2" stroke-linecap="round" stroke-linejoin="round" stroke-miterlimit="10" d="
	M21.637,8.909v3.182c0,0.997-1.783,1.815-4.057,1.901"/>
<path fill="none" stroke="#A8A7AA" stroke-width="2" stroke-linecap="round" stroke-linejoin="round" stroke-miterlimit="10" d="
	M17.816,20.345c2.159-0.132,3.818-0.929,3.818-1.89v-3.183"/>
</svg>
