<svg xmlns="http://www.w3.org/2000/svg" viewBox="0 0 15.37 15.37"><defs><style>.cls-1{fill:none;stroke:#fff;stroke-linecap:round;stroke-linejoin:round;stroke-width:1.2px;}</style></defs><g id="Слой_2" data-name="Слой 2"><g id="Capa_1" data-name="Capa 1"><path class="cls-1" d="M13.64,9.9a8,8,0,0,1-2.53-.4A1.1,1.1,0,0,0,10,9.74l-1.6,1.2a8.82,8.82,0,0,1-4-4L5.6,5.43a1.15,1.15,0,0,0,.28-1.16,8,8,0,0,1-.4-2.53A1.14,1.14,0,0,0,4.34.6H1.74A1.14,1.14,0,0,0,.6,1.74a13,13,0,0,0,13,13,1.14,1.14,0,0,0,1.13-1.13V11A1.14,1.14,0,0,0,13.64,9.9Z"/></g></g></svg>