<svg width="32" height="32" viewBox="0 0 32 32" fill="none" xmlns="http://www.w3.org/2000/svg">
<path d="M20.2656 18.3579V15.214H25.599L14.9323 1.06665L4.26562 15.214H8.83705V30.1474" stroke="#B9120C" stroke-width="2" stroke-miterlimit="10" stroke-linejoin="round"/>
<path d="M24.5318 30.9333C23.3535 30.9333 22.3984 29.9783 22.3984 28.8C22.3984 27.6216 23.3535 26.6666 24.5318 26.6666C25.7101 26.6666 26.6651 27.6216 26.6651 28.8C26.6651 29.9783 25.7101 30.9333 24.5318 30.9333Z" stroke="#B9120C" stroke-width="2" stroke-miterlimit="10" stroke-linejoin="round"/>
<path d="M15.6953 30.9333L24.0763 19.9298" stroke="#B9120C" stroke-width="2" stroke-miterlimit="10" stroke-linejoin="round"/>
<path d="M14.9341 24.5333C16.1123 24.5333 17.0674 23.5781 17.0674 22.3999C17.0674 21.2217 16.1123 20.2666 14.9341 20.2666C13.7559 20.2666 12.8008 21.2217 12.8008 22.3999C12.8008 23.5781 13.7559 24.5333 14.9341 24.5333Z" stroke="#B9120C" stroke-width="2" stroke-miterlimit="10" stroke-linejoin="round"/>
</svg>
