<?xml version="1.0" encoding="utf-8"?>
<!-- Generator: Adobe Illustrator 16.0.3, SVG Export Plug-In . SVG Version: 6.00 Build 0)  -->
<!DOCTYPE svg PUBLIC "-//W3C//DTD SVG 1.1//EN" "http://www.w3.org/Graphics/SVG/1.1/DTD/svg11.dtd">
<svg version="1.1" id="Layer_1" xmlns="http://www.w3.org/2000/svg" xmlns:xlink="http://www.w3.org/1999/xlink" x="0px" y="0px"
	 width="30px" height="30px" viewBox="0 0 30 30" enable-background="new 0 0 30 30" xml:space="preserve">
<path fill="none" stroke="#A8A7AA" stroke-width="2" stroke-linecap="round" stroke-miterlimit="10" d="M12.9,15.883
	c-0.685,2.311-2.46,2.096-2.825,1.731l-0.66-0.659c-0.229-0.229-0.1-0.759,0.233-1.328"/>
<path fill="none" stroke="#A8A7AA" stroke-width="2" stroke-linecap="round" stroke-miterlimit="10" d="M17.319,11.5
	c0.374-0.608,0.528-1.191,0.286-1.432l-0.652-0.652c-0.365-0.365-2.319,0.072-2.773,1.595"/>
<path fill="none" stroke="#A8A7AA" stroke-width="2" stroke-linecap="round" stroke-miterlimit="10" d="M15,29
	c7.732,0,14-6.268,14-14c0-7.732-6.268-14-14-14C7.268,1,1,7.268,1,15C1,22.732,7.268,29,15,29z"/>
<path fill="none" stroke="#A8A7AA" stroke-width="2" stroke-linecap="round" stroke-miterlimit="10" d="M5.1,5.101l19.799,19.799"/>
<path fill="none" stroke="#A8A7AA" stroke-width="2" stroke-linecap="round" stroke-miterlimit="10" d="M12.336,8.949
	c3.359-2.658,6.852-3.622,8.357-2.116c1.539,1.539,0.499,5.15-2.292,8.576"/>
<path fill="none" stroke="#A8A7AA" stroke-width="2" stroke-linecap="round" stroke-miterlimit="10" d="M15.322,18.471
	c-3.399,2.738-6.963,3.747-8.488,2.222c-1.523-1.523-0.52-5.079,2.21-8.475"/>
<path fill="none" stroke="#A8A7AA" stroke-width="2" stroke-linecap="round" stroke-linejoin="round" stroke-miterlimit="10" d="
	M21.404,18.337c2.765-3.413,3.789-7.001,2.258-8.534l-2.971-2.97"/>
<path fill="none" stroke="#A8A7AA" stroke-width="2" stroke-linecap="round" stroke-linejoin="round" stroke-miterlimit="10" d="
	M6.832,20.692l2.97,2.97c1.532,1.532,5.121,0.508,8.534-2.258"/>
</svg>
