<?xml version="1.0" encoding="utf-8"?>
<!-- Generator: Adobe Illustrator 16.0.3, SVG Export Plug-In . SVG Version: 6.00 Build 0)  -->
<!DOCTYPE svg PUBLIC "-//W3C//DTD SVG 1.1//EN" "http://www.w3.org/Graphics/SVG/1.1/DTD/svg11.dtd">
<svg version="1.1" id="Layer_1" xmlns="http://www.w3.org/2000/svg" xmlns:xlink="http://www.w3.org/1999/xlink" x="0px" y="0px"
	 width="30px" height="30px" viewBox="0 0 30 30" enable-background="new 0 0 30 30" xml:space="preserve">
<path fill="none" stroke="#A8A7AA" stroke-width="2" stroke-miterlimit="10" d="M19.316,6.211c0.76-1.128,1.997-3.452,2.336-3.894
	c0.156-0.205,0.187-0.355,0.068-0.501c-0.123-0.152-0.386-0.163-0.68-0.078c-0.549,0.16-1.225-0.019-1.988-0.24
	c-1.529-0.44-3.735-1.067-4.623,0.541c-0.086,0.156-0.026,0.242,0.144,0.43c0.348,0.385,1.532,2.633,2.274,3.741"/>
<path fill="none" stroke="#A8A7AA" stroke-width="2" stroke-miterlimit="10" d="M8.941,6.211c0,0,0.849,0,1.299,0
	c0.451,0,0.851-0.218,1.563-1.052c0.711-0.834,1.657-1.412,2.697-1.412h0.618"/>
<path fill="none" stroke="#A8A7AA" stroke-width="2" stroke-miterlimit="10" d="M16.354,6.211h3.705
	c0.842,0,1.877,0.449,1.854,1.232c-0.072,2.342-0.09,6.159-1.235,6.159c-1.56,0-6.862,0-6.862,0c-1.313,0-2.546-1.232-3.199-1.232
	c-0.653,0-1.674,0-1.674,0"/>
<path fill="none" stroke="#A8A7AA" stroke-width="2" stroke-miterlimit="10" d="M8.941,4.979H4v8.007h4.941V4.979z"/>
<path fill="none" stroke="#A8A7AA" stroke-width="2" stroke-miterlimit="10" d="M6.471,6.827v1.232"/>
<path fill="none" stroke="#A8A7AA" stroke-width="2" stroke-miterlimit="10" d="M20.059,13.603C22.396,16.027,25,19.065,25,22.225
	C25,26.398,22.03,29,17.279,29s-7.721-2.602-7.721-6.775c0-3.159,2.603-6.197,4.941-8.622"/>
<path fill="none" stroke="#A8A7AA" stroke-width="2" stroke-miterlimit="10" d="M16.352,19.762c0,0.68-0.553,1.231-1.235,1.231
	h-0.618c-0.682,0-1.235-0.552-1.235-1.231v-0.616c0-0.681,0.553-1.231,1.235-1.231h0.618c0.682,0,1.235,0.551,1.235,1.231V19.762z"
	/>
<path fill="none" stroke="#A8A7AA" stroke-width="2" stroke-miterlimit="10" d="M21.91,24.072c0,0.681-0.553,1.232-1.234,1.232
	h-0.618c-0.683,0-1.235-0.552-1.235-1.232v-0.615c0-0.68,0.553-1.232,1.235-1.232h0.618c0.682,0,1.234,0.553,1.234,1.232V24.072z"/>
<path fill="none" stroke="#A8A7AA" stroke-width="2" stroke-miterlimit="10" d="M15.117,25.92l4.941-8.622"/>
</svg>
