<svg xmlns="http://www.w3.org/2000/svg" viewBox="0 0 344.51 384"><g id="Слой_2" data-name="Слой 2"><g id="Слой_1-2" data-name="Слой 1"><path d="M25.58,345V358.4A25.6,25.6,0,0,0,51.18,384h62.93a25.6,25.6,0,0,0,25.6-25.6V345.6h64v12.8a25.6,25.6,0,0,0,25.6,25.6h62.93a25.6,25.6,0,0,0,25.6-25.6V345.06a32,32,0,0,0,26.67-31.46V32a32,32,0,0,0-32-32H32A32,32,0,0,0,0,32V57.6a6.4,6.4,0,0,0,12.8,0V32A19.2,19.2,0,0,1,32,12.8H312.51A19.2,19.2,0,0,1,331.71,32V313.6a19.2,19.2,0,0,1-19.2,19.2H32a19.2,19.2,0,0,1-19.2-19.2V89.6A6.4,6.4,0,0,0,0,89.6v224A32.07,32.07,0,0,0,25.58,345ZM305,345.6v12.8a12.8,12.8,0,0,1-12.8,12.8H229.31a12.8,12.8,0,0,1-12.8-12.8V345.6Zm-178.13,0v12.8a12.8,12.8,0,0,1-12.8,12.8H51.18a12.8,12.8,0,0,1-12.8-12.8V345.6Z"/><path d="M50.11,217.6a6.4,6.4,0,0,0-6.4,6.4v57.6a19.2,19.2,0,0,0,19.2,19.2h217.6a19.2,19.2,0,0,0,19.2-19.2v-6.4a19.19,19.19,0,0,0,19.2-19.2V217.6a19.2,19.2,0,0,0-19.2-19.2V147.2a19.2,19.2,0,0,0,19.2-19.2V89.6a19.2,19.2,0,0,0-19.2-19.2V64a19.2,19.2,0,0,0-19.2-19.2H62.91A19.2,19.2,0,0,0,43.71,64V192a6.4,6.4,0,0,0,12.8,0V64a6.4,6.4,0,0,1,6.4-6.4h217.6a6.39,6.39,0,0,1,6.4,6.4v6.4a19.2,19.2,0,0,0-19.2,19.2V128a19.2,19.2,0,0,0,19.2,19.2v51.2a19.2,19.2,0,0,0-19.2,19.2V256a19.2,19.2,0,0,0,19.2,19.2v6.4a6.4,6.4,0,0,1-6.4,6.4H62.91a6.41,6.41,0,0,1-6.4-6.4V224a6.39,6.39,0,0,0-6.4-6.4ZM280.51,128V89.6a6.41,6.41,0,0,1,6.4-6.4h12.8a6.4,6.4,0,0,1,6.4,6.4V128a6.39,6.39,0,0,1-6.4,6.4h-12.8a6.4,6.4,0,0,1-6.4-6.4Zm0,128V217.6a6.41,6.41,0,0,1,6.4-6.4h12.8a6.4,6.4,0,0,1,6.4,6.4V256a6.39,6.39,0,0,1-6.4,6.4h-12.8a6.4,6.4,0,0,1-6.4-6.4Z"/><path d="M100.76,202.19a76.8,76.8,0,1,0,0-58.78,76.8,76.8,0,0,0,0,58.78Zm40.67-85.76,2.32,5.62a6.41,6.41,0,1,0,11.83-4.91l-2.33-5.61a63.44,63.44,0,0,1,36.92,0l-2.33,5.61a6.41,6.41,0,1,0,11.83,4.91l2.33-5.63a63.37,63.37,0,0,1,26.09,26.11l-5.61,2.33a6.4,6.4,0,1,0,4.9,11.82l5.62-2.33a63.44,63.44,0,0,1,0,36.92L227.38,189a6.4,6.4,0,1,0-4.9,11.82l5.62,2.33A63.48,63.48,0,0,1,202,229.2l-2.33-5.62a6.4,6.4,0,1,0-11.83,4.9l2.33,5.62a63.44,63.44,0,0,1-36.92,0l2.33-5.62a6.4,6.4,0,1,0-11.83-4.9l-2.32,5.62a63.37,63.37,0,0,1-26.1-26.1l5.62-2.33A6.4,6.4,0,1,0,116,189l-5.61,2.32a63.44,63.44,0,0,1,0-36.92l5.61,2.33A6.4,6.4,0,1,0,121,144.86l-5.63-2.33a63.5,63.5,0,0,1,26.11-26.12Z"/><path d="M171.76,211.2a38.39,38.39,0,1,0-35.53-23.68,38.42,38.42,0,0,0,35.53,23.68Zm-9.85-62.08A25.53,25.53,0,1,1,148,163a25.6,25.6,0,0,1,13.91-13.85Z"/><path d="M107.71,70.4h-32a6.41,6.41,0,0,0-6.4,6.4v32a6.4,6.4,0,0,0,12.8,0V83.2h25.6a6.4,6.4,0,1,0,0-12.8Z"/></g></g></svg>