<svg width="32" height="32" viewBox="0 0 32 32" fill="none" xmlns="http://www.w3.org/2000/svg">
<path d="M22.3047 3.45398H24.9595C25.3259 3.45398 25.6232 3.7498 25.6232 4.1143V12.6984" stroke="#B9120C" stroke-width="2" stroke-miterlimit="10" stroke-linecap="round" stroke-linejoin="round"/>
<path d="M13.6768 23.2635H1.73011C1.36375 23.2635 1.06641 22.9677 1.06641 22.6032V4.1143C1.06641 3.7498 1.36375 3.45398 1.73011 3.45398H4.38492" stroke="#B9120C" stroke-width="2" stroke-miterlimit="10" stroke-linecap="round" stroke-linejoin="round"/>
<path d="M23.6328 29.8667C27.6649 29.8667 30.9335 26.6147 30.9335 22.6032C30.9335 18.5917 27.6649 15.3397 23.6328 15.3397C19.6007 15.3397 16.332 18.5917 16.332 22.6032C16.332 26.6147 19.6007 29.8667 23.6328 29.8667Z" stroke="#B9120C" stroke-width="2" stroke-miterlimit="10" stroke-linejoin="round"/>
<path d="M1.06641 8.73645H25.6234" stroke="#B9120C" stroke-width="2" stroke-miterlimit="10" stroke-linejoin="round"/>
<path d="M26.9499 19.3015L23.6314 23.2634L20.9766 21.2825" stroke="#B9120C" stroke-width="2" stroke-miterlimit="10" stroke-linejoin="round"/>
<path d="M20.3125 2.1333V4.77457" stroke="#B9120C" stroke-width="2" stroke-miterlimit="10" stroke-linecap="round" stroke-linejoin="round"/>
<path d="M8.36719 3.45398H18.3227" stroke="#B9120C" stroke-width="2" stroke-miterlimit="10" stroke-linecap="round" stroke-linejoin="round"/>
<path d="M6.375 2.1333V4.77457" stroke="#B9120C" stroke-width="2" stroke-miterlimit="10" stroke-linecap="round" stroke-linejoin="round"/>
<path d="M8.36719 12.6984H10.3583" stroke="#B9120C" stroke-width="2" stroke-miterlimit="10"/>
<path d="M11.6836 12.6984H13.6747" stroke="#B9120C" stroke-width="2" stroke-miterlimit="10"/>
<path d="M15.0039 12.6984H16.995" stroke="#B9120C" stroke-width="2" stroke-miterlimit="10"/>
<path d="M18.3242 12.6984H20.3153" stroke="#B9120C" stroke-width="2" stroke-miterlimit="10"/>
<path d="M5.04688 16H7.03799" stroke="#B9120C" stroke-width="2" stroke-miterlimit="10"/>
<path d="M8.36719 16H10.3583" stroke="#B9120C" stroke-width="2" stroke-miterlimit="10"/>
<path d="M11.6836 16H13.6747" stroke="#B9120C" stroke-width="2" stroke-miterlimit="10"/>
<path d="M15.0039 16H16.995" stroke="#B9120C" stroke-width="2" stroke-miterlimit="10"/>
<path d="M5.04688 19.3015H7.03799" stroke="#B9120C" stroke-width="2" stroke-miterlimit="10"/>
<path d="M8.36719 19.3015H10.3583" stroke="#B9120C" stroke-width="2" stroke-miterlimit="10"/>
<path d="M11.6836 19.3015H13.6747" stroke="#B9120C" stroke-width="2" stroke-miterlimit="10"/>
</svg>
