<svg width="28" height="34" viewBox="0 0 28 34" fill="none" xmlns="http://www.w3.org/2000/svg">
<path d="M14.349 18.3913V21.8696H10.1328L18.5652 33L26.9977 21.8696H22.7815V9.34784" stroke="#B9120C" stroke-width="2" stroke-miterlimit="10" stroke-linecap="round" stroke-linejoin="round"/>
<path d="M22.7852 6.56519V5.17389" stroke="#B9120C" stroke-width="2" stroke-miterlimit="10" stroke-linecap="round" stroke-linejoin="round"/>
<path d="M22.7852 2.3913V1" stroke="#B9120C" stroke-width="2" stroke-miterlimit="10" stroke-linecap="round" stroke-linejoin="round"/>
<path d="M5.91892 12.1305C8.63556 12.1305 10.8378 11.1961 10.8378 10.0435C10.8378 8.89091 8.63556 7.95654 5.91892 7.95654C3.20227 7.95654 1 8.89091 1 10.0435C1 11.1961 3.20227 12.1305 5.91892 12.1305Z" stroke="#B9120C" stroke-width="2" stroke-miterlimit="10" stroke-linecap="round" stroke-linejoin="round"/>
<path d="M10.8378 10.0435V13.5217C10.8378 14.6744 8.63557 15.6087 5.91892 15.6087C3.20227 15.6087 1 14.6744 1 13.5217V10.0435" stroke="#B9120C" stroke-width="2" stroke-miterlimit="10" stroke-linecap="round" stroke-linejoin="round"/>
<path d="M1 13.5217V17C1 18.1527 3.20227 19.0869 5.91892 19.0869C8.63557 19.0869 10.8378 18.1527 10.8378 17V13.5217" stroke="#B9120C" stroke-width="2" stroke-miterlimit="10" stroke-linecap="round" stroke-linejoin="round"/>
<path d="M17.1608 6.56525V10.0435C17.1608 11.0946 15.3289 11.9649 12.9453 12.1096" stroke="#B9120C" stroke-width="2" stroke-miterlimit="10" stroke-linecap="round" stroke-linejoin="round"/>
<path d="M12.2431 5.17391C14.9598 5.17391 17.1621 4.23955 17.1621 3.08696C17.1621 1.93436 14.9598 1 12.2431 1C9.52649 1 7.32422 1.93436 7.32422 3.08696C7.32422 4.23955 9.52649 5.17391 12.2431 5.17391Z" stroke="#B9120C" stroke-width="2" stroke-miterlimit="10" stroke-linecap="round" stroke-linejoin="round"/>
<path d="M7.32422 5.86958V3.08698" stroke="#B9120C" stroke-width="2" stroke-miterlimit="10" stroke-linecap="round" stroke-linejoin="round"/>
<path d="M17.1633 3.08698V6.56524C17.1633 7.65532 15.1944 8.54994 12.6836 8.64385" stroke="#B9120C" stroke-width="2" stroke-miterlimit="10" stroke-linecap="round" stroke-linejoin="round"/>
<path d="M12.9453 15.5878C15.3296 15.4431 17.1622 14.5735 17.1622 13.5217V10.0435" stroke="#B9120C" stroke-width="2" stroke-miterlimit="10" stroke-linecap="round" stroke-linejoin="round"/>
</svg>
