<svg xmlns="http://www.w3.org/2000/svg" xmlns:xlink="http://www.w3.org/1999/xlink" viewBox="0 0 351.75 384"><defs><style>.cls-1{fill:none;}.cls-2{clip-path:url(#clip-path);}</style><clipPath id="clip-path" transform="translate(-0.13)"><rect class="cls-1" width="352" height="384"/></clipPath></defs><g id="Слой_2" data-name="Слой 2"><g id="Слой_1-2" data-name="Слой 1"><g class="cls-2"><path d="M8.92,375.2a30,30,0,0,0,42.42,0L67.25,359.3a7.5,7.5,0,1,0-10.6-10.61L40.73,364.6a15,15,0,0,1-21.21-21.21l135-134.68c6-6,25.4,4.19,37.13,15.91,13.61,13.61,21.19,31.84,15.91,37.13a7,7,0,0,0-1.34,1.81,7.5,7.5,0,0,0,11.94,8.79c4.33-4.32,20.94-.27,37.12,15.91S275.51,321,271.2,325.37h0A7.5,7.5,0,0,0,281.8,336l15.91-15.91a187.25,187.25,0,0,0,49.52-87.79,7.5,7.5,0,0,0-14.57-3.57,172.32,172.32,0,0,1-45.55,80.75l-.79.78c-2.83-10.43-9.84-22-20.43-32.6-10.77-10.77-22.56-17.83-33.13-20.57,36.78-40.26,80.14-104.16,80.69-157.8a170.94,170.94,0,0,1,22.62,65,7.5,7.5,0,0,0,14.87-2,185.66,185.66,0,0,0-48-102l10.71-10.7A7.5,7.5,0,0,0,303,39L292.29,49.72A187.49,187.49,0,0,0,32.55,54.91L16.64,70.83a7.5,7.5,0,0,0,10.61,10.6c5.8-5.8,24.87,3.66,37.12,15.91,13.45,13.46,21.24,31.78,15.9,37.12a7.5,7.5,0,0,0,10.61,10.61c4.33-4.33,20.94-.28,37.12,15.91,15.19,15.18,19.75,31.12,16.48,36.4L117.3,224.52,106.8,214a7.5,7.5,0,1,0-10.61,10.6l10.49,10.5L8.92,332.78a30,30,0,0,0,0,42.42ZM222.51,246.06c-3.42-11.83-11.47-23.26-20.26-32s-20.63-17.15-32.74-20.45L291.77,71.43c28,44.91-32.73,134.44-69.26,174.63ZM75,86.74c-8.83-8.84-20.53-17.1-32.61-20.42l.8-.8C100,8.66,187.05-.12,253.23,39.18c-53.77.62-117.69,44.15-157.69,80.7C92.31,107.61,83.93,95.7,75,86.74Zm63.64,63.63c-10.4-10.39-21.74-17.33-32-20.27C148,92.46,236.84,33.29,281.16,60.83L159,182.88c-2.87-10.46-9.89-22-20.38-32.51Z" transform="translate(-0.13)"/></g><path d="M351.88,197a7.5,7.5,0,1,1-7.5-7.5,7.5,7.5,0,0,1,7.5,7.5Z" transform="translate(-0.13)"/></g></g></svg>