<svg width="34" height="35" viewBox="0 0 34 35" fill="none" xmlns="http://www.w3.org/2000/svg">
<path d="M8.6183 26.9058H4.04688V31.4772" stroke="#B9120C" stroke-width="2" stroke-miterlimit="10"/>
<path d="M13.192 16.2391C14.4543 16.2391 15.4777 15.2157 15.4777 13.9534C15.4777 12.691 14.4543 11.6677 13.192 11.6677C11.9296 11.6677 10.9062 12.691 10.9062 13.9534C10.9062 15.2157 11.9296 16.2391 13.192 16.2391Z" stroke="#B9120C" stroke-width="2" stroke-miterlimit="10"/>
<path d="M20.0474 22.3343C18.785 22.3343 17.7617 21.3111 17.7617 20.0486C17.7617 18.7861 18.785 17.7629 20.0474 17.7629C21.3099 17.7629 22.3331 18.7861 22.3331 20.0486C22.3331 21.3111 21.3099 22.3343 20.0474 22.3343Z" stroke="#B9120C" stroke-width="2" stroke-miterlimit="10"/>
<path d="M12.4297 22.3343L20.8106 11.6677" stroke="#B9120C" stroke-width="2" stroke-miterlimit="10"/>
<path d="M31.5615 10.4997C32.5017 12.5622 32.9946 14.7808 32.9992 17.0003C33.0076 21.1039 31.4023 25.2105 28.264 28.3496C25.1722 31.4414 21.0891 32.9606 16.9992 33.0002C12.5299 33.0444 9.25753 31.6791 6.33259 29.1915C5.81449 28.7511 4.04688 26.905 4.04688 26.905" stroke="#B9120C" stroke-width="2" stroke-miterlimit="10"/>
<path d="M2.43774 23.5016C1.49755 21.4383 1.0046 19.2204 1.00003 17.001C0.991652 12.8974 2.59698 8.79074 5.73526 5.6517C8.82706 2.5599 12.9101 1.04066 17 1.00104C21.4693 0.95685 24.7417 2.32218 27.6667 4.80979C28.1847 5.25017 29.9524 7.09627 29.9524 7.09627" stroke="#B9120C" stroke-width="2" stroke-miterlimit="10"/>
<path d="M25.3828 7.09626H29.9542V2.52484" stroke="#B9120C" stroke-width="2" stroke-miterlimit="10"/>
<path d="M20.0465 5.98238C19.0766 5.71419 18.0541 5.57172 16.9989 5.57172C10.6873 5.57172 5.57031 10.6887 5.57031 17.0003C5.57031 19.2418 6.21565 21.334 7.33107 23.0986" stroke="#B9120C" stroke-width="2" stroke-miterlimit="10"/>
<path d="M13.9531 28.0189C14.923 28.2871 15.9455 28.4296 17.0007 28.4296C23.3123 28.4296 28.4293 23.3127 28.4293 17.001C28.4293 14.7595 27.784 12.6673 26.6685 10.9028" stroke="#B9120C" stroke-width="2" stroke-miterlimit="10"/>
</svg>
